STARTFONT 2.1
COMMENT
COMMENT Converted from OpenType font "Q:\font stuff\winfont\DejaVuSans.ttf" by "otf2bdf 3.0".
COMMENT
FONT -FreeType-DejaVu Sans-Medium-R-Normal--30-300-72-72-P-169-ISO10646-1
SIZE 30 72 72
FONTBOUNDINGBOX 81 45 -31 -12
STARTPROPERTIES 19
FOUNDRY "FreeType"
FAMILY_NAME "DejaVu Sans"
WEIGHT_NAME "Medium"
SLANT "R"
SETWIDTH_NAME "Normal"
ADD_STYLE_NAME ""
PIXEL_SIZE 30
POINT_SIZE 300
RESOLUTION_X 72
RESOLUTION_Y 72
SPACING "P"
AVERAGE_WIDTH 169
CHARSET_REGISTRY "ISO10646"
CHARSET_ENCODING "1"
FONT_ASCENT 27
FONT_DESCENT 7
COPYRIGHT "Copyright (c) 2003 by Bitstream, Inc. All Rights Reserved.  Copyright (c) 2006 by Tavmjong Bah. All Rights Reserved.  DejaVu changes are in public domain  "
_OTF_FONTFILE "Q:\font stuff\winfont\DejaVuSans.ttf"
_OTF_PSNAME "DejaVuSans"
ENDPROPERTIES
CHARS 5180
STARTCHAR 0020
ENCODING 32
SWIDTH 333 0
DWIDTH 10 0
BBX 0 0 0 0
BITMAP
ENDCHAR
STARTCHAR 0021
ENCODING 33
SWIDTH 400 0
DWIDTH 12 0
BBX 3 22 5 0
BITMAP
E0
E0
E0
E0
E0
E0
E0
E0
E0
E0
E0
E0
E0
E0
E0
00
00
00
E0
E0
E0
E0
ENDCHAR
STARTCHAR 0022
ENCODING 34
SWIDTH 466 0
DWIDTH 14 0
BBX 7 8 3 14
BITMAP
C6
C6
C6
C6
C6
C6
C6
C6
ENDCHAR
STARTCHAR 0023
ENCODING 35
SWIDTH 833 0
DWIDTH 25 0
BBX 21 22 2 0
BITMAP
00E1C0
00E1C0
00C180
00C180
01C380
01C300
3FFFF8
3FFFF8
3FFFF8
038700
038600
030600
070E00
FFFFE0
FFFFE0
FFFFE0
061C00
0E1C00
0C1800
0C1800
0C3800
1C3800
ENDCHAR
STARTCHAR 0024
ENCODING 36
SWIDTH 633 0
DWIDTH 19 0
BBX 14 26 2 -4
BITMAP
0300
0300
0300
1FE0
3FF8
7FF8
F318
E300
E300
E300
FF00
7FC0
3FF0
03F8
033C
031C
031C
031C
C33C
FFF8
FFF0
3FE0
0300
0300
0300
0300
ENDCHAR
STARTCHAR 0025
ENCODING 37
SWIDTH 966 0
DWIDTH 29 0
BBX 25 22 2 0
BITMAP
1E003000
7F807000
61806000
E1C0C000
C0C1C000
C0C18000
C0C30000
C0C70000
E1C60000
618E0000
7F8C3C00
1E18FF00
0038C300
0031C380
00718180
00618180
00C18180
01C18180
0181C380
0300C300
0700FF00
06003C00
ENDCHAR
STARTCHAR 0026
ENCODING 38
SWIDTH 766 0
DWIDTH 23 0
BBX 21 22 2 0
BITMAP
07E000
0FF800
1FF800
3C1800
380000
380000
380000
3C0000
1E0000
3F0000
3F8070
7BC0F0
71F0E0
E0F9E0
E07DC0
E03FC0
F01F80
F01F80
7C7FC0
3FFBE0
1FF1F0
07E0F8
ENDCHAR
STARTCHAR 0027
ENCODING 39
SWIDTH 266 0
DWIDTH 8 0
BBX 2 8 3 14
BITMAP
C0
C0
C0
C0
C0
C0
C0
C0
ENDCHAR
STARTCHAR 0028
ENCODING 40
SWIDTH 400 0
DWIDTH 12 0
BBX 7 27 3 -4
BITMAP
0E
0C
1C
18
38
30
70
70
70
E0
E0
E0
E0
E0
E0
E0
E0
E0
70
70
70
30
38
18
1C
0C
0E
ENDCHAR
STARTCHAR 0029
ENCODING 41
SWIDTH 400 0
DWIDTH 12 0
BBX 7 27 2 -4
BITMAP
E0
60
70
30
38
18
1C
1C
1C
0E
0E
0E
0E
0E
0E
0E
0E
0E
1C
1C
1C
18
38
30
70
60
E0
ENDCHAR
STARTCHAR 002A
ENCODING 42
SWIDTH 500 0
DWIDTH 15 0
BBX 14 14 1 8
BITMAP
0300
0300
0300
4308
F33C
3FF0
0FC0
0FC0
3B70
F33C
4308
0300
0300
0300
ENDCHAR
STARTCHAR 002B
ENCODING 43
SWIDTH 833 0
DWIDTH 25 0
BBX 18 18 3 0
BITMAP
00C000
00C000
00C000
00C000
00C000
00C000
00C000
00C000
FFFFC0
FFFFC0
00C000
00C000
00C000
00C000
00C000
00C000
00C000
00C000
ENDCHAR
STARTCHAR 002C
ENCODING 44
SWIDTH 333 0
DWIDTH 10 0
BBX 4 7 3 -3
BITMAP
70
70
70
70
60
E0
C0
ENDCHAR
STARTCHAR 002D
ENCODING 45
SWIDTH 366 0
DWIDTH 11 0
BBX 8 2 1 7
BITMAP
FF
FF
ENDCHAR
STARTCHAR 002E
ENCODING 46
SWIDTH 333 0
DWIDTH 10 0
BBX 3 4 4 0
BITMAP
E0
E0
E0
E0
ENDCHAR
STARTCHAR 002F
ENCODING 47
SWIDTH 333 0
DWIDTH 10 0
BBX 10 25 0 -3
BITMAP
00C0
01C0
0180
0180
0380
0300
0300
0300
0600
0600
0600
0C00
0C00
0C00
1800
1800
1800
3000
3000
3000
7000
6000
6000
E000
C000
ENDCHAR
STARTCHAR 0030
ENCODING 48
SWIDTH 633 0
DWIDTH 19 0
BBX 15 22 2 0
BITMAP
07C0
1FF0
3FF8
7C78
701C
701C
F01E
E00E
E00E
E00E
E00E
E00E
E00E
E00E
E00E
E01E
701C
701C
7C7C
3FF8
1FF0
07C0
ENDCHAR
STARTCHAR 0031
ENCODING 49
SWIDTH 633 0
DWIDTH 19 0
BBX 13 22 4 0
BITMAP
1F00
FF00
FF00
E700
0700
0700
0700
0700
0700
0700
0700
0700
0700
0700
0700
0700
0700
0700
0700
FFF8
FFF8
FFF8
ENDCHAR
STARTCHAR 0032
ENCODING 50
SWIDTH 633 0
DWIDTH 19 0
BBX 14 22 2 0
BITMAP
3FC0
FFF0
FFF8
C078
003C
001C
001C
001C
003C
0038
0078
00F0
01E0
03C0
0780
0F00
1E00
3C00
7800
FFFC
FFFC
FFFC
ENDCHAR
STARTCHAR 0033
ENCODING 51
SWIDTH 633 0
DWIDTH 19 0
BBX 14 22 2 0
BITMAP
1F80
7FE0
7FF0
60F8
0038
0038
0038
0038
0070
0FE0
0FC0
0FF0
0078
003C
001C
001C
001C
003C
C078
FFF8
FFF0
3F80
ENDCHAR
STARTCHAR 0034
ENCODING 52
SWIDTH 633 0
DWIDTH 19 0
BBX 16 22 1 0
BITMAP
0078
00F8
00F8
01B8
03B8
0338
0738
0E38
0C38
1C38
3838
3038
7038
E038
FFFF
FFFF
FFFF
0038
0038
0038
0038
0038
ENDCHAR
STARTCHAR 0035
ENCODING 53
SWIDTH 633 0
DWIDTH 19 0
BBX 14 22 2 0
BITMAP
7FF0
7FF0
7FF0
7000
7000
7000
7000
7000
7FC0
7FE0
7FF0
40F8
003C
001C
001C
001C
001C
003C
C0F8
FFF8
FFE0
3F80
ENDCHAR
STARTCHAR 0036
ENCODING 54
SWIDTH 633 0
DWIDTH 19 0
BBX 15 22 2 0
BITMAP
03F8
0FFC
1FFC
3E04
7800
7000
7000
F000
E3E0
EFF8
FFFC
F83C
F01E
E00E
E00E
E00E
600E
701E
383C
3FFC
1FF8
07E0
ENDCHAR
STARTCHAR 0037
ENCODING 55
SWIDTH 633 0
DWIDTH 19 0
BBX 14 22 2 0
BITMAP
FFFC
FFFC
FFFC
0038
0038
0070
0070
00F0
00E0
00E0
01E0
01C0
01C0
0380
0380
0780
0700
0700
0F00
0E00
0E00
1C00
ENDCHAR
STARTCHAR 0038
ENCODING 56
SWIDTH 633 0
DWIDTH 19 0
BBX 15 22 2 0
BITMAP
0FC0
1FF0
3FF8
783C
701C
701C
701C
701C
3838
1FF0
07C0
3FF8
783C
F01E
E00E
E00E
E00E
F01E
783C
7FFC
3FF8
0FE0
ENDCHAR
STARTCHAR 0039
ENCODING 57
SWIDTH 633 0
DWIDTH 19 0
BBX 15 22 2 0
BITMAP
0FC0
3FF0
7FF8
7838
F01C
E00C
E00E
E00E
E00E
F01E
783E
7FFE
3FEE
0F8E
001E
001C
003C
003C
40F8
7FF0
7FE0
3F80
ENDCHAR
STARTCHAR 003A
ENCODING 58
SWIDTH 333 0
DWIDTH 10 0
BBX 3 16 4 0
BITMAP
E0
E0
E0
E0
00
00
00
00
00
00
00
00
E0
E0
E0
E0
ENDCHAR
STARTCHAR 003B
ENCODING 59
SWIDTH 333 0
DWIDTH 10 0
BBX 4 19 3 -3
BITMAP
70
70
70
70
00
00
00
00
00
00
00
00
70
70
70
70
60
E0
C0
ENDCHAR
STARTCHAR 003C
ENCODING 60
SWIDTH 833 0
DWIDTH 25 0
BBX 19 16 3 1
BITMAP
000020
0001E0
000FC0
007E00
03F000
0FC000
7E0000
F00000
F00000
7E0000
0FC000
03F000
007E00
000FC0
0001E0
000020
ENDCHAR
STARTCHAR 003D
ENCODING 61
SWIDTH 833 0
DWIDTH 25 0
BBX 19 8 3 6
BITMAP
FFFFE0
FFFFE0
000000
000000
000000
000000
FFFFE0
FFFFE0
ENDCHAR
STARTCHAR 003E
ENCODING 62
SWIDTH 833 0
DWIDTH 25 0
BBX 19 16 3 1
BITMAP
800000
F00000
7E0000
0FC000
01F800
007E00
000FC0
0001E0
0001E0
000FC0
007E00
01F800
0FC000
7E0000
F00000
800000
ENDCHAR
STARTCHAR 003F
ENCODING 63
SWIDTH 533 0
DWIDTH 16 0
BBX 12 22 2 0
BITMAP
1F80
7FC0
FFE0
E0F0
8070
0070
0070
00E0
01E0
03C0
0780
0700
0E00
0E00
0E00
0E00
0000
0000
0E00
0E00
0E00
0E00
ENDCHAR
STARTCHAR 0040
ENCODING 64
SWIDTH 1000 0
DWIDTH 30 0
BBX 26 26 2 -5
BITMAP
003F8000
01FFF000
07FFF800
0FC07E00
1F001F00
3C000F00
38000780
783CE380
707EE1C0
F0FFE1C0
E1E1E1C0
E1C0E1C0
E1C0E1C0
E1C0E3C0
E1C0E380
E1E1E780
F0FFFF00
707EFC00
783CF000
38000000
3C000000
1F001000
0FC07800
07FFF000
01FFE000
007F0000
ENDCHAR
STARTCHAR 0041
ENCODING 65
SWIDTH 700 0
DWIDTH 21 0
BBX 20 22 0 0
BITMAP
00F000
00F000
01F800
01F800
01F800
039C00
039C00
079E00
070E00
070E00
0F0F00
0E0700
0E0700
1C0380
1FFF80
3FFFC0
3FFFC0
3801C0
7801E0
7000E0
7000E0
E00070
ENDCHAR
STARTCHAR 0042
ENCODING 66
SWIDTH 700 0
DWIDTH 21 0
BBX 16 22 3 0
BITMAP
FFE0
FFF8
FFFC
E03E
E00E
E00E
E00E
E00E
E03C
FFF8
FFF0
FFFC
E01E
E00F
E007
E007
E007
E00F
E01F
FFFE
FFFC
FFF0
ENDCHAR
STARTCHAR 0043
ENCODING 67
SWIDTH 700 0
DWIDTH 21 0
BBX 18 22 2 0
BITMAP
01FE00
07FF80
1FFFC0
3F01C0
3C0040
780000
700000
F00000
E00000
E00000
E00000
E00000
E00000
E00000
F00000
700000
780000
3C0040
3F01C0
1FFFC0
07FF80
01FE00
ENDCHAR
STARTCHAR 0044
ENCODING 68
SWIDTH 766 0
DWIDTH 23 0
BBX 18 22 3 0
BITMAP
FFE000
FFF800
FFFE00
E03F00
E00F80
E00780
E00380
E001C0
E001C0
E001C0
E001C0
E001C0
E001C0
E001C0
E003C0
E00380
E00780
E00F80
E03F00
FFFE00
FFF800
FFE000
ENDCHAR
STARTCHAR 0045
ENCODING 69
SWIDTH 633 0
DWIDTH 19 0
BBX 14 22 3 0
BITMAP
FFFC
FFFC
FFFC
E000
E000
E000
E000
E000
E000
FFF8
FFF8
FFF8
E000
E000
E000
E000
E000
E000
E000
FFFC
FFFC
FFFC
ENDCHAR
STARTCHAR 0046
ENCODING 70
SWIDTH 566 0
DWIDTH 17 0
BBX 13 22 3 0
BITMAP
FFF8
FFF8
FFF8
E000
E000
E000
E000
E000
E000
FFF0
FFF0
FFF0
E000
E000
E000
E000
E000
E000
E000
E000
E000
E000
ENDCHAR
STARTCHAR 0047
ENCODING 71
SWIDTH 766 0
DWIDTH 23 0
BBX 19 22 2 0
BITMAP
01FE00
07FF80
1FFFC0
3E01C0
3C0040
780000
700000
F00000
E00000
E00000
E01FE0
E01FE0
E01FE0
E000E0
F000E0
7000E0
7800E0
3C00E0
3F01E0
1FFFC0
07FF80
01FC00
ENDCHAR
STARTCHAR 0048
ENCODING 72
SWIDTH 766 0
DWIDTH 23 0
BBX 17 22 3 0
BITMAP
E00380
E00380
E00380
E00380
E00380
E00380
E00380
E00380
E00380
FFFF80
FFFF80
FFFF80
E00380
E00380
E00380
E00380
E00380
E00380
E00380
E00380
E00380
E00380
ENDCHAR
STARTCHAR 0049
ENCODING 73
SWIDTH 300 0
DWIDTH 9 0
BBX 3 22 3 0
BITMAP
E0
E0
E0
E0
E0
E0
E0
E0
E0
E0
E0
E0
E0
E0
E0
E0
E0
E0
E0
E0
E0
E0
ENDCHAR
STARTCHAR 004A
ENCODING 74
SWIDTH 300 0
DWIDTH 9 0
BBX 8 28 -2 -6
BITMAP
07
07
07
07
07
07
07
07
07
07
07
07
07
07
07
07
07
07
07
07
07
07
07
0F
1E
FE
FC
F0
ENDCHAR
STARTCHAR 004B
ENCODING 75
SWIDTH 666 0
DWIDTH 20 0
BBX 17 22 3 0
BITMAP
E01F00
E03E00
E07800
E0F000
E1E000
E3C000
E78000
EF0000
FE0000
FC0000
FC0000
FE0000
EF0000
E78000
E3C000
E1E000
E1F000
E0F800
E07C00
E03E00
E01F00
E00F80
ENDCHAR
STARTCHAR 004C
ENCODING 76
SWIDTH 566 0
DWIDTH 17 0
BBX 14 22 3 0
BITMAP
E000
E000
E000
E000
E000
E000
E000
E000
E000
E000
E000
E000
E000
E000
E000
E000
E000
E000
E000
FFFC
FFFC
FFFC
ENDCHAR
STARTCHAR 004D
ENCODING 77
SWIDTH 866 0
DWIDTH 26 0
BBX 20 22 3 0
BITMAP
F801F0
FC03F0
FC03F0
FC03F0
EE0770
EE0770
EF0F70
E70E70
E70E70
E79E70
E39C70
E39C70
E1F870
E1F870
E1F870
E0F070
E0F070
E0F070
E00070
E00070
E00070
E00070
ENDCHAR
STARTCHAR 004E
ENCODING 78
SWIDTH 733 0
DWIDTH 22 0
BBX 17 22 3 0
BITMAP
F00380
F80380
FC0380
FC0380
FE0380
EE0380
EF0380
E70380
E78380
E38380
E1C380
E1E380
E0E380
E0F380
E07380
E07B80
E03B80
E03F80
E01F80
E01F80
E00F80
E00780
ENDCHAR
STARTCHAR 004F
ENCODING 79
SWIDTH 800 0
DWIDTH 24 0
BBX 20 22 2 0
BITMAP
01F800
0FFE00
1FFF80
3E07C0
3C03C0
7801E0
7000E0
F000F0
E00070
E00070
E00070
E00070
E00070
E00070
F000F0
7000E0
7801E0
3C03C0
3E07C0
1FFF80
0FFF00
01F800
ENDCHAR
STARTCHAR 0050
ENCODING 80
SWIDTH 600 0
DWIDTH 18 0
BBX 14 22 3 0
BITMAP
FFC0
FFF0
FFF8
E078
E03C
E01C
E01C
E01C
E03C
E078
FFF8
FFF0
FFC0
E000
E000
E000
E000
E000
E000
E000
E000
E000
ENDCHAR
STARTCHAR 0051
ENCODING 81
SWIDTH 800 0
DWIDTH 24 0
BBX 20 26 2 -4
BITMAP
01F800
0FFE00
1FFF80
3E07C0
3C03C0
7801E0
7000E0
F000F0
E00070
E00070
E00070
E00070
E00070
E00070
F000F0
7000E0
7801E0
3C03C0
3E07C0
1FFF80
0FFE00
01FE00
000E00
000F00
000780
0003C0
ENDCHAR
STARTCHAR 0052
ENCODING 82
SWIDTH 700 0
DWIDTH 21 0
BBX 17 22 3 0
BITMAP
FFC000
FFF000
FFF800
E07C00
E03C00
E01C00
E01C00
E01C00
E03C00
E07800
FFF800
FFE000
FFE000
E0F000
E07800
E03C00
E01C00
E01E00
E00E00
E00F00
E00700
E00780
ENDCHAR
STARTCHAR 0053
ENCODING 83
SWIDTH 633 0
DWIDTH 19 0
BBX 15 22 2 0
BITMAP
0FF0
3FFC
7FFC
780C
F000
E000
E000
E000
F800
7F80
3FF0
0FF8
00FC
001E
000E
000E
000E
001E
C03C
FFFC
FFF8
3FE0
ENDCHAR
STARTCHAR 0054
ENCODING 84
SWIDTH 600 0
DWIDTH 18 0
BBX 19 22 0 0
BITMAP
FFFFE0
FFFFE0
FFFFE0
00E000
00E000
00E000
00E000
00E000
00E000
00E000
00E000
00E000
00E000
00E000
00E000
00E000
00E000
00E000
00E000
00E000
00E000
00E000
ENDCHAR
STARTCHAR 0055
ENCODING 85
SWIDTH 733 0
DWIDTH 22 0
BBX 17 22 3 0
BITMAP
E00380
E00380
E00380
E00380
E00380
E00380
E00380
E00380
E00380
E00380
E00380
E00380
E00380
E00380
E00380
E00380
F00780
700700
7C1F00
3FFE00
1FFC00
07F000
ENDCHAR
STARTCHAR 0056
ENCODING 86
SWIDTH 700 0
DWIDTH 21 0
BBX 20 22 0 0
BITMAP
E00070
7000E0
7000E0
7801E0
3801C0
3801C0
3C03C0
1C0380
1C0380
0E0700
0E0700
0F0F00
070E00
070E00
079E00
039C00
039C00
01F800
01F800
01F800
00F000
00F000
ENDCHAR
STARTCHAR 0057
ENCODING 87
SWIDTH 1000 0
DWIDTH 30 0
BBX 28 22 1 0
BITMAP
E0060070
E00F0070
700F00E0
700F00E0
700F00E0
701981E0
381981C0
381981C0
381981C0
3830C3C0
1C30C380
1C30C380
1C30C380
1C606780
0E606700
0E606700
0E606700
0EC03F00
07C03E00
07C03E00
07C03E00
07801E00
ENDCHAR
STARTCHAR 0058
ENCODING 88
SWIDTH 700 0
DWIDTH 21 0
BBX 19 22 1 0
BITMAP
7801E0
3C03C0
1C0380
1E0780
0F0F00
070E00
079C00
03FC00
01F800
01F000
00F000
01F000
01F800
03F800
079C00
071E00
0E0E00
1E0700
3C0780
380380
7803C0
F001E0
ENDCHAR
STARTCHAR 0059
ENCODING 89
SWIDTH 600 0
DWIDTH 18 0
BBX 19 22 0 0
BITMAP
F001E0
7803C0
380380
3C0780
1E0F00
0E1E00
071E00
07BC00
03F800
01F000
01F000
00E000
00E000
00E000
00E000
00E000
00E000
00E000
00E000
00E000
00E000
00E000
ENDCHAR
STARTCHAR 005A
ENCODING 90
SWIDTH 700 0
DWIDTH 21 0
BBX 18 22 1 0
BITMAP
FFFFC0
FFFFC0
FFFFC0
000780
000F00
001E00
001E00
003C00
007800
00F000
01E000
01E000
03C000
078000
0F0000
1E0000
1E0000
3C0000
780000
FFFFC0
FFFFC0
FFFFC0
ENDCHAR
STARTCHAR 005B
ENCODING 91
SWIDTH 400 0
DWIDTH 12 0
BBX 7 27 3 -4
BITMAP
FE
FE
FE
E0
E0
E0
E0
E0
E0
E0
E0
E0
E0
E0
E0
E0
E0
E0
E0
E0
E0
E0
E0
E0
FE
FE
FE
ENDCHAR
STARTCHAR 005C
ENCODING 92
SWIDTH 333 0
DWIDTH 10 0
BBX 10 25 0 -3
BITMAP
C000
E000
6000
6000
7000
3000
3000
3000
1800
1800
1800
0C00
0C00
0C00
0600
0600
0600
0300
0300
0300
0380
0180
0180
01C0
00C0
ENDCHAR
STARTCHAR 005D
ENCODING 93
SWIDTH 400 0
DWIDTH 12 0
BBX 7 27 3 -4
BITMAP
FE
FE
FE
0E
0E
0E
0E
0E
0E
0E
0E
0E
0E
0E
0E
0E
0E
0E
0E
0E
0E
0E
0E
0E
FE
FE
FE
ENDCHAR
STARTCHAR 005E
ENCODING 94
SWIDTH 833 0
DWIDTH 25 0
BBX 19 8 3 14
BITMAP
00E000
01F000
03B800
071C00
0E0E00
1C0700
780380
F001E0
ENDCHAR
STARTCHAR 005F
ENCODING 95
SWIDTH 500 0
DWIDTH 15 0
BBX 15 3 0 -7
BITMAP
FFFE
FFFE
FFFE
ENDCHAR
STARTCHAR 0060
ENCODING 96
SWIDTH 500 0
DWIDTH 15 0
BBX 7 6 3 18
BITMAP
E0
70
38
18
0C
0E
ENDCHAR
STARTCHAR 0061
ENCODING 97
SWIDTH 600 0
DWIDTH 18 0
BBX 14 16 2 0
BITMAP
1FC0
7FF0
7FF8
6078
001C
001C
0FFC
3FFC
7FFC
F01C
E01C
E03C
F07C
7FFC
7FDC
1F1C
ENDCHAR
STARTCHAR 0062
ENCODING 98
SWIDTH 633 0
DWIDTH 19 0
BBX 15 23 3 0
BITMAP
E000
E000
E000
E000
E000
E000
E000
E3E0
EFF0
FFF8
F83C
F01C
E00E
E00E
E00E
E00E
E00E
E00E
F01C
F83C
FFF8
EFF0
E3E0
ENDCHAR
STARTCHAR 0063
ENCODING 99
SWIDTH 566 0
DWIDTH 17 0
BBX 13 16 2 0
BITMAP
07F0
1FF8
3FF8
7C08
7000
F000
E000
E000
E000
E000
F000
7000
7C08
3FF8
1FF8
07F0
ENDCHAR
STARTCHAR 0064
ENCODING 100
SWIDTH 633 0
DWIDTH 19 0
BBX 15 23 2 0
BITMAP
000E
000E
000E
000E
000E
000E
000E
0F8E
1FEE
3FFE
783E
701E
E01E
E00E
E00E
E00E
E00E
E00E
701E
783E
3FFE
1FEE
0F8E
ENDCHAR
STARTCHAR 0065
ENCODING 101
SWIDTH 600 0
DWIDTH 18 0
BBX 15 16 2 0
BITMAP
07E0
1FF8
3FFC
783C
701E
E00E
FFFE
FFFE
FFFE
E000
E000
7004
7C1C
3FFC
1FF8
07E0
ENDCHAR
STARTCHAR 0066
ENCODING 102
SWIDTH 366 0
DWIDTH 11 0
BBX 11 23 0 0
BITMAP
03E0
0FE0
0FE0
1E00
1C00
1C00
1C00
FFC0
FFC0
FFC0
1C00
1C00
1C00
1C00
1C00
1C00
1C00
1C00
1C00
1C00
1C00
1C00
1C00
ENDCHAR
STARTCHAR 0067
ENCODING 103
SWIDTH 633 0
DWIDTH 19 0
BBX 15 22 2 -6
BITMAP
0F8E
1FEE
3FFE
783E
701E
E00E
E00E
E00E
E00E
E00E
E00E
701E
783E
3FFE
3FEE
0F8E
001E
001C
207C
3FF8
3FF0
1FE0
ENDCHAR
STARTCHAR 0068
ENCODING 104
SWIDTH 633 0
DWIDTH 19 0
BBX 14 23 3 0
BITMAP
E000
E000
E000
E000
E000
E000
E000
E3E0
EFF0
FFF8
F83C
F01C
E01C
E01C
E01C
E01C
E01C
E01C
E01C
E01C
E01C
E01C
E01C
ENDCHAR
STARTCHAR 0069
ENCODING 105
SWIDTH 266 0
DWIDTH 8 0
BBX 3 23 3 0
BITMAP
E0
E0
E0
00
00
00
00
E0
E0
E0
E0
E0
E0
E0
E0
E0
E0
E0
E0
E0
E0
E0
E0
ENDCHAR
STARTCHAR 006A
ENCODING 106
SWIDTH 266 0
DWIDTH 8 0
BBX 6 29 0 -6
BITMAP
1C
1C
1C
00
00
00
00
1C
1C
1C
1C
1C
1C
1C
1C
1C
1C
1C
1C
1C
1C
1C
1C
1C
1C
3C
F8
F8
E0
ENDCHAR
STARTCHAR 006B
ENCODING 107
SWIDTH 566 0
DWIDTH 17 0
BBX 14 23 3 0
BITMAP
E000
E000
E000
E000
E000
E000
E000
E03C
E0F8
E1F0
E3E0
E7C0
EF00
FE00
FC00
FE00
EF00
E780
E3C0
E1E0
E0F0
E078
E03C
ENDCHAR
STARTCHAR 006C
ENCODING 108
SWIDTH 266 0
DWIDTH 8 0
BBX 3 23 3 0
BITMAP
E0
E0
E0
E0
E0
E0
E0
E0
E0
E0
E0
E0
E0
E0
E0
E0
E0
E0
E0
E0
E0
E0
E0
ENDCHAR
STARTCHAR 006D
ENCODING 109
SWIDTH 966 0
DWIDTH 29 0
BBX 23 16 3 0
BITMAP
E3C1F0
EFE3F8
FFF7FC
F8761E
F03C0E
E0380E
E0380E
E0380E
E0380E
E0380E
E0380E
E0380E
E0380E
E0380E
E0380E
E0380E
ENDCHAR
STARTCHAR 006E
ENCODING 110
SWIDTH 633 0
DWIDTH 19 0
BBX 14 16 3 0
BITMAP
E3E0
EFF0
FFF8
F83C
F01C
E01C
E01C
E01C
E01C
E01C
E01C
E01C
E01C
E01C
E01C
E01C
ENDCHAR
STARTCHAR 006F
ENCODING 111
SWIDTH 600 0
DWIDTH 18 0
BBX 15 16 2 0
BITMAP
0FE0
1FF0
3FF8
783C
701C
E01E
E00E
E00E
E00E
E00E
E01E
701C
783C
3FF8
1FF0
0FE0
ENDCHAR
STARTCHAR 0070
ENCODING 112
SWIDTH 633 0
DWIDTH 19 0
BBX 15 22 3 -6
BITMAP
E3E0
EFF0
FFF8
F83C
F01C
E00E
E00E
E00E
E00E
E00E
E00E
F01C
F83C
FFF8
EFF0
E3E0
E000
E000
E000
E000
E000
E000
ENDCHAR
STARTCHAR 0071
ENCODING 113
SWIDTH 633 0
DWIDTH 19 0
BBX 15 22 2 -6
BITMAP
0F8E
1FEE
3FFE
783E
701E
E01E
E00E
E00E
E00E
E00E
E00E
701E
783E
3FFE
1FEE
0F8E
000E
000E
000E
000E
000E
000E
ENDCHAR
STARTCHAR 0072
ENCODING 114
SWIDTH 400 0
DWIDTH 12 0
BBX 10 16 3 0
BITMAP
E3C0
EFC0
FFC0
F800
F000
E000
E000
E000
E000
E000
E000
E000
E000
E000
E000
E000
ENDCHAR
STARTCHAR 0073
ENCODING 115
SWIDTH 533 0
DWIDTH 16 0
BBX 12 16 2 0
BITMAP
1FC0
7FE0
FFE0
F020
E000
E000
7C00
3FC0
03E0
0070
0070
8070
E0F0
FFE0
7FE0
1F80
ENDCHAR
STARTCHAR 0074
ENCODING 116
SWIDTH 400 0
DWIDTH 12 0
BBX 11 21 1 0
BITMAP
3800
3800
3800
3800
3800
FFE0
FFE0
FFE0
3800
3800
3800
3800
3800
3800
3800
3800
3800
3C00
3FE0
1FE0
07E0
ENDCHAR
STARTCHAR 0075
ENCODING 117
SWIDTH 633 0
DWIDTH 19 0
BBX 14 16 3 0
BITMAP
E01C
E01C
E01C
E01C
E01C
E01C
E01C
E01C
E01C
E01C
E01C
E03C
F07C
7FFC
3FDC
1F1C
ENDCHAR
STARTCHAR 0076
ENCODING 118
SWIDTH 600 0
DWIDTH 18 0
BBX 16 16 1 0
BITMAP
E007
700E
700E
781E
381C
381C
1C3C
1C38
1C78
0E70
0E70
0FF0
07E0
07E0
03C0
03C0
ENDCHAR
STARTCHAR 0077
ENCODING 119
SWIDTH 833 0
DWIDTH 25 0
BBX 22 16 1 0
BITMAP
E0301C
F0783C
707838
707838
70FC38
78CC78
38CC70
38CC70
39C670
1D86E0
1D86E0
1D86E0
1F03E0
0F03C0
0F03C0
0F03C0
ENDCHAR
STARTCHAR 0078
ENCODING 120
SWIDTH 600 0
DWIDTH 18 0
BBX 16 16 1 0
BITMAP
780F
3C1E
1E3C
0E38
0F78
07F0
03E0
01C0
03E0
07E0
0FF0
0F78
1E38
3C1C
781E
F00F
ENDCHAR
STARTCHAR 0079
ENCODING 121
SWIDTH 600 0
DWIDTH 18 0
BBX 16 22 1 -6
BITMAP
E00F
700E
700E
781C
381C
383C
1C38
1C78
1E70
0EF0
0FE0
07E0
07C0
03C0
03C0
0380
0780
0700
0F00
7E00
7E00
7800
ENDCHAR
STARTCHAR 007A
ENCODING 122
SWIDTH 533 0
DWIDTH 16 0
BBX 13 16 1 0
BITMAP
FFF8
FFF8
FFF8
00F0
01E0
01E0
03C0
0780
0F00
1E00
1E00
3C00
7800
FFF8
FFF8
FFF8
ENDCHAR
STARTCHAR 007B
ENCODING 123
SWIDTH 633 0
DWIDTH 19 0
BBX 12 28 3 -5
BITMAP
01F0
03F0
07F0
0780
0700
0700
0700
0700
0700
0700
0700
0F00
FE00
F800
FE00
0F00
0700
0700
0700
0700
0700
0700
0700
0700
0780
07F0
03F0
00F0
ENDCHAR
STARTCHAR 007C
ENCODING 124
SWIDTH 333 0
DWIDTH 10 0
BBX 2 30 4 -7
BITMAP
C0
C0
C0
C0
C0
C0
C0
C0
C0
C0
C0
C0
C0
C0
C0
C0
C0
C0
C0
C0
C0
C0
C0
C0
C0
C0
C0
C0
C0
C0
ENDCHAR
STARTCHAR 007D
ENCODING 125
SWIDTH 633 0
DWIDTH 19 0
BBX 12 28 4 -5
BITMAP
F800
FC00
FE00
1E00
0E00
0E00
0E00
0E00
0E00
0E00
0E00
0F00
07F0
01F0
07F0
0F00
0E00
0E00
0E00
0E00
0E00
0E00
0E00
0E00
1E00
FE00
FC00
F000
ENDCHAR
STARTCHAR 007E
ENCODING 126
SWIDTH 833 0
DWIDTH 25 0
BBX 19 4 3 7
BITMAP
1F0020
7FE0E0
E0FFC0
801F00
ENDCHAR
STARTCHAR 00A0
ENCODING 160
SWIDTH 333 0
DWIDTH 10 0
BBX 0 0 0 0
BITMAP
ENDCHAR
STARTCHAR 00A1
ENCODING 161
SWIDTH 400 0
DWIDTH 12 0
BBX 3 22 5 0
BITMAP
E0
E0
E0
E0
00
00
00
E0
E0
E0
E0
E0
E0
E0
E0
E0
E0
E0
E0
E0
E0
E0
ENDCHAR
STARTCHAR 00A2
ENCODING 162
SWIDTH 633 0
DWIDTH 19 0
BBX 13 24 3 -4
BITMAP
0180
0180
0180
0180
07F0
1FF8
3FF8
7988
7180
E180
E180
E180
E180
E180
E180
7180
7988
3FF8
1FF8
07F0
0180
0180
0180
0180
ENDCHAR
STARTCHAR 00A3
ENCODING 163
SWIDTH 633 0
DWIDTH 19 0
BBX 14 22 2 0
BITMAP
03F8
07FC
0FFC
0E04
1C00
1C00
1C00
1C00
1C00
1C00
FFF0
FFF0
FFF0
1C00
1C00
1C00
1C00
1C00
1C00
FFFC
FFFC
FFFC
ENDCHAR
STARTCHAR 00A4
ENCODING 164
SWIDTH 633 0
DWIDTH 19 0
BBX 16 16 1 3
BITMAP
4002
E007
73CE
3FFC
1FF8
1C38
381C
381C
381C
381C
1C38
1FF8
3FFC
73CE
E007
4002
ENDCHAR
STARTCHAR 00A5
ENCODING 165
SWIDTH 633 0
DWIDTH 19 0
BBX 17 22 1 0
BITMAP
F00780
700700
780F00
380E00
3C1E00
1C1C00
1E3C00
0E3800
077000
7F7F00
7FFF00
03E000
01C000
01C000
7FFF00
7FFF00
01C000
01C000
01C000
01C000
01C000
01C000
ENDCHAR
STARTCHAR 00A6
ENCODING 166
SWIDTH 333 0
DWIDTH 10 0
BBX 2 26 4 -5
BITMAP
C0
C0
C0
C0
C0
C0
C0
C0
C0
C0
C0
00
00
00
00
C0
C0
C0
C0
C0
C0
C0
C0
C0
C0
C0
ENDCHAR
STARTCHAR 00A7
ENCODING 167
SWIDTH 500 0
DWIDTH 15 0
BBX 12 25 1 -3
BITMAP
0FC0
3FE0
7860
7020
7000
7000
3800
1C00
3F00
77C0
E1E0
E0F0
E070
7070
7870
1EE0
0780
03C0
01C0
00E0
00E0
40E0
61C0
7FC0
3F00
ENDCHAR
STARTCHAR 00A8
ENCODING 168
SWIDTH 500 0
DWIDTH 15 0
BBX 9 3 3 20
BITMAP
E380
E380
E380
ENDCHAR
STARTCHAR 00A9
ENCODING 169
SWIDTH 1000 0
DWIDTH 30 0
BBX 22 22 4 0
BITMAP
00FC00
07FF80
0F03C0
1C00E0
380070
70FC38
61FE18
638218
C7000C
C6000C
C6000C
C6000C
C6000C
C7000C
638218
61FE18
70FC38
380070
1C00E0
0F03C0
07FF80
00FC00
ENDCHAR
STARTCHAR 00AA
ENCODING 170
SWIDTH 466 0
DWIDTH 14 0
BBX 11 16 2 6
BITMAP
3F00
7FC0
40E0
0060
1FE0
7FE0
E060
C060
C0E0
E1E0
7F60
3E60
0000
0000
FFE0
FFE0
ENDCHAR
STARTCHAR 00AB
ENCODING 171
SWIDTH 600 0
DWIDTH 18 0
BBX 13 13 2 3
BITMAP
0208
0618
0E38
1C70
38E0
F3C0
C300
F3C0
38E0
1C70
0E38
0618
0208
ENDCHAR
STARTCHAR 00AC
ENCODING 172
SWIDTH 833 0
DWIDTH 25 0
BBX 19 8 3 5
BITMAP
FFFFE0
FFFFE0
000060
000060
000060
000060
000060
000060
ENDCHAR
STARTCHAR 00AD
ENCODING 173
SWIDTH 366 0
DWIDTH 11 0
BBX 8 2 1 7
BITMAP
FF
FF
ENDCHAR
STARTCHAR 00AE
ENCODING 174
SWIDTH 1000 0
DWIDTH 30 0
BBX 22 22 4 0
BITMAP
00FC00
07FF80
0F03C0
1C00E0
380070
71F838
61FC18
618618
C1860C
C1860C
C1FC0C
C1F80C
C1980C
C18C0C
618E18
618618
718338
380070
1C00E0
0F03C0
07FF80
00FC00
ENDCHAR
STARTCHAR 00AF
ENCODING 175
SWIDTH 500 0
DWIDTH 15 0
BBX 9 3 3 19
BITMAP
FF80
FF80
FF80
ENDCHAR
STARTCHAR 00B0
ENCODING 176
SWIDTH 500 0
DWIDTH 15 0
BBX 9 9 3 13
BITMAP
3E00
7F00
E380
C180
C180
C180
E380
7F00
3E00
ENDCHAR
STARTCHAR 00B1
ENCODING 177
SWIDTH 833 0
DWIDTH 25 0
BBX 18 19 3 0
BITMAP
00C000
00C000
00C000
00C000
00C000
00C000
FFFFC0
FFFFC0
00C000
00C000
00C000
00C000
00C000
00C000
000000
000000
000000
FFFFC0
FFFFC0
ENDCHAR
STARTCHAR 00B2
ENCODING 178
SWIDTH 400 0
DWIDTH 12 0
BBX 9 12 1 10
BITMAP
7E00
FF00
8380
0180
0180
0300
0600
0C00
3800
7000
FF80
FF80
ENDCHAR
STARTCHAR 00B3
ENCODING 179
SWIDTH 400 0
DWIDTH 12 0
BBX 9 12 1 10
BITMAP
7E00
FF80
8180
0180
3F00
3F00
0380
0180
0180
8380
FF00
7E00
ENDCHAR
STARTCHAR 00B4
ENCODING 180
SWIDTH 500 0
DWIDTH 15 0
BBX 7 6 5 18
BITMAP
0E
1C
38
30
60
E0
ENDCHAR
STARTCHAR 00B5
ENCODING 181
SWIDTH 633 0
DWIDTH 19 0
BBX 16 22 3 -6
BITMAP
E01C
E01C
E01C
E01C
E01C
E01C
E01C
E01C
E01C
E01C
E01C
E03C
F07C
FFFC
EFCF
E78E
E000
E000
E000
E000
E000
E000
ENDCHAR
STARTCHAR 00B6
ENCODING 182
SWIDTH 633 0
DWIDTH 19 0
BBX 14 25 2 -3
BITMAP
0FFC
3FFC
7F8C
7F8C
FF8C
FF8C
FF8C
FF8C
FF8C
7F8C
3F8C
1F8C
038C
018C
018C
018C
018C
018C
018C
018C
018C
018C
018C
018C
018C
ENDCHAR
STARTCHAR 00B7
ENCODING 183
SWIDTH 333 0
DWIDTH 10 0
BBX 3 4 3 8
BITMAP
E0
E0
E0
E0
ENDCHAR
STARTCHAR 00B8
ENCODING 184
SWIDTH 500 0
DWIDTH 15 0
BBX 6 6 4 -6
BITMAP
30
18
1C
1C
FC
F8
ENDCHAR
STARTCHAR 00B9
ENCODING 185
SWIDTH 400 0
DWIDTH 12 0
BBX 8 12 2 10
BITMAP
38
F8
D8
18
18
18
18
18
18
18
FF
FF
ENDCHAR
STARTCHAR 00BA
ENCODING 186
SWIDTH 466 0
DWIDTH 14 0
BBX 11 16 1 6
BITMAP
1F00
3F80
71C0
E0E0
C060
C060
C060
C060
E0E0
71C0
3F80
1F00
0000
0000
7FC0
7FC0
ENDCHAR
STARTCHAR 00BB
ENCODING 187
SWIDTH 600 0
DWIDTH 18 0
BBX 13 13 3 3
BITMAP
8200
C300
E380
71C0
38E0
1E78
0618
1E78
38E0
71C0
E380
C300
8200
ENDCHAR
STARTCHAR 00BC
ENCODING 188
SWIDTH 966 0
DWIDTH 29 0
BBX 26 22 2 0
BITMAP
38007000
F8006000
D800C000
1801C000
18018000
18038000
18030000
18060000
180E0000
180C0000
FF1C0700
FF380700
00300B00
00701B00
00603300
00C02300
01C06300
0180C300
0380FFC0
0300FFC0
06000300
0E000300
ENDCHAR
STARTCHAR 00BD
ENCODING 189
SWIDTH 966 0
DWIDTH 29 0
BBX 25 22 2 0
BITMAP
38007000
F8006000
D800C000
1801C000
18018000
18038000
18030000
18060000
180E0000
180C0000
FF1C7E00
FF38FF00
00308380
00700180
00600180
00C00300
01C00600
01800C00
03803800
03007000
0600FF80
0E00FF80
ENDCHAR
STARTCHAR 00BE
ENCODING 190
SWIDTH 966 0
DWIDTH 29 0
BBX 27 22 1 0
BITMAP
7E003800
FF803000
81806000
0180E000
3F00C000
3F01C000
03818000
01830000
01870000
83860000
FF0E0380
7E1C0380
00180580
00380D80
00301980
00601180
00E03180
00C06180
01C07FE0
01807FE0
03000180
07000180
ENDCHAR
STARTCHAR 00BF
ENCODING 191
SWIDTH 533 0
DWIDTH 16 0
BBX 12 22 2 0
BITMAP
0700
0700
0700
0700
0000
0000
0700
0700
0700
0700
0E00
1E00
3C00
7800
7000
E000
E000
E010
F070
7FF0
3FE0
1F80
ENDCHAR
STARTCHAR 00C0
ENCODING 192
SWIDTH 700 0
DWIDTH 21 0
BBX 20 27 0 0
BITMAP
01C000
00E000
007000
003000
000000
00F000
00F000
01F800
01F800
01F800
039C00
039C00
079E00
070E00
070E00
0F0F00
0E0700
0E0700
1C0380
1FFF80
3FFFC0
3FFFC0
3801C0
7801E0
7000E0
7000E0
E00070
ENDCHAR
STARTCHAR 00C1
ENCODING 193
SWIDTH 700 0
DWIDTH 21 0
BBX 20 27 0 0
BITMAP
001800
003000
006000
00E000
000000
00F000
00F000
01F800
01F800
01F800
039C00
039C00
079E00
070E00
070E00
0F0F00
0E0700
0E0700
1C0380
1FFF80
3FFFC0
3FFFC0
3801C0
7801E0
7000E0
7000E0
E00070
ENDCHAR
STARTCHAR 00C2
ENCODING 194
SWIDTH 700 0
DWIDTH 21 0
BBX 20 27 0 0
BITMAP
00F000
00F000
019800
030C00
000000
00F000
00F000
01F800
01F800
01F800
039C00
039C00
079E00
070E00
070E00
0F0F00
0E0700
0E0700
1C0380
1FFF80
3FFFC0
3FFFC0
3801C0
7801E0
7000E0
7000E0
E00070
ENDCHAR
STARTCHAR 00C3
ENCODING 195
SWIDTH 700 0
DWIDTH 21 0
BBX 20 27 0 0
BITMAP
03C600
07FE00
063C00
000000
000000
00F000
00F000
01F800
01F800
01F800
039C00
039C00
079E00
070E00
070E00
0F0F00
0E0700
0E0700
1C0380
1FFF80
3FFFC0
3FFFC0
3801C0
7801E0
7000E0
7000E0
E00070
ENDCHAR
STARTCHAR 00C4
ENCODING 196
SWIDTH 700 0
DWIDTH 21 0
BBX 20 27 0 0
BITMAP
039C00
039C00
039C00
000000
000000
00F000
00F000
01F800
01F800
01F800
039C00
039C00
079E00
070E00
070E00
0F0F00
0E0700
0E0700
1C0380
1FFF80
3FFFC0
3FFFC0
3801C0
7801E0
7000E0
7000E0
E00070
ENDCHAR
STARTCHAR 00C5
ENCODING 197
SWIDTH 700 0
DWIDTH 21 0
BBX 20 28 0 0
BITMAP
00F000
01F800
039C00
030C00
030C00
039C00
01F800
00F000
01F000
01F800
01F800
03FC00
039C00
039C00
070E00
070E00
0F0F00
0E0700
0E0700
1C0380
1FFF80
3FFF80
3FFFC0
3801C0
7801E0
7000E0
7000E0
E00070
ENDCHAR
STARTCHAR 00C6
ENCODING 198
SWIDTH 966 0
DWIDTH 29 0
BBX 27 22 0 0
BITMAP
007FFFE0
00FFFFE0
00FFFFE0
00E70000
01E70000
01C70000
03C70000
03870000
03870000
0707FFC0
0707FFC0
0F07FFC0
0E070000
1E070000
1FFF0000
1FFF0000
3FFF0000
38070000
78070000
7007FFE0
7007FFE0
E007FFE0
ENDCHAR
STARTCHAR 00C7
ENCODING 199
SWIDTH 700 0
DWIDTH 21 0
BBX 18 28 2 -6
BITMAP
01FE00
07FF80
1FFFC0
3F01C0
3C0040
780000
700000
F00000
E00000
E00000
E00000
E00000
E00000
E00000
F00000
700000
780000
3C0040
3F01C0
1FFFC0
07FF80
01FE00
00C000
006000
007000
007000
03F000
03E000
ENDCHAR
STARTCHAR 00C8
ENCODING 200
SWIDTH 633 0
DWIDTH 19 0
BBX 14 27 3 0
BITMAP
1C00
0E00
0700
0300
0000
FFFC
FFFC
FFFC
E000
E000
E000
E000
E000
E000
FFF8
FFF8
FFF8
E000
E000
E000
E000
E000
E000
E000
FFFC
FFFC
FFFC
ENDCHAR
STARTCHAR 00C9
ENCODING 201
SWIDTH 633 0
DWIDTH 19 0
BBX 14 27 3 0
BITMAP
0180
0300
0600
0E00
0000
FFFC
FFFC
FFFC
E000
E000
E000
E000
E000
E000
FFF8
FFF8
FFF8
E000
E000
E000
E000
E000
E000
E000
FFFC
FFFC
FFFC
ENDCHAR
STARTCHAR 00CA
ENCODING 202
SWIDTH 633 0
DWIDTH 19 0
BBX 14 27 3 0
BITMAP
0700
0D80
18C0
38E0
0000
FFFC
FFFC
FFFC
E000
E000
E000
E000
E000
E000
FFF8
FFF8
FFF8
E000
E000
E000
E000
E000
E000
E000
FFFC
FFFC
FFFC
ENDCHAR
STARTCHAR 00CB
ENCODING 203
SWIDTH 633 0
DWIDTH 19 0
BBX 14 27 3 0
BITMAP
38E0
38E0
38E0
0000
0000
FFFC
FFFC
FFFC
E000
E000
E000
E000
E000
E000
FFF8
FFF8
FFF8
E000
E000
E000
E000
E000
E000
E000
FFFC
FFFC
FFFC
ENDCHAR
STARTCHAR 00CC
ENCODING 204
SWIDTH 300 0
DWIDTH 9 0
BBX 5 27 1 0
BITMAP
E0
70
38
18
00
38
38
38
38
38
38
38
38
38
38
38
38
38
38
38
38
38
38
38
38
38
38
ENDCHAR
STARTCHAR 00CD
ENCODING 205
SWIDTH 300 0
DWIDTH 9 0
BBX 5 27 2 0
BITMAP
18
30
60
E0
00
70
70
70
70
70
70
70
70
70
70
70
70
70
70
70
70
70
70
70
70
70
70
ENDCHAR
STARTCHAR 00CE
ENCODING 206
SWIDTH 300 0
DWIDTH 9 0
BBX 9 27 0 0
BITMAP
1C00
3600
6300
E380
0000
1C00
1C00
1C00
1C00
1C00
1C00
1C00
1C00
1C00
1C00
1C00
1C00
1C00
1C00
1C00
1C00
1C00
1C00
1C00
1C00
1C00
1C00
ENDCHAR
STARTCHAR 00CF
ENCODING 207
SWIDTH 300 0
DWIDTH 9 0
BBX 9 27 0 0
BITMAP
E380
E380
E380
0000
0000
1C00
1C00
1C00
1C00
1C00
1C00
1C00
1C00
1C00
1C00
1C00
1C00
1C00
1C00
1C00
1C00
1C00
1C00
1C00
1C00
1C00
1C00
ENDCHAR
STARTCHAR 00D0
ENCODING 208
SWIDTH 766 0
DWIDTH 23 0
BBX 21 22 0 0
BITMAP
1FFC00
1FFF00
1FFFC0
1C07E0
1C01F0
1C00F0
1C0070
1C0038
1C0038
1C0038
FFE038
FFE038
FFE038
1C0038
1C0078
1C0070
1C00F0
1C01F0
1C07E0
1FFFC0
1FFF80
1FFC00
ENDCHAR
STARTCHAR 00D1
ENCODING 209
SWIDTH 733 0
DWIDTH 22 0
BBX 17 27 3 0
BITMAP
079800
0FF800
0CF000
000000
000000
F00380
F80380
FC0380
FC0380
FE0380
EE0380
EF0380
E70380
E78380
E38380
E1C380
E1E380
E0E380
E0F380
E07380
E07B80
E03B80
E03F80
E01F80
E01F80
E00F80
E00780
ENDCHAR
STARTCHAR 00D2
ENCODING 210
SWIDTH 800 0
DWIDTH 24 0
BBX 20 27 2 0
BITMAP
038000
01C000
00E000
006000
000000
01F800
0FFE00
1FFF80
3E07C0
3C03C0
7801E0
7000E0
F000F0
E00070
E00070
E00070
E00070
E00070
E00070
F000F0
7000E0
7801E0
3C03C0
3E07C0
1FFF80
0FFF00
01F800
ENDCHAR
STARTCHAR 00D3
ENCODING 211
SWIDTH 800 0
DWIDTH 24 0
BBX 20 27 2 0
BITMAP
003000
006000
00C000
01C000
000000
01F800
0FFE00
1FFF80
3E07C0
3C03C0
7801E0
7000E0
F000F0
E00070
E00070
E00070
E00070
E00070
E00070
F000F0
7000E0
7801E0
3C03C0
3E07C0
1FFF80
0FFF00
01F800
ENDCHAR
STARTCHAR 00D4
ENCODING 212
SWIDTH 800 0
DWIDTH 24 0
BBX 20 27 2 0
BITMAP
00F000
00F000
019800
030C00
000000
01F800
0FFE00
1FFF80
3E07C0
3C03C0
7801E0
7000E0
F000F0
E00070
E00070
E00070
E00070
E00070
E00070
F000F0
7000E0
7801E0
3C03C0
3E07C0
1FFF80
0FFF00
01F800
ENDCHAR
STARTCHAR 00D5
ENCODING 213
SWIDTH 800 0
DWIDTH 24 0
BBX 20 27 2 0
BITMAP
03C600
07FE00
063C00
000000
000000
01F800
0FFE00
1FFF80
3E07C0
3C03C0
7801E0
7000E0
F000F0
E00070
E00070
E00070
E00070
E00070
E00070
F000F0
7000E0
7801E0
3C03C0
3E07C0
1FFF80
0FFF00
01F800
ENDCHAR
STARTCHAR 00D6
ENCODING 214
SWIDTH 800 0
DWIDTH 24 0
BBX 20 27 2 0
BITMAP
039C00
039C00
039C00
000000
000000
01F800
0FFE00
1FFF80
3E07C0
3C03C0
7801E0
7000E0
F000F0
E00070
E00070
E00070
E00070
E00070
E00070
F000F0
7000E0
7801E0
3C03C0
3E07C0
1FFF80
0FFF00
01F800
ENDCHAR
STARTCHAR 00D7
ENCODING 215
SWIDTH 833 0
DWIDTH 25 0
BBX 17 17 4 1
BITMAP
400100
E00380
700700
380E00
1C1C00
0E3800
077000
03E000
01C000
03E000
077000
0E3800
1C1C00
380E00
700700
E00380
400100
ENDCHAR
STARTCHAR 00D8
ENCODING 216
SWIDTH 800 0
DWIDTH 24 0
BBX 20 22 2 0
BITMAP
01F830
0FFE70
1FFF60
3E07C0
3C03C0
7803E0
7007E0
F00EE0
E01C70
E03870
E07070
E0E070
E1C070
E38070
E700F0
7E00E0
7C01E0
3C03C0
3E07C0
6FFF80
E7FF00
C1F800
ENDCHAR
STARTCHAR 00D9
ENCODING 217
SWIDTH 733 0
DWIDTH 22 0
BBX 17 27 3 0
BITMAP
0E0000
070000
038000
018000
000000
E00380
E00380
E00380
E00380
E00380
E00380
E00380
E00380
E00380
E00380
E00380
E00380
E00380
E00380
E00380
E00380
F00780
700700
7C1F00
3FFE00
1FFC00
07F000
ENDCHAR
STARTCHAR 00DA
ENCODING 218
SWIDTH 733 0
DWIDTH 22 0
BBX 17 27 3 0
BITMAP
00C000
018000
030000
070000
000000
E00380
E00380
E00380
E00380
E00380
E00380
E00380
E00380
E00380
E00380
E00380
E00380
E00380
E00380
E00380
E00380
F00780
700700
7C1F00
3FFE00
1FFC00
07F000
ENDCHAR
STARTCHAR 00DB
ENCODING 219
SWIDTH 733 0
DWIDTH 22 0
BBX 17 27 3 0
BITMAP
01C000
036000
063000
0E3800
000000
E00380
E00380
E00380
E00380
E00380
E00380
E00380
E00380
E00380
E00380
E00380
E00380
E00380
E00380
E00380
E00380
F00780
700700
7C1F00
3FFE00
1FFC00
07F000
ENDCHAR
STARTCHAR 00DC
ENCODING 220
SWIDTH 733 0
DWIDTH 22 0
BBX 17 27 3 0
BITMAP
0E3800
0E3800
0E3800
000000
000000
E00380
E00380
E00380
E00380
E00380
E00380
E00380
E00380
E00380
E00380
E00380
E00380
E00380
E00380
E00380
E00380
F00780
700700
7C1F00
3FFE00
1FFC00
07F000
ENDCHAR
STARTCHAR 00DD
ENCODING 221
SWIDTH 600 0
DWIDTH 18 0
BBX 19 27 0 0
BITMAP
003000
006000
00C000
01C000
000000
F001E0
7803C0
380380
3C0780
1E0F00
0E1E00
071E00
07BC00
03F800
01F000
01F000
00E000
00E000
00E000
00E000
00E000
00E000
00E000
00E000
00E000
00E000
00E000
ENDCHAR
STARTCHAR 00DE
ENCODING 222
SWIDTH 600 0
DWIDTH 18 0
BBX 14 22 3 0
BITMAP
E000
E000
E000
E000
FFC0
FFF0
FFF8
E078
E03C
E01C
E01C
E01C
E03C
E078
FFF8
FFF0
FFC0
E000
E000
E000
E000
E000
ENDCHAR
STARTCHAR 00DF
ENCODING 223
SWIDTH 633 0
DWIDTH 19 0
BBX 15 23 3 0
BITMAP
0F80
3FE0
7FF0
7070
E038
E038
E0F8
E1E0
E380
E380
E380
E380
E1E0
E0F0
E03C
E01C
E00E
E00E
E00E
E41E
E7FC
E7FC
E3F0
ENDCHAR
STARTCHAR 00E0
ENCODING 224
SWIDTH 600 0
DWIDTH 18 0
BBX 14 24 2 0
BITMAP
3800
1C00
0E00
0600
0300
0380
0000
0000
1FC0
7FF0
7FF8
6078
001C
001C
0FFC
3FFC
7FFC
F01C
E01C
E03C
F07C
7FFC
7FDC
1F1C
ENDCHAR
STARTCHAR 00E1
ENCODING 225
SWIDTH 600 0
DWIDTH 18 0
BBX 14 24 2 0
BITMAP
00E0
01C0
0380
0300
0600
0E00
0000
0000
1FC0
7FF0
7FF8
6078
001C
001C
0FFC
3FFC
7FFC
F01C
E01C
E03C
F07C
7FFC
7FDC
1F1C
ENDCHAR
STARTCHAR 00E2
ENCODING 226
SWIDTH 600 0
DWIDTH 18 0
BBX 14 24 2 0
BITMAP
0300
0780
0780
0CC0
0CC0
1860
0000
0000
1FC0
7FF0
7FF8
6078
001C
001C
0FFC
3FFC
7FFC
F01C
E01C
E03C
F07C
7FFC
7FDC
1F1C
ENDCHAR
STARTCHAR 00E3
ENCODING 227
SWIDTH 600 0
DWIDTH 18 0
BBX 14 23 2 0
BITMAP
1C30
3F30
33E0
31E0
0000
0000
0000
1FC0
7FF0
7FF8
6078
001C
001C
0FFC
3FFC
7FFC
F01C
E01C
E03C
F07C
7FFC
7FDC
1F1C
ENDCHAR
STARTCHAR 00E4
ENCODING 228
SWIDTH 600 0
DWIDTH 18 0
BBX 14 23 2 0
BITMAP
1CE0
1CE0
1CE0
0000
0000
0000
0000
1FC0
7FF0
7FF8
6078
001C
001C
0FFC
3FFC
7FFC
F01C
E01C
E03C
F07C
7FFC
7FDC
1F1C
ENDCHAR
STARTCHAR 00E5
ENCODING 229
SWIDTH 600 0
DWIDTH 18 0
BBX 14 26 2 0
BITMAP
0780
0FC0
1CE0
1860
1860
1CE0
0FC0
0780
0000
0000
1FC0
7FF0
7FF8
6078
001C
001C
0FFC
3FFC
7FFC
F01C
E01C
E03C
F07C
7FFC
7FDC
1F1C
ENDCHAR
STARTCHAR 00E6
ENCODING 230
SWIDTH 966 0
DWIDTH 29 0
BBX 26 16 2 0
BITMAP
1FC0FC00
7FF3FE00
7FFFFF00
607F0780
001E01C0
001C01C0
0FFFFFC0
3FFFFFC0
7FFFFFC0
F01C0000
E01C0000
E03E0080
F07F0380
7FE7FF80
7FC3FF00
1F80FC00
ENDCHAR
STARTCHAR 00E7
ENCODING 231
SWIDTH 566 0
DWIDTH 17 0
BBX 13 22 2 -6
BITMAP
07F0
1FF8
3FF8
7C08
7000
F000
E000
E000
E000
E000
F000
7000
7C08
3FF8
1FF8
07F0
0300
0180
01C0
01C0
0FC0
0F80
ENDCHAR
STARTCHAR 00E8
ENCODING 232
SWIDTH 600 0
DWIDTH 18 0
BBX 15 24 2 0
BITMAP
1C00
0E00
0700
0300
0180
01C0
0000
0000
07E0
1FF8
3FFC
783C
701E
E00E
FFFE
FFFE
FFFE
E000
E000
7004
7C1C
3FFC
1FF8
07E0
ENDCHAR
STARTCHAR 00E9
ENCODING 233
SWIDTH 600 0
DWIDTH 18 0
BBX 15 24 2 0
BITMAP
0070
00E0
01C0
0180
0300
0700
0000
0000
07E0
1FF8
3FFC
783C
701E
E00E
FFFE
FFFE
FFFE
E000
E000
7004
7C1C
3FFC
1FF8
07E0
ENDCHAR
STARTCHAR 00EA
ENCODING 234
SWIDTH 600 0
DWIDTH 18 0
BBX 15 24 2 0
BITMAP
0380
0380
06C0
06E0
0C60
1830
0000
0000
07E0
1FF8
3FFC
783C
701E
E00E
FFFE
FFFE
FFFE
E000
E000
7004
7C1C
3FFC
1FF8
07E0
ENDCHAR
STARTCHAR 00EB
ENCODING 235
SWIDTH 600 0
DWIDTH 18 0
BBX 15 23 2 0
BITMAP
1C70
1C70
1C70
0000
0000
0000
0000
07E0
1FF8
3FFC
783C
701E
E00E
FFFE
FFFE
FFFE
E000
E000
7004
7C1C
3FFC
1FF8
07E0
ENDCHAR
STARTCHAR 00EC
ENCODING 236
SWIDTH 266 0
DWIDTH 8 0
BBX 7 24 0 0
BITMAP
E0
70
38
18
0C
0E
00
00
1C
1C
1C
1C
1C
1C
1C
1C
1C
1C
1C
1C
1C
1C
1C
1C
ENDCHAR
STARTCHAR 00ED
ENCODING 237
SWIDTH 266 0
DWIDTH 8 0
BBX 7 24 2 0
BITMAP
0E
1C
38
30
60
E0
00
00
70
70
70
70
70
70
70
70
70
70
70
70
70
70
70
70
ENDCHAR
STARTCHAR 00EE
ENCODING 238
SWIDTH 266 0
DWIDTH 8 0
BBX 9 24 0 0
BITMAP
1C00
1C00
3600
7700
6300
C180
0000
0000
1C00
1C00
1C00
1C00
1C00
1C00
1C00
1C00
1C00
1C00
1C00
1C00
1C00
1C00
1C00
1C00
ENDCHAR
STARTCHAR 00EF
ENCODING 239
SWIDTH 266 0
DWIDTH 8 0
BBX 9 23 0 0
BITMAP
E380
E380
E380
0000
0000
0000
0000
1C00
1C00
1C00
1C00
1C00
1C00
1C00
1C00
1C00
1C00
1C00
1C00
1C00
1C00
1C00
1C00
ENDCHAR
STARTCHAR 00F0
ENCODING 240
SWIDTH 600 0
DWIDTH 18 0
BBX 15 23 2 0
BITMAP
1C00
0E38
07F0
0780
3D80
31C0
00E0
0FF0
1FF8
3FFC
7C1C
701E
E00E
E00E
E00E
E00E
E00E
E01E
701C
783C
3FF8
1FF0
07C0
ENDCHAR
STARTCHAR 00F1
ENCODING 241
SWIDTH 633 0
DWIDTH 19 0
BBX 14 23 3 0
BITMAP
1C30
3F30
33E0
31E0
0000
0000
0000
E3E0
EFF0
FFF8
F83C
F01C
E01C
E01C
E01C
E01C
E01C
E01C
E01C
E01C
E01C
E01C
E01C
ENDCHAR
STARTCHAR 00F2
ENCODING 242
SWIDTH 600 0
DWIDTH 18 0
BBX 15 24 2 0
BITMAP
1C00
0E00
0700
0300
0180
01C0
0000
0000
0FE0
1FF0
3FF8
783C
701C
E01E
E00E
E00E
E00E
E00E
E01E
701C
783C
3FF8
1FF0
0FE0
ENDCHAR
STARTCHAR 00F3
ENCODING 243
SWIDTH 600 0
DWIDTH 18 0
BBX 15 24 2 0
BITMAP
0070
00E0
01C0
0180
0300
0700
0000
0000
0FE0
1FF0
3FF8
783C
701C
E01E
E00E
E00E
E00E
E00E
E01E
701C
783C
3FF8
1FF0
0FE0
ENDCHAR
STARTCHAR 00F4
ENCODING 244
SWIDTH 600 0
DWIDTH 18 0
BBX 15 24 2 0
BITMAP
0380
0380
06C0
0EE0
0C60
1830
0000
0000
0FE0
1FF0
3FF8
783C
701C
E01E
E00E
E00E
E00E
E00E
E01E
701C
783C
3FF8
1FF0
0FE0
ENDCHAR
STARTCHAR 00F5
ENCODING 245
SWIDTH 600 0
DWIDTH 18 0
BBX 15 23 2 0
BITMAP
0E30
1F30
19F0
18E0
0000
0000
0000
0FE0
1FF0
3FF8
783C
701C
E01E
E00E
E00E
E00E
E00E
E01E
701C
783C
3FF8
1FF0
0FE0
ENDCHAR
STARTCHAR 00F6
ENCODING 246
SWIDTH 600 0
DWIDTH 18 0
BBX 15 23 2 0
BITMAP
1C70
1C70
1C70
0000
0000
0000
0000
0FE0
1FF0
3FF8
783C
701C
E01E
E00E
E00E
E00E
E00E
E01E
701C
783C
3FF8
1FF0
0FE0
ENDCHAR
STARTCHAR 00F7
ENCODING 247
SWIDTH 833 0
DWIDTH 25 0
BBX 20 14 3 2
BITMAP
00F000
00F000
00F000
00F000
000000
000000
FFFFF0
FFFFF0
000000
000000
00F000
00F000
00F000
00F000
ENDCHAR
STARTCHAR 00F8
ENCODING 248
SWIDTH 600 0
DWIDTH 18 0
BBX 15 18 2 -1
BITMAP
0002
0FC6
3FEE
3FFC
7838
F03C
E06C
E0CE
E18E
E30E
E60E
EC1E
781E
383C
7FF8
FFF0
C7E0
8000
ENDCHAR
STARTCHAR 00F9
ENCODING 249
SWIDTH 633 0
DWIDTH 19 0
BBX 14 24 3 0
BITMAP
3800
1C00
0E00
0600
0300
0380
0000
0000
E01C
E01C
E01C
E01C
E01C
E01C
E01C
E01C
E01C
E01C
E01C
E03C
F07C
7FFC
3FDC
1F1C
ENDCHAR
STARTCHAR 00FA
ENCODING 250
SWIDTH 633 0
DWIDTH 19 0
BBX 14 24 3 0
BITMAP
00E0
01C0
0380
0300
0600
0E00
0000
0000
E01C
E01C
E01C
E01C
E01C
E01C
E01C
E01C
E01C
E01C
E01C
E03C
F07C
7FFC
3FDC
1F1C
ENDCHAR
STARTCHAR 00FB
ENCODING 251
SWIDTH 633 0
DWIDTH 19 0
BBX 14 24 3 0
BITMAP
0300
0780
0780
0CC0
0CC0
1860
0000
0000
E01C
E01C
E01C
E01C
E01C
E01C
E01C
E01C
E01C
E01C
E01C
E03C
F07C
7FFC
3FDC
1F1C
ENDCHAR
STARTCHAR 00FC
ENCODING 252
SWIDTH 633 0
DWIDTH 19 0
BBX 14 23 3 0
BITMAP
1CE0
1CE0
1CE0
0000
0000
0000
0000
E01C
E01C
E01C
E01C
E01C
E01C
E01C
E01C
E01C
E01C
E01C
E03C
F07C
7FFC
3FDC
1F1C
ENDCHAR
STARTCHAR 00FD
ENCODING 253
SWIDTH 600 0
DWIDTH 18 0
BBX 16 30 1 -6
BITMAP
0070
00E0
01C0
0180
0300
0700
0000
0000
E00F
700E
700E
781C
381C
383C
1C38
1C78
1E70
0EF0
0FE0
07E0
07C0
03C0
03C0
0380
0780
0700
0F00
7E00
7E00
7800
ENDCHAR
STARTCHAR 00FE
ENCODING 254
SWIDTH 633 0
DWIDTH 19 0
BBX 15 29 3 -6
BITMAP
E000
E000
E000
E000
E000
E000
E000
E3E0
EFF0
FFF8
F83C
F01C
E00E
E00E
E00E
E00E
E00E
E00E
F01C
F83C
FFF8
EFF0
E3E0
E000
E000
E000
E000
E000
E000
ENDCHAR
STARTCHAR 00FF
ENCODING 255
SWIDTH 600 0
DWIDTH 18 0
BBX 16 29 1 -6
BITMAP
0E70
0E70
0E70
0000
0000
0000
0000
E00F
700E
700E
781C
381C
383C
1C38
1C78
1E70
0EF0
0FE0
07E0
07C0
03C0
03C0
0380
0780
0700
0F00
7E00
7E00
7800
ENDCHAR
STARTCHAR 0100
ENCODING 256
SWIDTH 700 0
DWIDTH 21 0
BBX 20 27 0 0
BITMAP
03FC00
03FC00
03FC00
000000
000000
00F000
00F000
01F800
01F800
01F800
039C00
039C00
079E00
070E00
070E00
0F0F00
0E0700
0E0700
1C0380
1FFF80
3FFFC0
3FFFC0
3801C0
7801E0
7000E0
7000E0
E00070
ENDCHAR
STARTCHAR 0101
ENCODING 257
SWIDTH 600 0
DWIDTH 18 0
BBX 14 22 2 0
BITMAP
1FE0
1FE0
1FE0
0000
0000
0000
1FC0
7FF0
7FF8
6078
001C
001C
0FFC
3FFC
7FFC
F01C
E01C
E03C
F07C
7FFC
7FDC
1F1C
ENDCHAR
STARTCHAR 0102
ENCODING 258
SWIDTH 700 0
DWIDTH 21 0
BBX 20 29 0 0
BITMAP
030C00
030C00
01F800
00F000
000000
000000
000000
00F000
00F000
01F800
01F800
01F800
039C00
039C00
079E00
070E00
070E00
0F0F00
0E0700
0E0700
1C0380
1FFF80
3FFFC0
3FFFC0
3801C0
7801E0
7000E0
7000E0
E00070
ENDCHAR
STARTCHAR 0103
ENCODING 259
SWIDTH 600 0
DWIDTH 18 0
BBX 14 23 2 0
BITMAP
1860
1860
0FC0
0780
0000
0000
0000
1FC0
7FF0
7FF8
6078
001C
001C
0FFC
3FFC
7FFC
F01C
E01C
E03C
F07C
7FFC
7FDC
1F1C
ENDCHAR
STARTCHAR 0104
ENCODING 260
SWIDTH 700 0
DWIDTH 21 0
BBX 21 28 0 -6
BITMAP
00F000
00F000
01F800
01F800
01F800
039C00
039C00
079E00
070E00
070E00
0F0F00
0E0700
0E0700
1C0380
1FFF80
3FFFC0
3FFFC0
3801C0
7801E0
7000E0
7000E0
E00070
000070
000060
0000E0
0000E0
0000F8
000078
ENDCHAR
STARTCHAR 0105
ENCODING 261
SWIDTH 600 0
DWIDTH 18 0
BBX 15 22 2 -6
BITMAP
1FC0
7FF0
7FF8
6078
001C
001C
0FFC
3FFC
7FFC
F01C
E01C
E03C
F07C
7FFC
7FDC
1F1C
001C
0018
0038
0038
003E
001E
ENDCHAR
STARTCHAR 0106
ENCODING 262
SWIDTH 700 0
DWIDTH 21 0
BBX 18 27 2 0
BITMAP
003000
006000
00C000
01C000
000000
01FE00
07FF80
1FFFC0
3F01C0
3C0040
780000
700000
F00000
E00000
E00000
E00000
E00000
E00000
E00000
F00000
700000
780000
3C0040
3F01C0
1FFFC0
07FF80
01FE00
ENDCHAR
STARTCHAR 0107
ENCODING 263
SWIDTH 566 0
DWIDTH 17 0
BBX 13 24 2 0
BITMAP
0070
00E0
01C0
0180
0300
0700
0000
0000
07F0
1FF8
3FF8
7C08
7000
F000
E000
E000
E000
E000
F000
7000
7C08
3FF8
1FF8
07F0
ENDCHAR
STARTCHAR 0108
ENCODING 264
SWIDTH 700 0
DWIDTH 21 0
BBX 18 27 2 0
BITMAP
007800
00FC00
00CC00
018600
000000
01FE00
07FF80
1FFFC0
3F01C0
3C0040
780000
700000
F00000
E00000
E00000
E00000
E00000
E00000
E00000
F00000
700000
780000
3C0040
3F01C0
1FFFC0
07FF80
01FE00
ENDCHAR
STARTCHAR 0109
ENCODING 265
SWIDTH 566 0
DWIDTH 17 0
BBX 13 24 2 0
BITMAP
0380
0380
06C0
0EE0
0C60
1830
0000
0000
07F0
1FF8
3FF8
7C08
7000
F000
E000
E000
E000
E000
F000
7000
7C08
3FF8
1FF8
07F0
ENDCHAR
STARTCHAR 010A
ENCODING 266
SWIDTH 700 0
DWIDTH 21 0
BBX 18 27 2 0
BITMAP
007000
007000
007000
000000
000000
01FE00
07FF80
1FFFC0
3F01C0
3C0040
780000
700000
F00000
E00000
E00000
E00000
E00000
E00000
E00000
F00000
700000
780000
3C0040
3F01C0
1FFFC0
07FF80
01FE00
ENDCHAR
STARTCHAR 010B
ENCODING 267
SWIDTH 566 0
DWIDTH 17 0
BBX 13 23 2 0
BITMAP
0380
0380
0380
0000
0000
0000
0000
07F0
1FF8
3FF8
7C08
7000
F000
E000
E000
E000
E000
F000
7000
7C08
3FF8
1FF8
07F0
ENDCHAR
STARTCHAR 010C
ENCODING 268
SWIDTH 700 0
DWIDTH 21 0
BBX 18 27 2 0
BITMAP
071C00
031800
01B000
00E000
000000
01FE00
07FF80
1FFFC0
3F01C0
3C0040
780000
700000
F00000
E00000
E00000
E00000
E00000
E00000
E00000
F00000
700000
780000
3C0040
3F01C0
1FFFC0
07FF80
01FE00
ENDCHAR
STARTCHAR 010D
ENCODING 269
SWIDTH 566 0
DWIDTH 17 0
BBX 13 24 2 0
BITMAP
1830
0C60
0EE0
06C0
0380
0380
0000
0000
07F0
1FF8
3FF8
7C08
7000
F000
E000
E000
E000
E000
F000
7000
7C08
3FF8
1FF8
07F0
ENDCHAR
STARTCHAR 010E
ENCODING 270
SWIDTH 766 0
DWIDTH 23 0
BBX 18 27 3 0
BITMAP
1C7000
0C6000
06C000
038000
000000
FFE000
FFF800
FFFE00
E03F00
E00F80
E00780
E00380
E001C0
E001C0
E001C0
E001C0
E001C0
E001C0
E001C0
E003C0
E00380
E00780
E00F80
E03F00
FFFE00
FFF800
FFE000
ENDCHAR
STARTCHAR 010F
ENCODING 271
SWIDTH 633 0
DWIDTH 19 0
BBX 20 23 2 0
BITMAP
000E70
000E70
000E60
000EE0
000EE0
000EC0
000E00
0F8E00
1FEE00
3FFE00
783E00
701E00
E01E00
E00E00
E00E00
E00E00
E00E00
E00E00
701E00
783E00
3FFE00
1FEE00
0F8E00
ENDCHAR
STARTCHAR 0110
ENCODING 272
SWIDTH 766 0
DWIDTH 23 0
BBX 21 22 0 0
BITMAP
1FFC00
1FFF00
1FFFC0
1C07E0
1C01F0
1C00F0
1C0070
1C0038
1C0038
1C0038
FFE038
FFE038
FFE038
1C0038
1C0078
1C0070
1C00F0
1C01F0
1C07E0
1FFFC0
1FFF80
1FFC00
ENDCHAR
STARTCHAR 0111
ENCODING 273
SWIDTH 633 0
DWIDTH 19 0
BBX 17 23 2 0
BITMAP
000E00
000E00
000E00
01FF80
01FF80
000E00
000E00
0F8E00
1FEE00
3FFE00
783E00
701E00
E01E00
E00E00
E00E00
E00E00
E00E00
E00E00
701E00
783E00
3FFE00
1FEE00
0F8E00
ENDCHAR
STARTCHAR 0112
ENCODING 274
SWIDTH 633 0
DWIDTH 19 0
BBX 14 27 3 0
BITMAP
3FE0
3FE0
3FE0
0000
0000
FFFC
FFFC
FFFC
E000
E000
E000
E000
E000
E000
FFF8
FFF8
FFF8
E000
E000
E000
E000
E000
E000
E000
FFFC
FFFC
FFFC
ENDCHAR
STARTCHAR 0113
ENCODING 275
SWIDTH 600 0
DWIDTH 18 0
BBX 15 22 2 0
BITMAP
1FF0
1FF0
1FF0
0000
0000
0000
07E0
1FF8
3FFC
783C
701E
E00E
FFFE
FFFE
FFFE
E000
E000
7004
7C1C
3FFC
1FF8
07E0
ENDCHAR
STARTCHAR 0114
ENCODING 276
SWIDTH 633 0
DWIDTH 19 0
BBX 14 28 3 0
BITMAP
3060
38E0
1FC0
0F80
0000
0000
FFFC
FFFC
FFFC
E000
E000
E000
E000
E000
E000
FFF8
FFF8
FFF8
E000
E000
E000
E000
E000
E000
E000
FFFC
FFFC
FFFC
ENDCHAR
STARTCHAR 0115
ENCODING 277
SWIDTH 600 0
DWIDTH 18 0
BBX 15 24 2 0
BITMAP
1830
1C70
0FE0
07C0
0000
0000
0000
0000
07E0
1FF8
3FFC
783C
701E
E00E
FFFE
FFFE
FFFE
E000
E000
7004
7C1C
3FFC
1FF8
07E0
ENDCHAR
STARTCHAR 0116
ENCODING 278
SWIDTH 633 0
DWIDTH 19 0
BBX 14 27 3 0
BITMAP
0700
0700
0700
0000
0000
FFFC
FFFC
FFFC
E000
E000
E000
E000
E000
E000
FFF8
FFF8
FFF8
E000
E000
E000
E000
E000
E000
E000
FFFC
FFFC
FFFC
ENDCHAR
STARTCHAR 0117
ENCODING 279
SWIDTH 600 0
DWIDTH 18 0
BBX 15 23 2 0
BITMAP
0380
0380
0380
0000
0000
0000
0000
07E0
1FF8
3FFC
783C
701E
E00E
FFFE
FFFE
FFFE
E000
E000
7004
7C1C
3FFC
1FF8
07E0
ENDCHAR
STARTCHAR 0118
ENCODING 280
SWIDTH 633 0
DWIDTH 19 0
BBX 14 28 3 -6
BITMAP
FFFC
FFFC
FFFC
E000
E000
E000
E000
E000
E000
FFF8
FFF8
FFF8
E000
E000
E000
E000
E000
E000
E000
FFFC
FFFC
FFFC
0038
0030
0070
0070
007C
003C
ENDCHAR
STARTCHAR 0119
ENCODING 281
SWIDTH 600 0
DWIDTH 18 0
BBX 15 22 2 -6
BITMAP
07E0
1FF8
3FFC
783C
701E
E00E
FFFE
FFFE
FFFE
E000
E000
7004
7C1C
3FFC
1FF8
07E0
0038
0030
0070
0070
007C
003C
ENDCHAR
STARTCHAR 011A
ENCODING 282
SWIDTH 633 0
DWIDTH 19 0
BBX 14 27 3 0
BITMAP
38E0
18C0
0D80
0700
0000
FFFC
FFFC
FFFC
E000
E000
E000
E000
E000
E000
FFF8
FFF8
FFF8
E000
E000
E000
E000
E000
E000
E000
FFFC
FFFC
FFFC
ENDCHAR
STARTCHAR 011B
ENCODING 283
SWIDTH 600 0
DWIDTH 18 0
BBX 15 24 2 0
BITMAP
1830
0C60
0EE0
06C0
0380
0380
0000
0000
07E0
1FF8
3FFC
783C
701E
E00E
FFFE
FFFE
FFFE
E000
E000
7004
7C1C
3FFC
1FF8
07E0
ENDCHAR
STARTCHAR 011C
ENCODING 284
SWIDTH 766 0
DWIDTH 23 0
BBX 19 27 2 0
BITMAP
007000
00D800
018C00
038E00
000000
01FE00
07FF80
1FFFC0
3E01C0
3C0040
780000
700000
F00000
E00000
E00000
E01FE0
E01FE0
E01FE0
E000E0
F000E0
7000E0
7800E0
3C00E0
3F01E0
1FFFC0
07FF80
01FC00
ENDCHAR
STARTCHAR 011D
ENCODING 285
SWIDTH 633 0
DWIDTH 19 0
BBX 15 30 2 -6
BITMAP
0380
0380
06C0
0EE0
0C60
1830
0000
0000
0F8E
1FEE
3FFE
783E
701E
E00E
E00E
E00E
E00E
E00E
E00E
701E
783E
3FFE
3FEE
0F8E
001E
001C
207C
3FF8
3FF0
1FE0
ENDCHAR
STARTCHAR 011E
ENCODING 286
SWIDTH 766 0
DWIDTH 23 0
BBX 19 28 2 0
BITMAP
060C00
071C00
03F800
01F000
000000
000000
01FE00
07FF80
1FFFC0
3E01C0
3C0040
780000
700000
F00000
E00000
E00000
E01FE0
E01FE0
E01FE0
E000E0
F000E0
7000E0
7800E0
3C00E0
3F01E0
1FFFC0
07FF80
01FC00
ENDCHAR
STARTCHAR 011F
ENCODING 287
SWIDTH 633 0
DWIDTH 19 0
BBX 15 30 2 -6
BITMAP
1830
1C70
0FE0
07C0
0000
0000
0000
0000
0F8E
1FEE
3FFE
783E
701E
E00E
E00E
E00E
E00E
E00E
E00E
701E
783E
3FFE
3FEE
0F8E
001E
001C
207C
3FF8
3FF0
1FE0
ENDCHAR
STARTCHAR 0120
ENCODING 288
SWIDTH 766 0
DWIDTH 23 0
BBX 19 27 2 0
BITMAP
007000
007000
007000
000000
000000
01FE00
07FF80
1FFFC0
3E01C0
3C0040
780000
700000
F00000
E00000
E00000
E01FE0
E01FE0
E01FE0
E000E0
F000E0
7000E0
7800E0
3C00E0
3F01E0
1FFFC0
07FF80
01FC00
ENDCHAR
STARTCHAR 0121
ENCODING 289
SWIDTH 633 0
DWIDTH 19 0
BBX 15 29 2 -6
BITMAP
0380
0380
0380
0000
0000
0000
0000
0F8E
1FEE
3FFE
783E
701E
E00E
E00E
E00E
E00E
E00E
E00E
701E
783E
3FFE
3FEE
0F8E
001E
001C
207C
3FF8
3FF0
1FE0
ENDCHAR
STARTCHAR 0122
ENCODING 290
SWIDTH 766 0
DWIDTH 23 0
BBX 19 30 2 -8
BITMAP
01FE00
07FF80
1FFFC0
3E01C0
3C0040
780000
700000
F00000
E00000
E00000
E01FE0
E01FE0
E01FE0
E000E0
F000E0
7000E0
7800E0
3C00E0
3F01E0
1FFFC0
07FF80
01FC00
000000
000000
000000
007000
007000
006000
006000
00C000
ENDCHAR
STARTCHAR 0123
ENCODING 291
SWIDTH 633 0
DWIDTH 19 0
BBX 15 30 2 -6
BITMAP
00C0
00C0
01C0
0180
0380
0000
0000
0000
0F8E
1FEE
3FFE
783E
701E
E00E
E00E
E00E
E00E
E00E
E00E
701E
783E
3FFE
3FEE
0F8E
001E
001C
207C
3FF8
3FF0
1FE0
ENDCHAR
STARTCHAR 0124
ENCODING 292
SWIDTH 766 0
DWIDTH 23 0
BBX 17 27 3 0
BITMAP
01C000
036000
063000
0E3800
000000
E00380
E00380
E00380
E00380
E00380
E00380
E00380
E00380
E00380
FFFF80
FFFF80
FFFF80
E00380
E00380
E00380
E00380
E00380
E00380
E00380
E00380
E00380
E00380
ENDCHAR
STARTCHAR 0125
ENCODING 293
SWIDTH 633 0
DWIDTH 19 0
BBX 17 27 0 0
BITMAP
1C0000
360000
630000
E38000
1C0000
1C0000
1C0000
1C0000
1C0000
1C0000
1C0000
1C7C00
1DFE00
1FFF00
1F0780
1E0380
1C0380
1C0380
1C0380
1C0380
1C0380
1C0380
1C0380
1C0380
1C0380
1C0380
1C0380
ENDCHAR
STARTCHAR 0126
ENCODING 294
SWIDTH 900 0
DWIDTH 27 0
BBX 21 22 3 0
BITMAP
3800E0
3800E0
3800E0
FFFFF8
FFFFF8
FFFFF8
3800E0
3800E0
3800E0
3FFFE0
3FFFE0
3FFFE0
3800E0
3800E0
3800E0
3800E0
3800E0
3800E0
3800E0
3800E0
3800E0
3800E0
ENDCHAR
STARTCHAR 0127
ENCODING 295
SWIDTH 700 0
DWIDTH 21 0
BBX 16 23 2 0
BITMAP
3800
3800
FFC0
FFC0
FFC0
3800
3800
38F8
3BFC
3FFE
3E0F
3C07
3807
3807
3807
3807
3807
3807
3807
3807
3807
3807
3807
ENDCHAR
STARTCHAR 0128
ENCODING 296
SWIDTH 300 0
DWIDTH 9 0
BBX 11 27 -1 0
BITMAP
7C60
FFE0
C7C0
0000
0000
0E00
0E00
0E00
0E00
0E00
0E00
0E00
0E00
0E00
0E00
0E00
0E00
0E00
0E00
0E00
0E00
0E00
0E00
0E00
0E00
0E00
0E00
ENDCHAR
STARTCHAR 0129
ENCODING 297
SWIDTH 266 0
DWIDTH 8 0
BBX 11 23 -1 0
BITMAP
7860
7CE0
E7C0
C3C0
0000
0000
0000
0E00
0E00
0E00
0E00
0E00
0E00
0E00
0E00
0E00
0E00
0E00
0E00
0E00
0E00
0E00
0E00
ENDCHAR
STARTCHAR 012A
ENCODING 298
SWIDTH 300 0
DWIDTH 9 0
BBX 9 27 0 0
BITMAP
FF80
FF80
FF80
0000
0000
1C00
1C00
1C00
1C00
1C00
1C00
1C00
1C00
1C00
1C00
1C00
1C00
1C00
1C00
1C00
1C00
1C00
1C00
1C00
1C00
1C00
1C00
ENDCHAR
STARTCHAR 012B
ENCODING 299
SWIDTH 266 0
DWIDTH 8 0
BBX 9 22 0 0
BITMAP
FF80
FF80
FF80
0000
0000
0000
1C00
1C00
1C00
1C00
1C00
1C00
1C00
1C00
1C00
1C00
1C00
1C00
1C00
1C00
1C00
1C00
ENDCHAR
STARTCHAR 012C
ENCODING 300
SWIDTH 300 0
DWIDTH 9 0
BBX 9 28 0 0
BITMAP
C180
E380
7F00
3E00
0000
0000
1C00
1C00
1C00
1C00
1C00
1C00
1C00
1C00
1C00
1C00
1C00
1C00
1C00
1C00
1C00
1C00
1C00
1C00
1C00
1C00
1C00
1C00
ENDCHAR
STARTCHAR 012D
ENCODING 301
SWIDTH 266 0
DWIDTH 8 0
BBX 9 24 0 0
BITMAP
C180
E380
7F00
3E00
0000
0000
0000
0000
1C00
1C00
1C00
1C00
1C00
1C00
1C00
1C00
1C00
1C00
1C00
1C00
1C00
1C00
1C00
1C00
ENDCHAR
STARTCHAR 012E
ENCODING 302
SWIDTH 300 0
DWIDTH 9 0
BBX 5 28 3 -6
BITMAP
E0
E0
E0
E0
E0
E0
E0
E0
E0
E0
E0
E0
E0
E0
E0
E0
E0
E0
E0
E0
E0
E0
70
60
E0
E0
F8
78
ENDCHAR
STARTCHAR 012F
ENCODING 303
SWIDTH 266 0
DWIDTH 8 0
BBX 5 29 2 -6
BITMAP
70
70
70
00
00
00
00
70
70
70
70
70
70
70
70
70
70
70
70
70
70
70
70
70
60
E0
E0
F8
78
ENDCHAR
STARTCHAR 0130
ENCODING 304
SWIDTH 300 0
DWIDTH 9 0
BBX 3 27 3 0
BITMAP
E0
E0
E0
00
00
E0
E0
E0
E0
E0
E0
E0
E0
E0
E0
E0
E0
E0
E0
E0
E0
E0
E0
E0
E0
E0
E0
ENDCHAR
STARTCHAR 0131
ENCODING 305
SWIDTH 266 0
DWIDTH 8 0
BBX 3 16 3 0
BITMAP
E0
E0
E0
E0
E0
E0
E0
E0
E0
E0
E0
E0
E0
E0
E0
E0
ENDCHAR
STARTCHAR 0132
ENCODING 306
SWIDTH 600 0
DWIDTH 18 0
BBX 12 28 3 -6
BITMAP
E070
E070
E070
E070
E070
E070
E070
E070
E070
E070
E070
E070
E070
E070
E070
E070
E070
E070
E070
E070
E070
E070
0070
00F0
01E0
0FE0
0FC0
0F00
ENDCHAR
STARTCHAR 0133
ENCODING 307
SWIDTH 566 0
DWIDTH 17 0
BBX 11 29 3 -6
BITMAP
E0E0
E0E0
E0E0
0000
0000
0000
0000
E0E0
E0E0
E0E0
E0E0
E0E0
E0E0
E0E0
E0E0
E0E0
E0E0
E0E0
E0E0
E0E0
E0E0
E0E0
E0E0
00E0
00E0
01E0
07C0
07C0
0700
ENDCHAR
STARTCHAR 0134
ENCODING 308
SWIDTH 300 0
DWIDTH 9 0
BBX 11 33 -2 -6
BITMAP
0700
0D80
18C0
38E0
0000
0700
0700
0700
0700
0700
0700
0700
0700
0700
0700
0700
0700
0700
0700
0700
0700
0700
0700
0700
0700
0700
0700
0700
0F00
1E00
FE00
FC00
F000
ENDCHAR
STARTCHAR 0135
ENCODING 309
SWIDTH 266 0
DWIDTH 8 0
BBX 9 30 0 -6
BITMAP
1C00
1C00
3600
7700
6300
C180
0000
0000
1C00
1C00
1C00
1C00
1C00
1C00
1C00
1C00
1C00
1C00
1C00
1C00
1C00
1C00
1C00
1C00
1C00
1C00
3C00
F800
F800
E000
ENDCHAR
STARTCHAR 0136
ENCODING 310
SWIDTH 666 0
DWIDTH 20 0
BBX 17 30 3 -8
BITMAP
E01F00
E03E00
E07800
E0F000
E1E000
E3C000
E78000
EF0000
FE0000
FC0000
FC0000
FE0000
EF0000
E78000
E3C000
E1E000
E1F000
E0F800
E07C00
E03E00
E01F00
E00F80
000000
000000
000000
01C000
01C000
018000
018000
030000
ENDCHAR
STARTCHAR 0137
ENCODING 311
SWIDTH 566 0
DWIDTH 17 0
BBX 14 31 3 -8
BITMAP
E000
E000
E000
E000
E000
E000
E000
E03C
E0F8
E1F0
E3E0
E7C0
EF00
FE00
FC00
FE00
EF00
E780
E3C0
E1E0
E0F0
E078
E03C
0000
0000
0000
0380
0380
0300
0300
0600
ENDCHAR
STARTCHAR 0138
ENCODING 312
SWIDTH 566 0
DWIDTH 17 0
BBX 14 16 3 0
BITMAP
E03C
E0F8
E1F0
E3E0
E7C0
EF00
FE00
FC00
FE00
EF00
E780
E3C0
E1E0
E0F0
E078
E03C
ENDCHAR
STARTCHAR 0139
ENCODING 313
SWIDTH 566 0
DWIDTH 17 0
BBX 14 27 3 0
BITMAP
1800
3000
6000
E000
0000
E000
E000
E000
E000
E000
E000
E000
E000
E000
E000
E000
E000
E000
E000
E000
E000
E000
E000
E000
FFFC
FFFC
FFFC
ENDCHAR
STARTCHAR 013A
ENCODING 314
SWIDTH 266 0
DWIDTH 8 0
BBX 5 27 3 0
BITMAP
18
30
60
E0
E0
E0
E0
E0
E0
E0
E0
E0
E0
E0
E0
E0
E0
E0
E0
E0
E0
E0
E0
E0
E0
E0
E0
ENDCHAR
STARTCHAR 013B
ENCODING 315
SWIDTH 566 0
DWIDTH 17 0
BBX 14 30 3 -8
BITMAP
E000
E000
E000
E000
E000
E000
E000
E000
E000
E000
E000
E000
E000
E000
E000
E000
E000
E000
E000
FFFC
FFFC
FFFC
0000
0000
0000
0700
0700
0600
0600
0C00
ENDCHAR
STARTCHAR 013C
ENCODING 316
SWIDTH 266 0
DWIDTH 8 0
BBX 4 31 2 -8
BITMAP
70
70
70
70
70
70
70
70
70
70
70
70
70
70
70
70
70
70
70
70
70
70
70
00
00
00
70
70
60
60
C0
ENDCHAR
STARTCHAR 013D
ENCODING 317
SWIDTH 566 0
DWIDTH 17 0
BBX 14 22 3 0
BITMAP
E1C0
E1C0
E180
E380
E380
E300
E000
E000
E000
E000
E000
E000
E000
E000
E000
E000
E000
E000
E000
FFFC
FFFC
FFFC
ENDCHAR
STARTCHAR 013E
ENCODING 318
SWIDTH 366 0
DWIDTH 11 0
BBX 8 23 3 0
BITMAP
E7
E7
E6
EE
EE
EC
E0
E0
E0
E0
E0
E0
E0
E0
E0
E0
E0
E0
E0
E0
E0
E0
E0
ENDCHAR
STARTCHAR 013F
ENCODING 319
SWIDTH 566 0
DWIDTH 17 0
BBX 14 22 3 0
BITMAP
E000
E000
E000
E000
E000
E000
E000
E000
E0E0
E0E0
E0E0
E0E0
E000
E000
E000
E000
E000
E000
E000
FFFC
FFFC
FFFC
ENDCHAR
STARTCHAR 0140
ENCODING 320
SWIDTH 333 0
DWIDTH 10 0
BBX 6 23 3 0
BITMAP
E0
E0
E0
E0
E0
E0
E0
E0
E0
FC
FC
FC
FC
E0
E0
E0
E0
E0
E0
E0
E0
E0
E0
ENDCHAR
STARTCHAR 0141
ENCODING 321
SWIDTH 566 0
DWIDTH 17 0
BBX 17 22 0 0
BITMAP
1C0000
1C0000
1C0000
1C0000
1C0000
1C0000
1C2000
1CF000
1DC000
1F8000
1E0000
3C0000
7C0000
FC0000
1C0000
1C0000
1C0000
1C0000
1C0000
1FFF80
1FFF80
1FFF80
ENDCHAR
STARTCHAR 0142
ENCODING 322
SWIDTH 300 0
DWIDTH 9 0
BBX 9 23 0 0
BITMAP
1C00
1C00
1C00
1C00
1C00
1C00
1C00
1C00
1D80
1F00
1E00
3C00
7C00
FC00
1C00
1C00
1C00
1C00
1C00
1C00
1C00
1C00
1C00
ENDCHAR
STARTCHAR 0143
ENCODING 323
SWIDTH 733 0
DWIDTH 22 0
BBX 17 27 3 0
BITMAP
00C000
018000
030000
070000
000000
F00380
F80380
FC0380
FC0380
FE0380
EE0380
EF0380
E70380
E78380
E38380
E1C380
E1E380
E0E380
E0F380
E07380
E07B80
E03B80
E03F80
E01F80
E01F80
E00F80
E00780
ENDCHAR
STARTCHAR 0144
ENCODING 324
SWIDTH 633 0
DWIDTH 19 0
BBX 14 24 3 0
BITMAP
01C0
0380
0700
0600
0C00
1C00
0000
0000
E3E0
EFF0
FFF8
F83C
F01C
E01C
E01C
E01C
E01C
E01C
E01C
E01C
E01C
E01C
E01C
E01C
ENDCHAR
STARTCHAR 0145
ENCODING 325
SWIDTH 733 0
DWIDTH 22 0
BBX 17 30 3 -8
BITMAP
F00380
F80380
FC0380
FC0380
FE0380
EE0380
EF0380
E70380
E78380
E38380
E1C380
E1E380
E0E380
E0F380
E07380
E07B80
E03B80
E03F80
E01F80
E00F80
E00F80
E00780
000000
000000
000000
01C000
01C000
018000
018000
030000
ENDCHAR
STARTCHAR 0146
ENCODING 326
SWIDTH 633 0
DWIDTH 19 0
BBX 14 24 3 -8
BITMAP
E3E0
EFF0
FFF8
F83C
F01C
E01C
E01C
E01C
E01C
E01C
E01C
E01C
E01C
E01C
E01C
E01C
0000
0000
0000
0700
0700
0600
0600
0C00
ENDCHAR
STARTCHAR 0147
ENCODING 327
SWIDTH 733 0
DWIDTH 22 0
BBX 17 27 3 0
BITMAP
0E3800
063000
036000
01C000
000000
F00380
F80380
FC0380
FC0380
FE0380
EE0380
EF0380
E70380
E78380
E38380
E1C380
E1E380
E0E380
E0F380
E07380
E07B80
E03B80
E03F80
E01F80
E01F80
E00F80
E00780
ENDCHAR
STARTCHAR 0148
ENCODING 328
SWIDTH 633 0
DWIDTH 19 0
BBX 14 24 3 0
BITMAP
1860
0CC0
0CC0
0780
0780
0300
0000
0000
E3E0
EFF0
FFF8
F83C
F01C
E01C
E01C
E01C
E01C
E01C
E01C
E01C
E01C
E01C
E01C
E01C
ENDCHAR
STARTCHAR 0149
ENCODING 329
SWIDTH 800 0
DWIDTH 24 0
BBX 19 22 3 0
BITMAP
700000
700000
700000
600000
600000
E00000
C71F00
077F80
07FFC0
07C1E0
0780E0
0700E0
0700E0
0700E0
0700E0
0700E0
0700E0
0700E0
0700E0
0700E0
0700E0
0700E0
ENDCHAR
STARTCHAR 014A
ENCODING 330
SWIDTH 733 0
DWIDTH 22 0
BBX 16 28 3 -6
BITMAP
E3F0
E7FC
EFFC
FC1E
F80E
F00F
F007
E007
E007
E007
E007
E007
E007
E007
E007
E007
E007
E007
E007
E007
E007
E007
0007
0007
000F
003F
003E
003C
ENDCHAR
STARTCHAR 014B
ENCODING 331
SWIDTH 633 0
DWIDTH 19 0
BBX 14 23 3 -7
BITMAP
E3E0
EFF0
FFF8
F83C
F01C
E01C
E01C
E01C
E01C
E01C
E01C
E01C
E01C
E01C
E01C
E01C
001C
001C
001C
003C
07F8
07F8
07E0
ENDCHAR
STARTCHAR 014C
ENCODING 332
SWIDTH 800 0
DWIDTH 24 0
BBX 20 27 2 0
BITMAP
03FC00
03FC00
03FC00
000000
000000
01F800
0FFE00
1FFF80
3E07C0
3C03C0
7801E0
7000E0
F000F0
E00070
E00070
E00070
E00070
E00070
E00070
F000F0
7000E0
7801E0
3C03C0
3E07C0
1FFF80
0FFF00
01F800
ENDCHAR
STARTCHAR 014D
ENCODING 333
SWIDTH 600 0
DWIDTH 18 0
BBX 15 22 2 0
BITMAP
1FF0
1FF0
1FF0
0000
0000
0000
0FE0
1FF0
3FF8
783C
701C
E01E
E00E
E00E
E00E
E00E
E01E
701C
783C
3FF8
1FF0
0FE0
ENDCHAR
STARTCHAR 014E
ENCODING 334
SWIDTH 800 0
DWIDTH 24 0
BBX 20 28 2 0
BITMAP
030C00
039C00
01F800
00F000
000000
000000
01F800
0FFE00
1FFF80
3E07C0
3C03C0
7801E0
7000E0
F000F0
E00070
E00070
E00070
E00070
E00070
E00070
F000F0
7000E0
7801E0
3C03C0
3E07C0
1FFF80
0FFF00
01F800
ENDCHAR
STARTCHAR 014F
ENCODING 335
SWIDTH 600 0
DWIDTH 18 0
BBX 15 24 2 0
BITMAP
1830
1C70
0FE0
07C0
0000
0000
0000
0000
0FE0
1FF0
3FF8
783C
701C
E01E
E00E
E00E
E00E
E00E
E01E
701C
783C
3FF8
1FF0
0FE0
ENDCHAR
STARTCHAR 0150
ENCODING 336
SWIDTH 800 0
DWIDTH 24 0
BBX 20 27 2 0
BITMAP
00E700
01CE00
039C00
031800
000000
01F800
0FFE00
1FFF80
3E07C0
3C03C0
7801E0
7000E0
F000F0
E00070
E00070
E00070
E00070
E00070
E00070
F000F0
7000E0
7801E0
3C03C0
3E07C0
1FFF80
0FFF00
01F800
ENDCHAR
STARTCHAR 0151
ENCODING 337
SWIDTH 600 0
DWIDTH 18 0
BBX 15 24 2 0
BITMAP
039C
0318
0730
0670
0660
0CC0
0000
0000
0FE0
1FF0
3FF8
783C
701C
E01E
E00E
E00E
E00E
E00E
E01E
701C
783C
3FF8
1FF0
0FE0
ENDCHAR
STARTCHAR 0152
ENCODING 338
SWIDTH 1066 0
DWIDTH 32 0
BBX 28 22 2 0
BITMAP
00FFFFF0
07FFFFF0
0FFFFFF0
3F038000
3C038000
78038000
70038000
F0038000
E0038000
E003FFE0
E003FFE0
E003FFE0
E0038000
E0038000
F0038000
70038000
78038000
3C038000
3F038000
1FFFFFF0
07FFFFF0
00FFFFF0
ENDCHAR
STARTCHAR 0153
ENCODING 339
SWIDTH 1033 0
DWIDTH 31 0
BBX 27 16 2 0
BITMAP
0FC07E00
1FF1FF80
3FFBFFC0
783F83C0
701F00E0
E01E00E0
E00FFFE0
E00FFFE0
E00FFFE0
E00E0000
E01E0000
701F0040
783F81C0
3FFBFFC0
1FF1FF80
0FC07E00
ENDCHAR
STARTCHAR 0154
ENCODING 340
SWIDTH 700 0
DWIDTH 21 0
BBX 17 27 3 0
BITMAP
018000
030000
060000
0E0000
000000
FFC000
FFF000
FFF800
E07C00
E03C00
E01C00
E01C00
E01C00
E03C00
E07800
FFF800
FFE000
FFE000
E0F000
E07800
E03C00
E01C00
E01E00
E00E00
E00F00
E00700
E00780
ENDCHAR
STARTCHAR 0155
ENCODING 341
SWIDTH 400 0
DWIDTH 12 0
BBX 10 24 3 0
BITMAP
01C0
0380
0700
0600
0C00
1C00
0000
0000
E3C0
EFC0
FFC0
F800
F000
E000
E000
E000
E000
E000
E000
E000
E000
E000
E000
E000
ENDCHAR
STARTCHAR 0156
ENCODING 342
SWIDTH 700 0
DWIDTH 21 0
BBX 17 30 3 -8
BITMAP
FFC000
FFF000
FFF800
E07C00
E03C00
E01C00
E01C00
E01C00
E03C00
E07800
FFF800
FFE000
FFE000
E0F000
E07800
E03C00
E01C00
E01E00
E00E00
E00F00
E00700
E00780
000000
000000
000000
01C000
01C000
018000
018000
030000
ENDCHAR
STARTCHAR 0157
ENCODING 343
SWIDTH 400 0
DWIDTH 12 0
BBX 11 24 2 -8
BITMAP
71E0
77E0
7FE0
7C00
7800
7000
7000
7000
7000
7000
7000
7000
7000
7000
7000
7000
0000
0000
0000
7000
7000
6000
6000
C000
ENDCHAR
STARTCHAR 0158
ENCODING 344
SWIDTH 700 0
DWIDTH 21 0
BBX 17 27 3 0
BITMAP
38E000
18C000
0D8000
070000
000000
FFC000
FFF000
FFF800
E07C00
E03C00
E01C00
E01C00
E01C00
E03C00
E07800
FFF800
FFE000
FFE000
E0F000
E07800
E03C00
E01C00
E01E00
E00E00
E00F00
E00700
E00780
ENDCHAR
STARTCHAR 0159
ENCODING 345
SWIDTH 400 0
DWIDTH 12 0
BBX 10 24 3 0
BITMAP
6180
3300
3300
1E00
1E00
0C00
0000
0000
E3C0
EFC0
FFC0
F800
F000
E000
E000
E000
E000
E000
E000
E000
E000
E000
E000
E000
ENDCHAR
STARTCHAR 015A
ENCODING 346
SWIDTH 633 0
DWIDTH 19 0
BBX 15 27 2 0
BITMAP
00C0
0180
0300
0700
0000
0FF0
3FFC
7FFC
780C
F000
E000
E000
E000
F800
7F80
3FF0
0FF8
00FC
001E
000E
000E
000E
001E
C03C
FFFC
FFF8
3FE0
ENDCHAR
STARTCHAR 015B
ENCODING 347
SWIDTH 533 0
DWIDTH 16 0
BBX 12 24 2 0
BITMAP
00E0
01C0
0380
0300
0600
0E00
0000
0000
1FC0
7FE0
FFE0
F020
E000
E000
7C00
3FC0
03E0
0070
0070
8070
E0F0
FFE0
7FE0
1F80
ENDCHAR
STARTCHAR 015C
ENCODING 348
SWIDTH 633 0
DWIDTH 19 0
BBX 15 27 2 0
BITMAP
0380
06C0
0C60
1C70
0000
0FF0
3FFC
7FFC
780C
F000
E000
E000
E000
F800
7F80
3FF0
0FF8
00FC
001E
000E
000E
000E
001E
C03C
FFFC
FFF8
3FE0
ENDCHAR
STARTCHAR 015D
ENCODING 349
SWIDTH 533 0
DWIDTH 16 0
BBX 12 24 2 0
BITMAP
0600
0F00
0F00
1980
30C0
30C0
0000
0000
1FC0
7FE0
FFE0
F020
E000
E000
7C00
3FC0
03E0
0070
0070
8070
E0F0
FFE0
7FE0
1F80
ENDCHAR
STARTCHAR 015E
ENCODING 350
SWIDTH 633 0
DWIDTH 19 0
BBX 15 28 2 -6
BITMAP
0FF0
3FFC
7FFC
780C
F000
E000
E000
E000
F800
7F80
3FF0
0FF8
00FC
001E
000E
000E
000E
001E
C03C
FFFC
FFF8
3FE0
0300
0180
01C0
01C0
0FC0
0F80
ENDCHAR
STARTCHAR 015F
ENCODING 351
SWIDTH 533 0
DWIDTH 16 0
BBX 12 22 2 -6
BITMAP
1FC0
7FE0
FFE0
F020
E000
E000
7C00
3FC0
03E0
0070
0070
8070
E0F0
FFE0
7FE0
1F80
0C00
0600
0700
0700
3F00
3E00
ENDCHAR
STARTCHAR 0160
ENCODING 352
SWIDTH 633 0
DWIDTH 19 0
BBX 15 27 2 0
BITMAP
1C70
0C60
06C0
0380
0000
0FF0
3FFC
7FFC
780C
F000
E000
E000
E000
F800
7F80
3FF0
0FF8
00FC
001E
000E
000E
000E
001E
C03C
FFFC
FFF8
3FE0
ENDCHAR
STARTCHAR 0161
ENCODING 353
SWIDTH 533 0
DWIDTH 16 0
BBX 12 24 2 0
BITMAP
30C0
30C0
1980
0F00
0F00
0600
0000
0000
1FC0
7FE0
FFE0
F020
E000
E000
7C00
3FC0
03E0
0070
0070
8070
E0F0
FFE0
7FE0
1F80
ENDCHAR
STARTCHAR 0162
ENCODING 354
SWIDTH 600 0
DWIDTH 18 0
BBX 19 28 0 -6
BITMAP
FFFFE0
FFFFE0
FFFFE0
00E000
00E000
00E000
00E000
00E000
00E000
00E000
00E000
00E000
00E000
00E000
00E000
00E000
00E000
00E000
00E000
00E000
00E000
00E000
018000
00C000
00E000
00E000
07E000
07C000
ENDCHAR
STARTCHAR 0163
ENCODING 355
SWIDTH 400 0
DWIDTH 12 0
BBX 11 27 1 -6
BITMAP
3800
3800
3800
3800
3800
FFE0
FFE0
FFE0
3800
3800
3800
3800
3800
3800
3800
3800
3800
3C00
3FE0
1FE0
07E0
0600
0300
0380
0380
1F80
1F00
ENDCHAR
STARTCHAR 0164
ENCODING 356
SWIDTH 600 0
DWIDTH 18 0
BBX 19 27 0 0
BITMAP
071C00
031800
01B000
00E000
000000
FFFFE0
FFFFE0
FFFFE0
00E000
00E000
00E000
00E000
00E000
00E000
00E000
00E000
00E000
00E000
00E000
00E000
00E000
00E000
00E000
00E000
00E000
00E000
00E000
ENDCHAR
STARTCHAR 0165
ENCODING 357
SWIDTH 400 0
DWIDTH 12 0
BBX 11 25 1 0
BITMAP
01C0
01C0
0180
0380
3B80
3B00
3800
3800
3800
FFE0
FFE0
FFE0
3800
3800
3800
3800
3800
3800
3800
3800
3800
3C00
3FE0
1FE0
07E0
ENDCHAR
STARTCHAR 0166
ENCODING 358
SWIDTH 600 0
DWIDTH 18 0
BBX 19 22 0 0
BITMAP
FFFFE0
FFFFE0
FFFFE0
00E000
00E000
00E000
00E000
00E000
00E000
00E000
00E000
0FFE00
0FFE00
0FFE00
00E000
00E000
00E000
00E000
00E000
00E000
00E000
00E000
ENDCHAR
STARTCHAR 0167
ENCODING 359
SWIDTH 400 0
DWIDTH 12 0
BBX 11 21 1 0
BITMAP
3800
3800
3800
3800
3800
FFE0
FFE0
FFE0
3800
3800
3800
FF00
FF00
FF00
3800
3800
3800
3800
3FE0
1FE0
0FE0
ENDCHAR
STARTCHAR 0168
ENCODING 360
SWIDTH 733 0
DWIDTH 22 0
BBX 17 27 3 0
BITMAP
079800
0FF800
0CF000
000000
000000
E00380
E00380
E00380
E00380
E00380
E00380
E00380
E00380
E00380
E00380
E00380
E00380
E00380
E00380
E00380
E00380
F00780
700700
7C1F00
3FFE00
1FFC00
07F000
ENDCHAR
STARTCHAR 0169
ENCODING 361
SWIDTH 633 0
DWIDTH 19 0
BBX 14 23 3 0
BITMAP
1C30
3F30
33E0
31E0
0000
0000
0000
E01C
E01C
E01C
E01C
E01C
E01C
E01C
E01C
E01C
E01C
E01C
E03C
F07C
7FFC
3FDC
1F1C
ENDCHAR
STARTCHAR 016A
ENCODING 362
SWIDTH 733 0
DWIDTH 22 0
BBX 17 27 3 0
BITMAP
0FF800
0FF800
0FF800
000000
000000
E00380
E00380
E00380
E00380
E00380
E00380
E00380
E00380
E00380
E00380
E00380
E00380
E00380
E00380
E00380
E00380
F00780
700700
7C1F00
3FFE00
1FFC00
07F000
ENDCHAR
STARTCHAR 016B
ENCODING 363
SWIDTH 633 0
DWIDTH 19 0
BBX 14 22 3 0
BITMAP
3FF0
3FF0
3FF0
0000
0000
0000
E01C
E01C
E01C
E01C
E01C
E01C
E01C
E01C
E01C
E01C
E01C
E03C
F07C
7FFC
3FDC
1F1C
ENDCHAR
STARTCHAR 016C
ENCODING 364
SWIDTH 733 0
DWIDTH 22 0
BBX 17 28 3 0
BITMAP
0C1800
0E3800
07F000
03E000
000000
000000
E00380
E00380
E00380
E00380
E00380
E00380
E00380
E00380
E00380
E00380
E00380
E00380
E00380
E00380
E00380
E00380
F00780
700700
7C1F00
3FFE00
1FFC00
07F000
ENDCHAR
STARTCHAR 016D
ENCODING 365
SWIDTH 633 0
DWIDTH 19 0
BBX 14 24 3 0
BITMAP
3030
3870
1FE0
0FC0
0000
0000
0000
0000
E01C
E01C
E01C
E01C
E01C
E01C
E01C
E01C
E01C
E01C
E01C
E03C
F07C
7FFC
3FDC
1F1C
ENDCHAR
STARTCHAR 016E
ENCODING 366
SWIDTH 733 0
DWIDTH 22 0
BBX 17 28 3 0
BITMAP
03C000
07E000
0E7000
0C3000
0C3000
0E7000
E7E380
E3C380
E00380
E00380
E00380
E00380
E00380
E00380
E00380
E00380
E00380
E00380
E00380
E00380
E00380
E00380
F00780
700700
7C1F00
3FFE00
1FFC00
07F000
ENDCHAR
STARTCHAR 016F
ENCODING 367
SWIDTH 633 0
DWIDTH 19 0
BBX 14 25 3 0
BITMAP
0F00
1F80
39C0
30C0
30C0
39C0
1F80
0F00
0000
E01C
E01C
E01C
E01C
E01C
E01C
E01C
E01C
E01C
E01C
E01C
E03C
F07C
7FFC
3FDC
1F1C
ENDCHAR
STARTCHAR 0170
ENCODING 368
SWIDTH 733 0
DWIDTH 22 0
BBX 17 27 3 0
BITMAP
039C00
073800
0E7000
0C6000
000000
E00380
E00380
E00380
E00380
E00380
E00380
E00380
E00380
E00380
E00380
E00380
E00380
E00380
E00380
E00380
E00380
F00780
700700
7C1F00
3FFE00
1FFC00
07F000
ENDCHAR
STARTCHAR 0171
ENCODING 369
SWIDTH 633 0
DWIDTH 19 0
BBX 14 24 3 0
BITMAP
039C
0318
0730
0670
0660
0CC0
0000
0000
E01C
E01C
E01C
E01C
E01C
E01C
E01C
E01C
E01C
E01C
E01C
E03C
F07C
7FFC
3FDC
1F1C
ENDCHAR
STARTCHAR 0172
ENCODING 370
SWIDTH 733 0
DWIDTH 22 0
BBX 17 28 3 -6
BITMAP
E00380
E00380
E00380
E00380
E00380
E00380
E00380
E00380
E00380
E00380
E00380
E00380
E00380
E00380
E00380
E00380
F00780
700700
7C1F00
3FFE00
1FFC00
07F000
01C000
018000
038000
038000
03E000
01E000
ENDCHAR
STARTCHAR 0173
ENCODING 371
SWIDTH 633 0
DWIDTH 19 0
BBX 15 22 3 -6
BITMAP
E01C
E01C
E01C
E01C
E01C
E01C
E01C
E01C
E01C
E01C
E01C
E03C
F07C
7FFC
3FDC
1F1C
001C
0018
0038
0038
003E
001E
ENDCHAR
STARTCHAR 0174
ENCODING 372
SWIDTH 1000 0
DWIDTH 30 0
BBX 28 28 1 0
BITMAP
000F0000
000F0000
00198000
0030C000
00000000
00000000
E0060070
E00F0070
700F00E0
700F00E0
700F00E0
701981E0
381981C0
381981C0
381981C0
3830C3C0
1C30C380
1C30C380
1C30C380
1C606780
0E606700
0E606700
0E606700
0EC03F00
07C03E00
07C03E00
07C03E00
07801E00
ENDCHAR
STARTCHAR 0175
ENCODING 373
SWIDTH 833 0
DWIDTH 25 0
BBX 22 24 1 0
BITMAP
003800
003800
006C00
00EE00
00C600
018300
000000
000000
E0301C
F0783C
707838
707838
70FC38
78CC78
38CC70
38CC70
39C670
1D86E0
1D86E0
1D86E0
1F03E0
0F03C0
0F03C0
0F03C0
ENDCHAR
STARTCHAR 0176
ENCODING 374
SWIDTH 600 0
DWIDTH 18 0
BBX 19 28 0 0
BITMAP
00E000
01B000
031800
071C00
000000
000000
F001E0
7803C0
380380
3C0780
1E0F00
0E1E00
071E00
07BC00
03F800
01F000
01F000
00E000
00E000
00E000
00E000
00E000
00E000
00E000
00E000
00E000
00E000
00E000
ENDCHAR
STARTCHAR 0177
ENCODING 375
SWIDTH 600 0
DWIDTH 18 0
BBX 16 30 1 -6
BITMAP
0180
03C0
03C0
0660
0660
0C30
0000
0000
E00F
700E
700E
781C
381C
383C
1C38
1C78
1E70
0EF0
0FE0
07E0
07C0
03C0
03C0
0380
0780
0700
0F00
7E00
7E00
7800
ENDCHAR
STARTCHAR 0178
ENCODING 376
SWIDTH 600 0
DWIDTH 18 0
BBX 19 27 0 0
BITMAP
071C00
071C00
071C00
000000
000000
F001E0
7803C0
380380
3C0780
1E0F00
0E1E00
071E00
07BC00
03F800
01F000
01F000
00E000
00E000
00E000
00E000
00E000
00E000
00E000
00E000
00E000
00E000
00E000
ENDCHAR
STARTCHAR 0179
ENCODING 377
SWIDTH 700 0
DWIDTH 21 0
BBX 18 27 1 0
BITMAP
006000
00C000
018000
038000
000000
FFFFC0
FFFFC0
FFFFC0
000780
000F00
001E00
001E00
003C00
007800
00F000
01E000
01E000
03C000
078000
0F0000
1E0000
1E0000
3C0000
780000
FFFFC0
FFFFC0
FFFFC0
ENDCHAR
STARTCHAR 017A
ENCODING 378
SWIDTH 533 0
DWIDTH 16 0
BBX 13 24 1 0
BITMAP
0070
00E0
01C0
0180
0300
0700
0000
0000
FFF8
FFF8
FFF8
00F0
01E0
01E0
03C0
0780
0F00
1E00
1E00
3C00
7800
FFF8
FFF8
FFF8
ENDCHAR
STARTCHAR 017B
ENCODING 379
SWIDTH 700 0
DWIDTH 21 0
BBX 18 27 1 0
BITMAP
00E000
00E000
00E000
000000
000000
FFFFC0
FFFFC0
FFFFC0
000780
000F00
001E00
001E00
003C00
007800
00F000
01E000
01E000
03C000
078000
0F0000
1E0000
1E0000
3C0000
780000
FFFFC0
FFFFC0
FFFFC0
ENDCHAR
STARTCHAR 017C
ENCODING 380
SWIDTH 533 0
DWIDTH 16 0
BBX 13 23 1 0
BITMAP
0700
0700
0700
0000
0000
0000
0000
FFF8
FFF8
FFF8
00F0
01E0
01E0
03C0
0780
0F00
1E00
1E00
3C00
7800
FFF8
FFF8
FFF8
ENDCHAR
STARTCHAR 017D
ENCODING 381
SWIDTH 700 0
DWIDTH 21 0
BBX 18 27 1 0
BITMAP
071C00
031800
01B000
00E000
000000
FFFFC0
FFFFC0
FFFFC0
000780
000F00
001E00
001E00
003C00
007800
00F000
01E000
01E000
03C000
078000
0F0000
1E0000
1E0000
3C0000
780000
FFFFC0
FFFFC0
FFFFC0
ENDCHAR
STARTCHAR 017E
ENCODING 382
SWIDTH 533 0
DWIDTH 16 0
BBX 13 24 1 0
BITMAP
3060
18C0
1DC0
0D80
0700
0700
0000
0000
FFF8
FFF8
FFF8
00F0
01E0
01E0
03C0
0780
0F00
1E00
1E00
3C00
7800
FFF8
FFF8
FFF8
ENDCHAR
STARTCHAR 017F
ENCODING 383
SWIDTH 366 0
DWIDTH 11 0
BBX 11 23 0 0
BITMAP
03E0
0FE0
0FE0
1E00
1C00
1C00
1C00
FC00
FC00
FC00
1C00
1C00
1C00
1C00
1C00
1C00
1C00
1C00
1C00
1C00
1C00
1C00
1C00
ENDCHAR
STARTCHAR 0180
ENCODING 384
SWIDTH 666 0
DWIDTH 20 0
BBX 17 23 1 0
BITMAP
380000
FF8000
FF8000
FF8000
380000
380000
380000
38F800
3BFC00
3FFE00
3E0F00
3C0700
380380
380380
380380
380380
380380
380380
3C0700
3E0F00
3FFE00
3BFC00
38F800
ENDCHAR
STARTCHAR 0181
ENCODING 385
SWIDTH 733 0
DWIDTH 22 0
BBX 22 22 -3 0
BITMAP
1FFF80
7FFFE0
7BFFF0
E380F8
C38038
C38038
038038
038038
0380F0
03FFE0
03FFC0
03FFF0
038078
03803C
03801C
03801C
03801C
03803C
03807C
03FFF8
03FFF0
03FFC0
ENDCHAR
STARTCHAR 0182
ENCODING 386
SWIDTH 700 0
DWIDTH 21 0
BBX 16 22 3 0
BITMAP
FFFC
FFFC
FFFC
E000
E000
E000
E000
E000
E000
FFF0
FFFC
FFFE
E01E
E00F
E007
E007
E007
E00F
E01E
FFFE
FFFC
FFF0
ENDCHAR
STARTCHAR 0183
ENCODING 387
SWIDTH 666 0
DWIDTH 20 0
BBX 15 23 3 0
BITMAP
FFF8
FFF8
FFF8
E000
E000
E000
E000
E3E0
EFF0
FFF8
F83C
F01C
E00E
E00E
E00E
E00E
E00E
E00E
F01C
F83C
FFF8
EFF0
E3E0
ENDCHAR
STARTCHAR 0184
ENCODING 388
SWIDTH 700 0
DWIDTH 21 0
BBX 19 22 0 0
BITMAP
040000
0C0000
1C0000
3C0000
7C0000
FC0000
1C0000
1C0000
1C0000
1FFE00
1FFF80
1FFFC0
1C03C0
1C01E0
1C00E0
1C00E0
1C00E0
1C01E0
1C03C0
1FFFC0
1FFF80
1FFE00
ENDCHAR
STARTCHAR 0185
ENCODING 389
SWIDTH 666 0
DWIDTH 20 0
BBX 18 23 0 0
BITMAP
040000
0C0000
1C0000
3C0000
3C0000
7C0000
FC0000
1C7C00
1DFE00
1FFF00
1F0780
1E0380
1C01C0
1C01C0
1C01C0
1C01C0
1C01C0
1C01C0
1E0380
1F0780
1FFF00
1DFE00
1C7C00
ENDCHAR
STARTCHAR 0186
ENCODING 390
SWIDTH 733 0
DWIDTH 22 0
BBX 18 22 2 0
BITMAP
1FE000
7FF800
FFFE00
E03F00
800F00
000780
000380
0003C0
0001C0
0001C0
0001C0
0001C0
0001C0
0001C0
0003C0
000380
000780
800F00
E03F00
FFFE00
7FF800
1FE000
ENDCHAR
STARTCHAR 0187
ENCODING 391
SWIDTH 700 0
DWIDTH 21 0
BBX 22 28 2 0
BITMAP
00003C
00007C
0000FC
0000E0
0001E0
0001C0
01FDC0
07FFC0
1FFFC0
3F01C0
3C0040
780000
700000
F00000
E00000
E00000
E00000
E00000
E00000
E00000
F00000
700000
780000
3C0040
3F01C0
1FFFC0
07FF80
01FE00
ENDCHAR
STARTCHAR 0188
ENCODING 392
SWIDTH 566 0
DWIDTH 17 0
BBX 16 23 2 0
BITMAP
0007
001F
001F
003C
0038
0038
0038
07F8
1FF8
3FF8
7C08
7000
F000
E000
E000
E000
E000
F000
7000
7C08
3FF8
1FF8
07F0
ENDCHAR
STARTCHAR 0189
ENCODING 393
SWIDTH 766 0
DWIDTH 23 0
BBX 21 22 0 0
BITMAP
1FFC00
1FFF00
1FFFC0
1C07E0
1C01F0
1C00F0
1C0070
1C0038
1C0038
1C0038
FFE038
FFE038
FFE038
1C0038
1C0078
1C0070
1C00F0
1C01F0
1C07E0
1FFFC0
1FFF80
1FFC00
ENDCHAR
STARTCHAR 018A
ENCODING 394
SWIDTH 833 0
DWIDTH 25 0
BBX 24 22 -3 0
BITMAP
1FFF80
7FFFE0
7BFFF8
E380FC
C3803E
C3801E
03800E
038007
038007
038007
038007
038007
038007
038007
03800F
03800E
03801E
03803E
0380FC
03FFF8
03FFE0
03FF80
ENDCHAR
STARTCHAR 018B
ENCODING 395
SWIDTH 666 0
DWIDTH 20 0
BBX 16 22 2 0
BITMAP
0FFF
0FFF
0FFF
0007
0007
0007
0007
0007
0007
0FFF
3FFF
7FFF
7807
F007
E007
E007
E007
F007
7807
7FFF
3FFF
0FFF
ENDCHAR
STARTCHAR 018C
ENCODING 396
SWIDTH 633 0
DWIDTH 19 0
BBX 15 23 2 0
BITMAP
3FFE
3FFE
3FFE
000E
000E
000E
000E
0F8E
1FEE
3FFE
783E
701E
E01E
E00E
E00E
E00E
E00E
E00E
701E
783E
3FFE
1FEE
0F8E
ENDCHAR
STARTCHAR 018D
ENCODING 397
SWIDTH 633 0
DWIDTH 19 0
BBX 15 23 2 -7
BITMAP
07C0
1FF0
3FF8
783C
701C
F01E
E00E
E00E
E00E
E00E
E00E
E00C
701C
7818
3E70
0FE0
01F0
0078
0038
2078
3FF8
3FF0
0FC0
ENDCHAR
STARTCHAR 018E
ENCODING 398
SWIDTH 633 0
DWIDTH 19 0
BBX 14 22 2 0
BITMAP
FFFC
FFFC
FFFC
001C
001C
001C
001C
001C
001C
7FFC
7FFC
7FFC
001C
001C
001C
001C
001C
001C
001C
FFFC
FFFC
FFFC
ENDCHAR
STARTCHAR 018F
ENCODING 399
SWIDTH 800 0
DWIDTH 24 0
BBX 20 22 2 0
BITMAP
07F800
1FFE00
3FFF80
3807C0
2001C0
0000E0
0000E0
000070
000070
000070
FFFFF0
FFFFF0
FFFFF0
E00070
600070
7000E0
7000E0
3801C0
3E07C0
1FFF80
0FFF00
01F800
ENDCHAR
STARTCHAR 0190
ENCODING 400
SWIDTH 633 0
DWIDTH 19 0
BBX 15 22 2 0
BITMAP
07F0
1FFC
3FFC
7C0C
7000
7000
7000
7000
3C00
1FE0
0FE0
3FE0
7800
F000
E000
E000
E000
F000
7806
7FFE
1FFE
07F8
ENDCHAR
STARTCHAR 0191
ENCODING 401
SWIDTH 566 0
DWIDTH 17 0
BBX 17 28 -1 -6
BITMAP
0FFF80
0FFF80
0FFF80
0E0000
0E0000
0E0000
0E0000
0E0000
0E0000
0FFF00
0FFF00
0FFF00
0E0000
0E0000
0E0000
0E0000
0E0000
0E0000
0E0000
0E0000
0E0000
0E0000
0E0000
1E0000
1C0000
FC0000
F80000
F00000
ENDCHAR
STARTCHAR 0192
ENCODING 402
SWIDTH 366 0
DWIDTH 11 0
BBX 13 29 -2 -6
BITMAP
00F8
03F8
03F8
0780
0700
0700
0700
3FF0
3FF0
3FF0
0700
0700
0700
0700
0700
0700
0700
0700
0700
0700
0700
0700
0700
0700
0700
0F00
FE00
FE00
F800
ENDCHAR
STARTCHAR 0193
ENCODING 403
SWIDTH 766 0
DWIDTH 23 0
BBX 23 28 3 0
BITMAP
00001E
00007E
0000FE
0000F0
0001E0
0001C0
01FDC0
07FFC0
1FFFC0
3E01C0
3C0040
780000
700000
F00000
E00000
E00000
E01FE0
E01FE0
E01FE0
E000E0
F000E0
7000E0
7800E0
3C00E0
3F01E0
1FFFC0
07FF80
01FC00
ENDCHAR
STARTCHAR 0194
ENCODING 404
SWIDTH 666 0
DWIDTH 20 0
BBX 20 28 0 -6
BITMAP
F000F0
7000E0
7801E0
3801C0
3C03C0
1C0380
0E0700
0F0F00
070E00
079E00
039C00
03FC00
01F800
01F800
00F000
00F000
00F000
01F800
01F800
039C00
039C00
070E00
070E00
070E00
070E00
07FE00
03FC00
01F800
ENDCHAR
STARTCHAR 0195
ENCODING 405
SWIDTH 1000 0
DWIDTH 30 0
BBX 25 23 3 0
BITMAP
E0000000
E0000000
E0000000
E0000000
E0000000
E0000000
E0000000
E3E03000
EFF03C00
FFF83E00
F83C1F00
F01C0700
E01C0780
E01C0380
E01C0380
E01C0380
E01C0380
E01C0380
E01C0700
E01E0F00
E01FFE00
E00FFC00
E007F000
ENDCHAR
STARTCHAR 0196
ENCODING 406
SWIDTH 366 0
DWIDTH 11 0
BBX 7 22 3 0
BITMAP
E0
E0
E0
E0
E0
E0
E0
E0
E0
E0
E0
E0
E0
E0
E0
E0
E0
E0
70
7E
3E
1E
ENDCHAR
STARTCHAR 0197
ENCODING 407
SWIDTH 300 0
DWIDTH 9 0
BBX 9 22 0 0
BITMAP
1C00
1C00
1C00
1C00
1C00
1C00
1C00
1C00
1C00
1C00
1C00
FF80
FF80
FF80
1C00
1C00
1C00
1C00
1C00
1C00
1C00
1C00
ENDCHAR
STARTCHAR 0198
ENCODING 408
SWIDTH 733 0
DWIDTH 22 0
BBX 19 22 3 0
BITMAP
E00F80
E01FC0
E03FC0
E0F9E0
E1F0E0
E3E0E0
E7C0E0
EF8000
FF0000
FC0000
FC0000
FE0000
EF0000
E78000
E7C000
E3E000
E1F000
E0F800
E07C00
E03E00
E01F00
E00F80
ENDCHAR
STARTCHAR 0199
ENCODING 409
SWIDTH 566 0
DWIDTH 17 0
BBX 14 23 3 0
BITMAP
1F00
7F00
7F00
F000
E000
E000
E000
E03C
E0F8
E1F0
E3E0
E7C0
EF00
FE00
FC00
FE00
EF00
E780
E3C0
E1E0
E0F0
E078
E03C
ENDCHAR
STARTCHAR 019A
ENCODING 410
SWIDTH 266 0
DWIDTH 8 0
BBX 9 23 0 0
BITMAP
1C00
1C00
1C00
1C00
1C00
1C00
1C00
1C00
1C00
1C00
FF80
FF80
FF80
1C00
1C00
1C00
1C00
1C00
1C00
1C00
1C00
1C00
1C00
ENDCHAR
STARTCHAR 019B
ENCODING 411
SWIDTH 600 0
DWIDTH 18 0
BBX 16 23 1 0
BITMAP
0700
0398
03F8
0FFC
3FF0
3FC0
11C0
01E0
01E0
03E0
03F0
07F0
0770
0738
0E38
0E38
1C1C
1C1C
381C
380E
780E
700E
F007
ENDCHAR
STARTCHAR 019C
ENCODING 412
SWIDTH 1000 0
DWIDTH 30 0
BBX 25 22 3 0
BITMAP
E01C0380
E01C0380
E01C0380
E01C0380
E01C0380
E01C0380
E01C0380
E01C0380
E01C0380
E01C0380
E01C0380
E01C0380
E01C0380
E01C0380
E01C0380
E01C0380
E01C0380
E03C0780
F07E0F80
7FEFFF80
3FC7FB80
1F03E380
ENDCHAR
STARTCHAR 019D
ENCODING 413
SWIDTH 733 0
DWIDTH 22 0
BBX 22 28 -2 -6
BITMAP
07801C
07C01C
07E01C
07E01C
07F01C
07701C
07781C
07381C
073C1C
071C1C
070E1C
070F1C
07071C
07079C
07039C
0703DC
0701DC
0701FC
0700FC
07007C
07007C
07003C
070000
0F0000
1E0000
FE0000
FC0000
F00000
ENDCHAR
STARTCHAR 019E
ENCODING 414
SWIDTH 633 0
DWIDTH 19 0
BBX 14 22 3 -6
BITMAP
E3E0
EFF0
FFF8
F87C
F03C
E01C
E01C
E01C
E01C
E01C
E01C
E01C
E01C
E01C
E01C
E01C
001C
001C
001C
001C
001C
001C
ENDCHAR
STARTCHAR 019F
ENCODING 415
SWIDTH 800 0
DWIDTH 24 0
BBX 20 22 2 0
BITMAP
01F800
0FFE00
1FFF80
3E07C0
3C01C0
7800E0
7000E0
E00070
E00070
FFFFF0
FFFFF0
FFFFF0
E00070
E00070
E00070
7000E0
7000E0
3801C0
3E07C0
1FFF80
0FFF00
01F800
ENDCHAR
STARTCHAR 01A0
ENCODING 416
SWIDTH 900 0
DWIDTH 27 0
BBX 21 23 2 0
BITMAP
000018
01F818
0FFF18
1FFFF8
3E07F0
3C03C0
7801E0
7000E0
F000F0
E00070
E00070
E00070
E00070
E00070
E00070
F000F0
7000E0
7801E0
3C03C0
3E07C0
1FFF80
0FFF00
01F800
ENDCHAR
STARTCHAR 01A1
ENCODING 417
SWIDTH 600 0
DWIDTH 18 0
BBX 16 18 2 0
BITMAP
0003
0003
0FE3
1FFF
3FFE
783C
701C
E01E
E00E
E00E
E00E
E00E
E01E
701C
783C
3FF8
1FF0
0FE0
ENDCHAR
STARTCHAR 01A2
ENCODING 418
SWIDTH 933 0
DWIDTH 28 0
BBX 23 22 2 0
BITMAP
03FFF0
0FFFF8
1FFFFC
3E079C
38039E
78038E
70038E
F0038E
E0038E
E0038E
E0038E
E0038E
E0038E
E0038E
F0038E
70038E
78038E
38038E
3E0F8E
1FFF8E
0FFE0E
03F80E
ENDCHAR
STARTCHAR 01A3
ENCODING 419
SWIDTH 766 0
DWIDTH 23 0
BBX 19 22 2 -6
BITMAP
0FFF00
1FFFC0
3FFFC0
7839E0
7038E0
E038E0
E038E0
E038E0
E038E0
E038E0
E038E0
7038E0
7838E0
3FF8E0
1FF0E0
0FE0E0
0000E0
0000E0
0000E0
0000E0
0000E0
0000E0
ENDCHAR
STARTCHAR 01A4
ENCODING 420
SWIDTH 666 0
DWIDTH 20 0
BBX 20 22 -3 0
BITMAP
1FFF00
7FFFC0
7BFFE0
E381E0
C380F0
C38070
038070
038070
0380F0
0381E0
03FFE0
03FFC0
03FF00
038000
038000
038000
038000
038000
038000
038000
038000
038000
ENDCHAR
STARTCHAR 01A5
ENCODING 421
SWIDTH 633 0
DWIDTH 19 0
BBX 15 29 3 -6
BITMAP
1F80
7F80
7F80
F000
E000
E000
E000
E7E0
EFF0
FFF8
F83C
F01C
E00E
E00E
E00E
E00E
E00E
E00E
F01C
F83C
FFF8
EFF0
E3E0
E000
E000
E000
E000
E000
E000
ENDCHAR
STARTCHAR 01A6
ENCODING 422
SWIDTH 700 0
DWIDTH 21 0
BBX 17 26 3 -4
BITMAP
E00000
E00000
E00000
E00000
FFC000
FFF000
FFF800
E07C00
E03C00
E01C00
E01C00
E01C00
E03C00
E07800
FFF000
FFC000
FFF000
E07800
E03800
E03C00
E01C00
E00E00
000E00
000700
000700
000780
ENDCHAR
STARTCHAR 01A7
ENCODING 423
SWIDTH 633 0
DWIDTH 19 0
BBX 15 22 2 0
BITMAP
1FE0
7FF8
7FFC
603C
001E
000E
000E
000E
001E
03FC
1FF8
3FE0
7E00
F000
E000
E000
E000
F000
7806
7FFE
3FFE
0FF8
ENDCHAR
STARTCHAR 01A8
ENCODING 424
SWIDTH 533 0
DWIDTH 16 0
BBX 12 16 2 0
BITMAP
3F80
7FE0
7FF0
40F0
0070
03F0
07E0
3FC0
7C00
F000
E000
E010
F070
7FF0
7FE0
1F80
ENDCHAR
STARTCHAR 01A9
ENCODING 425
SWIDTH 633 0
DWIDTH 19 0
BBX 14 22 3 0
BITMAP
FFFC
FFFC
FFFC
F800
7C00
3E00
1E00
0F00
0780
03C0
01E0
03C0
0780
0F00
0F00
1E00
3C00
7800
F000
FFFC
FFFC
FFFC
ENDCHAR
STARTCHAR 01AA
ENCODING 426
SWIDTH 333 0
DWIDTH 10 0
BBX 15 29 -4 -6
BITMAP
3F00
FF80
FFC0
FFF8
FFF8
7FF8
01C0
01C0
01C0
01C0
01C0
01C0
01C0
01C0
01C0
01C0
01C0
01C0
01C0
01C0
01C0
01C0
01C0
01C0
01C0
01E0
01FE
00FE
003E
ENDCHAR
STARTCHAR 01AB
ENCODING 427
SWIDTH 400 0
DWIDTH 12 0
BBX 11 27 1 -6
BITMAP
3800
3800
3800
3800
3800
FFE0
FFE0
FFE0
3800
3800
3800
3800
3800
3800
3800
3800
3800
3C00
3FE0
1FE0
07E0
00E0
00E0
01E0
07C0
07C0
0780
ENDCHAR
STARTCHAR 01AC
ENCODING 428
SWIDTH 600 0
DWIDTH 18 0
BBX 18 22 1 0
BITMAP
1FFFC0
7FFFC0
FFFFC0
F1C000
E1C000
E1C000
01C000
01C000
01C000
01C000
01C000
01C000
01C000
01C000
01C000
01C000
01C000
01C000
01C000
01C000
01C000
01C000
ENDCHAR
STARTCHAR 01AD
ENCODING 429
SWIDTH 400 0
DWIDTH 12 0
BBX 11 23 1 0
BITMAP
07E0
1FE0
1FE0
3C00
3800
3800
3800
FFE0
FFE0
FFE0
3800
3800
3800
3800
3800
3800
3800
3800
3800
3C00
3FE0
1FE0
07E0
ENDCHAR
STARTCHAR 01AE
ENCODING 430
SWIDTH 600 0
DWIDTH 18 0
BBX 19 28 0 -6
BITMAP
FFFFE0
FFFFE0
FFFFE0
00E000
00E000
00E000
00E000
00E000
00E000
00E000
00E000
00E000
00E000
00E000
00E000
00E000
00E000
00E000
00E000
00E000
00E000
00E000
00E000
00E000
00F000
007E00
003E00
001E00
ENDCHAR
STARTCHAR 01AF
ENCODING 431
SWIDTH 866 0
DWIDTH 26 0
BBX 21 23 3 0
BITMAP
000018
E00398
E00398
E003F8
E003F0
E00380
E00380
E00380
E00380
E00380
E00380
E00380
E00380
E00380
E00380
E00380
E00380
F00780
700700
7C1F00
3FFE00
1FFC00
07F000
ENDCHAR
STARTCHAR 01B0
ENCODING 432
SWIDTH 633 0
DWIDTH 19 0
BBX 17 18 3 0
BITMAP
000180
000180
E01D80
E01F80
E01F00
E01C00
E01C00
E01C00
E01C00
E01C00
E01C00
E01C00
E01C00
E03C00
F07C00
7FFC00
3FDC00
1F1C00
ENDCHAR
STARTCHAR 01B1
ENCODING 433
SWIDTH 800 0
DWIDTH 24 0
BBX 21 22 1 0
BITMAP
FFC7F8
FFC7F8
FFC7F8
0F8380
0F01C0
1E00E0
3C0070
380070
780070
700038
700038
700038
700038
700038
700038
380070
3800F0
3C00F0
1F03E0
0FFFC0
07FF80
00FC00
ENDCHAR
STARTCHAR 01B2
ENCODING 434
SWIDTH 733 0
DWIDTH 22 0
BBX 18 22 3 0
BITMAP
E00000
E00000
E00000
E03C00
E01E00
E00F00
E00700
E00380
E00380
E001C0
E001C0
E001C0
E001C0
E001C0
E001C0
E00380
E00780
F00F80
701F00
7FFE00
3FF800
0FE000
ENDCHAR
STARTCHAR 01B3
ENCODING 435
SWIDTH 733 0
DWIDTH 22 0
BBX 23 22 0 0
BITMAP
F000F8
7801FC
3803FE
3C038E
1E078E
0E0F0E
071E00
079C00
03FC00
01F800
01F000
00E000
00E000
00E000
00E000
00E000
00E000
00E000
00E000
00E000
00E000
00E000
ENDCHAR
STARTCHAR 01B4
ENCODING 436
SWIDTH 733 0
DWIDTH 22 0
BBX 22 22 1 -6
BITMAP
E001E0
7007F8
7007F8
780F3C
380E1C
3C1C1C
1C1C00
1C3800
0E3800
0E7000
0F7000
07E000
07E000
03C000
03C000
038000
038000
078000
0F0000
7F0000
7E0000
7C0000
ENDCHAR
STARTCHAR 01B5
ENCODING 437
SWIDTH 700 0
DWIDTH 21 0
BBX 18 22 1 0
BITMAP
FFFFC0
FFFFC0
FFFFC0
000780
000F00
001F00
001E00
003C00
007800
00F000
3FFF00
3FFF00
3FFF00
078000
0F0000
0E0000
1E0000
3C0000
780000
FFFFC0
FFFFC0
FFFFC0
ENDCHAR
STARTCHAR 01B6
ENCODING 438
SWIDTH 533 0
DWIDTH 16 0
BBX 13 16 1 0
BITMAP
FFF8
FFF8
FFF8
00F0
01E0
01C0
7FF0
7FF0
7FF0
1E00
1E00
3C00
7800
FFF8
FFF8
FFF8
ENDCHAR
STARTCHAR 01B7
ENCODING 439
SWIDTH 666 0
DWIDTH 20 0
BBX 16 22 3 0
BITMAP
FFFE
FFFE
FFFE
003C
0078
00F0
01F0
01E0
03C0
07E0
07F8
07FC
001E
000F
0007
0007
0007
800F
E01E
FFFE
7FF8
0FE0
ENDCHAR
STARTCHAR 01B8
ENCODING 440
SWIDTH 666 0
DWIDTH 20 0
BBX 16 22 1 0
BITMAP
7FFF
7FFF
7FFF
3C00
1E00
0F00
0780
0780
03C0
07E0
1FE0
3FE0
7800
F000
E000
E000
E000
F001
7807
7FFF
1FFE
07F0
ENDCHAR
STARTCHAR 01B9
ENCODING 441
SWIDTH 566 0
DWIDTH 17 0
BBX 14 22 2 -6
BITMAP
7FFC
7FFC
7FFC
3C00
1E00
0E00
0700
0380
03C0
0FC0
3FC0
7FC0
7800
F000
E000
E000
E000
F000
780C
7FFC
3FFC
07F0
ENDCHAR
STARTCHAR 01BA
ENCODING 442
SWIDTH 533 0
DWIDTH 16 0
BBX 13 22 2 -6
BITMAP
FFF0
FFF0
0070
00E0
01C0
03C0
0780
0F00
0FC0
1FF0
0078
0038
0038
00F0
1FE0
7F80
F000
E000
E000
F030
7FF0
3FF0
ENDCHAR
STARTCHAR 01BB
ENCODING 443
SWIDTH 633 0
DWIDTH 19 0
BBX 14 22 2 1
BITMAP
3FC0
FFF0
F8F8
C038
001C
001C
001C
001C
0038
0038
0070
7FF8
7FF8
03C0
0780
0F00
1E00
3C00
7800
F000
FFFC
FFFC
ENDCHAR
STARTCHAR 01BC
ENCODING 444
SWIDTH 666 0
DWIDTH 20 0
BBX 18 23 1 -1
BITMAP
3FFF00
3FFF00
3FFF00
380000
380000
380000
380000
380000
380000
3FF800
3FFE00
3FFF00
000780
0003C0
0001C0
0001C0
E001C0
E001C0
F003C0
7C0F80
3FFF00
1FFE00
07F800
ENDCHAR
STARTCHAR 01BD
ENCODING 445
SWIDTH 600 0
DWIDTH 18 0
BBX 15 22 2 -6
BITMAP
7FF8
7FF8
7FF8
7000
7000
7000
7000
7000
7000
7FC0
7FF0
7FF8
003C
001E
000E
000E
000E
001E
803C
FFFC
FFF0
3FC0
ENDCHAR
STARTCHAR 01BE
ENCODING 446
SWIDTH 500 0
DWIDTH 15 0
BBX 13 21 1 0
BITMAP
0E00
0E00
0E00
0E00
7FC0
7FC0
0E00
0E00
0F00
0FC0
03E0
00F0
0070
0038
0038
0038
0030
0070
C0F0
FFE0
7F80
ENDCHAR
STARTCHAR 01BF
ENCODING 447
SWIDTH 666 0
DWIDTH 20 0
BBX 15 22 3 -6
BITMAP
E3F0
E7FC
FFFC
FC1E
F80E
E00E
E00E
E00E
E00C
E01C
E038
E070
E1E0
E7C0
FF80
FE00
FC00
F000
E000
E000
E000
E000
ENDCHAR
STARTCHAR 01C0
ENCODING 448
SWIDTH 300 0
DWIDTH 9 0
BBX 3 29 3 -6
BITMAP
E0
E0
E0
E0
E0
E0
E0
E0
E0
E0
E0
E0
E0
E0
E0
E0
E0
E0
E0
E0
E0
E0
E0
E0
E0
E0
E0
E0
E0
ENDCHAR
STARTCHAR 01C1
ENCODING 449
SWIDTH 500 0
DWIDTH 15 0
BBX 9 29 3 -6
BITMAP
E380
E380
E380
E380
E380
E380
E380
E380
E380
E380
E380
E380
E380
E380
E380
E380
E380
E380
E380
E380
E380
E380
E380
E380
E380
E380
E380
E380
E380
ENDCHAR
STARTCHAR 01C2
ENCODING 450
SWIDTH 466 0
DWIDTH 14 0
BBX 13 29 0 -6
BITMAP
0700
0700
0700
0700
0700
0700
0700
0700
0700
FFF8
FFF8
FFF8
0700
0700
0700
0700
FFF8
FFF8
FFF8
0700
0700
0700
0700
0700
0700
0700
0700
0700
0700
ENDCHAR
STARTCHAR 01C3
ENCODING 451
SWIDTH 300 0
DWIDTH 9 0
BBX 3 22 3 0
BITMAP
E0
E0
E0
E0
E0
E0
E0
E0
E0
E0
E0
E0
E0
E0
E0
00
00
00
E0
E0
E0
E0
ENDCHAR
STARTCHAR 01C4
ENCODING 452
SWIDTH 1433 0
DWIDTH 43 0
BBX 37 27 3 0
BITMAP
000000E380
0000006300
0000003600
0000001C00
0000000000
FFE01FFFF8
FFF81FFFF8
FFFE1FFFF8
E03F0000F0
E00F8001E0
E0078003C0
E0038003C0
E001C00780
E001C00F00
E001C01E00
E001C03C00
E001C03C00
E001C07800
E001C0F000
E003C1E000
E00383C000
E00783C000
E00F878000
E03F0F0000
FFFE1FFFF8
FFF81FFFF8
FFE01FFFF8
ENDCHAR
STARTCHAR 01C5
ENCODING 453
SWIDTH 1300 0
DWIDTH 39 0
BBX 33 24 3 0
BITMAP
0000030600
0000018C00
FFE001DC00
FFF800D800
FFFE007000
E03F007000
E00F800000
E007800000
E0038FFF80
E001CFFF80
E001CFFF80
E001C00F00
E001C01E00
E001C01E00
E001C03C00
E001C07800
E003C0F000
E00381E000
E00781E000
E00F83C000
E03F078000
FFFE0FFF80
FFF80FFF80
FFE00FFF80
ENDCHAR
STARTCHAR 01C6
ENCODING 454
SWIDTH 1166 0
DWIDTH 35 0
BBX 30 24 2 0
BITMAP
00001830
000E0C60
000E0EE0
000E06C0
000E0380
000E0380
000E0000
000E0000
0F8E7FFC
1FEE7FFC
3FFE7FFC
783E0078
701E00F0
E01E00F0
E00E01E0
E00E03C0
E00E0780
E00E0F00
E00E0F00
701E1E00
783E3C00
3FFE7FFC
1FEE7FFC
0F8E7FFC
ENDCHAR
STARTCHAR 01C7
ENCODING 455
SWIDTH 833 0
DWIDTH 25 0
BBX 20 28 3 -6
BITMAP
E00070
E00070
E00070
E00070
E00070
E00070
E00070
E00070
E00070
E00070
E00070
E00070
E00070
E00070
E00070
E00070
E00070
E00070
E00070
FFFC70
FFFC70
FFFC70
000070
0000F0
0001E0
000FE0
000FC0
000F00
ENDCHAR
STARTCHAR 01C8
ENCODING 456
SWIDTH 800 0
DWIDTH 24 0
BBX 19 29 3 -6
BITMAP
0000E0
E000E0
E000E0
E00000
E00000
E00000
E00000
E000E0
E000E0
E000E0
E000E0
E000E0
E000E0
E000E0
E000E0
E000E0
E000E0
E000E0
E000E0
E000E0
FFFCE0
FFFCE0
FFFCE0
0000E0
0000E0
0001E0
0007C0
0007C0
000700
ENDCHAR
STARTCHAR 01C9
ENCODING 457
SWIDTH 466 0
DWIDTH 14 0
BBX 8 29 3 -6
BITMAP
E7
E7
E7
E0
E0
E0
E0
E7
E7
E7
E7
E7
E7
E7
E7
E7
E7
E7
E7
E7
E7
E7
E7
07
07
0F
3E
3E
38
ENDCHAR
STARTCHAR 01CA
ENCODING 458
SWIDTH 933 0
DWIDTH 28 0
BBX 23 28 3 -6
BITMAP
F0038E
F8038E
FC038E
FC038E
FE038E
EE038E
EF038E
E7038E
E7838E
E3838E
E1C38E
E1E38E
E0E38E
E0F38E
E0738E
E07B8E
E03B8E
E03F8E
E01F8E
E00F8E
E00F8E
E0078E
00000E
00001E
00003C
0001FC
0001F8
0001E0
ENDCHAR
STARTCHAR 01CB
ENCODING 459
SWIDTH 933 0
DWIDTH 28 0
BBX 23 29 3 -6
BITMAP
00000E
F0038E
F8038E
FC0380
FC0380
FE0380
EE0380
EF038E
E7038E
E7838E
E3838E
E1C38E
E1E38E
E0E38E
E0F38E
E0738E
E07B8E
E03B8E
E03F8E
E01F8E
E00F8E
E00F8E
E0078E
00000E
00000E
00001E
00007C
00007C
000070
ENDCHAR
STARTCHAR 01CC
ENCODING 460
SWIDTH 800 0
DWIDTH 24 0
BBX 19 29 3 -6
BITMAP
0000E0
0000E0
0000E0
000000
000000
000000
000000
E3E0E0
EFF0E0
FFF8E0
F83CE0
F01CE0
E01CE0
E01CE0
E01CE0
E01CE0
E01CE0
E01CE0
E01CE0
E01CE0
E01CE0
E01CE0
E01CE0
0000E0
0000E0
0001E0
0007C0
0007C0
000700
ENDCHAR
STARTCHAR 01CD
ENCODING 461
SWIDTH 700 0
DWIDTH 21 0
BBX 20 27 0 0
BITMAP
030C00
019800
01F800
00F000
000000
00F000
00F000
01F800
01F800
01F800
039C00
039C00
079E00
070E00
070E00
0F0F00
0E0700
0E0700
1C0380
1FFF80
3FFFC0
3FFFC0
3801C0
7801E0
7000E0
7000E0
E00070
ENDCHAR
STARTCHAR 01CE
ENCODING 462
SWIDTH 600 0
DWIDTH 18 0
BBX 14 24 2 0
BITMAP
1860
0CC0
0CC0
0780
0780
0300
0000
0000
1FC0
7FF0
7FF8
6078
001C
001C
0FFC
3FFC
7FFC
F01C
E01C
E03C
F07C
7FFC
7FDC
1F1C
ENDCHAR
STARTCHAR 01CF
ENCODING 463
SWIDTH 300 0
DWIDTH 9 0
BBX 9 27 0 0
BITMAP
E380
6300
3600
1C00
0000
1C00
1C00
1C00
1C00
1C00
1C00
1C00
1C00
1C00
1C00
1C00
1C00
1C00
1C00
1C00
1C00
1C00
1C00
1C00
1C00
1C00
1C00
ENDCHAR
STARTCHAR 01D0
ENCODING 464
SWIDTH 266 0
DWIDTH 8 0
BBX 9 24 0 0
BITMAP
C180
6300
7700
3600
1C00
1C00
0000
0000
1C00
1C00
1C00
1C00
1C00
1C00
1C00
1C00
1C00
1C00
1C00
1C00
1C00
1C00
1C00
1C00
ENDCHAR
STARTCHAR 01D1
ENCODING 465
SWIDTH 800 0
DWIDTH 24 0
BBX 20 27 2 0
BITMAP
071C00
031800
01B000
00E000
000000
01F800
0FFE00
1FFF80
3E07C0
3C03C0
7801E0
7000E0
F000F0
E00070
E00070
E00070
E00070
E00070
E00070
F000F0
7000E0
7801E0
3C03C0
3E07C0
1FFF80
0FFF00
01F800
ENDCHAR
STARTCHAR 01D2
ENCODING 466
SWIDTH 600 0
DWIDTH 18 0
BBX 15 24 2 0
BITMAP
1830
0C60
0EE0
06C0
0380
0380
0000
0000
0FE0
1FF0
3FF8
783C
701C
E01E
E00E
E00E
E00E
E00E
E01E
701C
783C
3FF8
1FF0
0FE0
ENDCHAR
STARTCHAR 01D3
ENCODING 467
SWIDTH 733 0
DWIDTH 22 0
BBX 17 27 3 0
BITMAP
0E3800
063000
036000
01C000
000000
E00380
E00380
E00380
E00380
E00380
E00380
E00380
E00380
E00380
E00380
E00380
E00380
E00380
E00380
E00380
E00380
F00780
700700
7C1F00
3FFE00
1FFC00
07F000
ENDCHAR
STARTCHAR 01D4
ENCODING 468
SWIDTH 633 0
DWIDTH 19 0
BBX 14 24 3 0
BITMAP
1860
1860
0CC0
0780
0780
0300
0000
0000
E01C
E01C
E01C
E01C
E01C
E01C
E01C
E01C
E01C
E01C
E01C
E03C
F07C
7FFC
3FDC
1F1C
ENDCHAR
STARTCHAR 01D5
ENCODING 469
SWIDTH 733 0
DWIDTH 22 0
BBX 17 30 3 0
BITMAP
0FF800
0FF800
0FF800
0E3800
0E3800
0E3800
000000
000000
E00380
E00380
E00380
E00380
E00380
E00380
E00380
E00380
E00380
E00380
E00380
E00380
E00380
E00380
E00380
E00380
F00780
700700
7C1F00
3FFE00
1FFC00
07F000
ENDCHAR
STARTCHAR 01D6
ENCODING 470
SWIDTH 633 0
DWIDTH 19 0
BBX 14 27 3 0
BITMAP
3FE0
3FE0
3FE0
0000
1CE0
1CE0
1CE0
0000
0000
0000
0000
E01C
E01C
E01C
E01C
E01C
E01C
E01C
E01C
E01C
E01C
E01C
E03C
F07C
7FFC
3FDC
1F1C
ENDCHAR
STARTCHAR 01D7
ENCODING 471
SWIDTH 733 0
DWIDTH 22 0
BBX 17 31 3 0
BITMAP
003000
006000
00C000
01C000
0E3800
0E3800
0E3800
000000
000000
E00380
E00380
E00380
E00380
E00380
E00380
E00380
E00380
E00380
E00380
E00380
E00380
E00380
E00380
E00380
E00380
F00780
700700
7C1F00
3FFE00
1FFC00
07F000
ENDCHAR
STARTCHAR 01D8
ENCODING 472
SWIDTH 633 0
DWIDTH 19 0
BBX 14 26 3 0
BITMAP
00C0
0180
0300
0700
38E0
38E0
38E0
0000
0000
0000
E01C
E01C
E01C
E01C
E01C
E01C
E01C
E01C
E01C
E01C
E01C
E03C
F07C
7FFC
3FDC
1F1C
ENDCHAR
STARTCHAR 01D9
ENCODING 473
SWIDTH 733 0
DWIDTH 22 0
BBX 17 31 3 0
BITMAP
0E3800
063000
036000
01C000
0E3800
0E3800
0E3800
000000
000000
E00380
E00380
E00380
E00380
E00380
E00380
E00380
E00380
E00380
E00380
E00380
E00380
E00380
E00380
E00380
E00380
F00780
700700
7C1F00
3FFE00
1FFC00
07F000
ENDCHAR
STARTCHAR 01DA
ENCODING 474
SWIDTH 633 0
DWIDTH 19 0
BBX 14 26 3 0
BITMAP
38E0
18C0
0D80
0700
38E0
38E0
38E0
0000
0000
0000
E01C
E01C
E01C
E01C
E01C
E01C
E01C
E01C
E01C
E01C
E01C
E03C
F07C
7FFC
3FDC
1F1C
ENDCHAR
STARTCHAR 01DB
ENCODING 475
SWIDTH 733 0
DWIDTH 22 0
BBX 17 31 3 0
BITMAP
0E0000
070000
038000
018000
0E3800
0E3800
0E3800
000000
000000
E00380
E00380
E00380
E00380
E00380
E00380
E00380
E00380
E00380
E00380
E00380
E00380
E00380
E00380
E00380
E00380
F00780
700700
7C1F00
3FFE00
1FFC00
07F000
ENDCHAR
STARTCHAR 01DC
ENCODING 476
SWIDTH 633 0
DWIDTH 19 0
BBX 14 26 3 0
BITMAP
3800
1C00
0E00
0600
38E0
38E0
38E0
0000
0000
0000
E01C
E01C
E01C
E01C
E01C
E01C
E01C
E01C
E01C
E01C
E01C
E03C
F07C
7FFC
3FDC
1F1C
ENDCHAR
STARTCHAR 01DD
ENCODING 477
SWIDTH 600 0
DWIDTH 18 0
BBX 15 16 2 0
BITMAP
0FC0
3FF0
7FF8
703C
401C
000E
FFFE
FFFE
FFFE
E00E
E00E
701C
783C
3FF8
1FF0
0FC0
ENDCHAR
STARTCHAR 01DE
ENCODING 478
SWIDTH 700 0
DWIDTH 21 0
BBX 20 30 0 0
BITMAP
03FE00
03FE00
03FE00
038E00
038E00
038E00
000000
000000
00F000
00F000
01F800
01F800
01F800
039C00
039C00
079E00
070E00
070E00
0F0F00
0E0700
0E0700
1C0380
1FFF80
3FFFC0
3FFFC0
3801C0
7801E0
7000E0
7000E0
E00070
ENDCHAR
STARTCHAR 01DF
ENCODING 479
SWIDTH 600 0
DWIDTH 18 0
BBX 14 27 2 0
BITMAP
3FE0
3FE0
3FE0
0000
1CE0
1CE0
1CE0
0000
0000
0000
0000
1FC0
7FF0
7FF8
6078
001C
001C
0FFC
3FFC
7FFC
F01C
E01C
E03C
F07C
7FFC
7FDC
1F1C
ENDCHAR
STARTCHAR 01E0
ENCODING 480
SWIDTH 700 0
DWIDTH 21 0
BBX 20 30 0 0
BITMAP
03FE00
03FE00
03FE00
007000
007000
007000
000000
000000
00F000
00F000
01F800
01F800
01F800
039C00
039C00
079E00
070E00
070E00
0F0F00
0E0700
0E0700
1C0380
1FFF80
3FFFC0
3FFFC0
3801C0
7801E0
7000E0
7000E0
E00070
ENDCHAR
STARTCHAR 01E1
ENCODING 481
SWIDTH 600 0
DWIDTH 18 0
BBX 14 25 2 0
BITMAP
3FE0
3FE0
3FE0
0700
0700
0700
0000
0000
0000
1FC0
7FF0
7FF8
6078
001C
001C
0FFC
3FFC
7FFC
F01C
E01C
E03C
F07C
7FFC
7FDC
1F1C
ENDCHAR
STARTCHAR 01E2
ENCODING 482
SWIDTH 966 0
DWIDTH 29 0
BBX 27 27 0 0
BITMAP
0003FE00
0003FE00
0003FE00
00000000
00000000
007FFFE0
00FFFFE0
00FFFFE0
00E70000
01E70000
01C70000
03C70000
03870000
03870000
0707FFC0
0707FFC0
0F07FFC0
0E070000
1E070000
1FFF0000
1FFF0000
3FFF0000
38070000
78070000
7007FFE0
7007FFE0
E007FFE0
ENDCHAR
STARTCHAR 01E3
ENCODING 483
SWIDTH 966 0
DWIDTH 29 0
BBX 26 22 2 0
BITMAP
00FF8000
00FF8000
00FF8000
00000000
00000000
00000000
1FC0FC00
7FF3FE00
7FFFFF00
607F0780
001E01C0
001C01C0
0FFFFFC0
3FFFFFC0
7FFFFFC0
F01C0000
E01C0000
E03E0080
F07F0380
7FE7FF80
7FC3FF00
1F80FC00
ENDCHAR
STARTCHAR 01E4
ENCODING 484
SWIDTH 766 0
DWIDTH 23 0
BBX 21 22 2 0
BITMAP
01FE00
07FF80
1FFFC0
3E01C0
3C0040
780000
700000
F00000
E00000
E00000
E01FC0
E01FE0
E01FE0
E000E0
F00FF8
7000E0
7800E0
3C00E0
3F03E0
1FFFC0
07FF80
01FC00
ENDCHAR
STARTCHAR 01E5
ENCODING 485
SWIDTH 633 0
DWIDTH 19 0
BBX 17 22 2 -6
BITMAP
0F8E00
1FEE00
3FFE00
783E00
701E00
E00E00
E00E00
E00E00
E00E00
E00E00
E00E00
701E00
783E00
3FFE00
3FEE00
0F8E00
3FFF80
001C00
207C00
3FF800
3FF000
1FC000
ENDCHAR
STARTCHAR 01E6
ENCODING 486
SWIDTH 766 0
DWIDTH 23 0
BBX 19 27 2 0
BITMAP
038600
01CC00
00D800
007000
000000
01FE00
07FF80
1FFFC0
3E01C0
3C0040
780000
700000
F00000
E00000
E00000
E01FE0
E01FE0
E01FE0
E000E0
F000E0
7000E0
7800E0
3C00E0
3F01E0
1FFFC0
07FF80
01FC00
ENDCHAR
STARTCHAR 01E7
ENCODING 487
SWIDTH 633 0
DWIDTH 19 0
BBX 15 30 2 -6
BITMAP
3060
18C0
1DC0
0D80
0700
0700
0000
0000
0F8E
1FEE
3FFE
783E
701E
E00E
E00E
E00E
E00E
E00E
E00E
701E
783E
3FFE
3FEE
0F8E
001E
001C
207C
3FF8
3FF0
1FE0
ENDCHAR
STARTCHAR 01E8
ENCODING 488
SWIDTH 666 0
DWIDTH 20 0
BBX 17 27 3 0
BITMAP
38E000
18C000
0D8000
070000
000000
E01F00
E03E00
E07800
E0F000
E1E000
E3C000
E78000
EF0000
FE0000
FC0000
FC0000
FE0000
EF0000
E78000
E3C000
E1E000
E1F000
E0F800
E07C00
E03E00
E01F00
E00F80
ENDCHAR
STARTCHAR 01E9
ENCODING 489
SWIDTH 566 0
DWIDTH 17 0
BBX 17 27 0 0
BITMAP
E38000
630000
360000
1C0000
1C0000
1C0000
1C0000
1C0000
1C0000
1C0000
1C0000
1C0780
1C1F00
1C3E00
1C7C00
1CF800
1DE000
1FC000
1F8000
1FC000
1DE000
1CF000
1C7800
1C3C00
1C1E00
1C0F00
1C0780
ENDCHAR
STARTCHAR 01EA
ENCODING 490
SWIDTH 800 0
DWIDTH 24 0
BBX 20 28 2 -6
BITMAP
01F800
0FFE00
1FFF80
3E07C0
3C03C0
7801E0
7000E0
F000F0
E00070
E00070
E00070
E00070
E00070
E00070
F000F0
7000E0
7801E0
3C03C0
3E07C0
1FFF80
0FFF00
01F800
007000
006000
00E000
00E000
00F800
007800
ENDCHAR
STARTCHAR 01EB
ENCODING 491
SWIDTH 600 0
DWIDTH 18 0
BBX 15 22 2 -6
BITMAP
0FE0
1FF0
3FF8
783C
701C
E01E
E00E
E00E
E00E
E00E
E01E
701C
783C
3FF8
1FF0
0FE0
0380
0300
0700
0700
07C0
03C0
ENDCHAR
STARTCHAR 01EC
ENCODING 492
SWIDTH 800 0
DWIDTH 24 0
BBX 20 33 2 -6
BITMAP
07FC00
07FC00
07FC00
000000
000000
01F800
0FFE00
1FFF80
3E07C0
3C03C0
7801E0
7000E0
F000F0
E00070
E00070
E00070
E00070
E00070
E00070
F000F0
7000E0
7801E0
3C03C0
3E07C0
1FFF80
0FFF00
01F800
007000
006000
00E000
00E000
00F800
007800
ENDCHAR
STARTCHAR 01ED
ENCODING 493
SWIDTH 600 0
DWIDTH 18 0
BBX 15 28 2 -6
BITMAP
1FF0
1FF0
1FF0
0000
0000
0000
0FE0
1FF0
3FF8
783C
701C
E01E
E00E
E00E
E00E
E00E
E01E
701C
783C
3FF8
1FF0
0FE0
0380
0300
0700
0700
07C0
03C0
ENDCHAR
STARTCHAR 01EE
ENCODING 494
SWIDTH 666 0
DWIDTH 20 0
BBX 16 27 3 0
BITMAP
1C70
0C60
06C0
0380
0000
FFFE
FFFE
FFFE
003C
0078
00F0
01F0
01E0
03C0
07E0
07F8
07FC
001E
000F
0007
0007
0007
800F
E01E
FFFE
7FF8
0FE0
ENDCHAR
STARTCHAR 01EF
ENCODING 495
SWIDTH 566 0
DWIDTH 17 0
BBX 14 30 1 -6
BITMAP
3060
18C0
1DC0
0D80
0700
0700
0000
0000
FFF8
FFF8
FFF8
00F0
01E0
03C0
0380
0780
0F00
0FC0
0FE0
0FF8
0078
003C
001C
001C
001C
003C
8078
FFF8
FFF0
3F80
ENDCHAR
STARTCHAR 01F0
ENCODING 496
SWIDTH 266 0
DWIDTH 8 0
BBX 9 30 0 -6
BITMAP
C180
6300
7700
3600
1C00
1C00
0000
0000
1C00
1C00
1C00
1C00
1C00
1C00
1C00
1C00
1C00
1C00
1C00
1C00
1C00
1C00
1C00
1C00
1C00
1C00
3C00
F800
F800
E000
ENDCHAR
STARTCHAR 01F1
ENCODING 497
SWIDTH 1433 0
DWIDTH 43 0
BBX 37 22 3 0
BITMAP
FFE01FFFF8
FFF81FFFF8
FFFE1FFFF8
E03F0000F0
E00F8001E0
E0078003C0
E0038003C0
E001C00780
E001C00F00
E001C01E00
E001C03C00
E001C03C00
E001C07800
E001C0F000
E003C1E000
E00383C000
E00783C000
E00F878000
E03F0F0000
FFFE1FFFF8
FFF81FFFF8
FFE01FFFF8
ENDCHAR
STARTCHAR 01F2
ENCODING 498
SWIDTH 1300 0
DWIDTH 39 0
BBX 33 22 3 0
BITMAP
FFE0000000
FFF8000000
FFFE000000
E03F000000
E00F800000
E007800000
E0038FFF80
E001CFFF80
E001CFFF80
E001C00F00
E001C01E00
E001C01E00
E001C03C00
E001C07800
E003C0F000
E00381E000
E00781E000
E00F83C000
E03F078000
FFFE0FFF80
FFF80FFF80
FFE00FFF80
ENDCHAR
STARTCHAR 01F3
ENCODING 499
SWIDTH 1166 0
DWIDTH 35 0
BBX 30 23 2 0
BITMAP
000E0000
000E0000
000E0000
000E0000
000E0000
000E0000
000E0000
0F8E7FFC
1FEE7FFC
3FFE7FFC
783E0078
701E00F0
E01E00F0
E00E01E0
E00E03C0
E00E0780
E00E0F00
E00E0F00
701E1E00
783E3C00
3FFE7FFC
1FEE7FFC
0F8E7FFC
ENDCHAR
STARTCHAR 01F4
ENCODING 500
SWIDTH 766 0
DWIDTH 23 0
BBX 19 27 2 0
BITMAP
003000
006000
00C000
01C000
000000
01FE00
07FF80
1FFFC0
3E01C0
3C0040
780000
700000
F00000
E00000
E00000
E01FE0
E01FE0
E01FE0
E000E0
F000E0
7000E0
7800E0
3C00E0
3F01E0
1FFFC0
07FF80
01FC00
ENDCHAR
STARTCHAR 01F5
ENCODING 501
SWIDTH 633 0
DWIDTH 19 0
BBX 15 30 2 -6
BITMAP
01C0
0380
0700
0600
0C00
1C00
0000
0000
0F8E
1FEE
3FFE
783E
701E
E00E
E00E
E00E
E00E
E00E
E00E
701E
783E
3FFE
3FEE
0F8E
001E
001C
207C
3FF8
3FF0
1FE0
ENDCHAR
STARTCHAR 01F6
ENCODING 502
SWIDTH 1100 0
DWIDTH 33 0
BBX 28 22 3 0
BITMAP
E0038000
E0038000
E0038000
E0038000
E0038000
E0038070
E0038070
E0038070
E0038070
FFFF8070
FFFF8070
FFFF8070
E0038070
E0038070
E0038070
E0038070
E0038070
E003C0F0
E003E1E0
E001FFE0
E000FFC0
E0007F80
ENDCHAR
STARTCHAR 01F7
ENCODING 503
SWIDTH 700 0
DWIDTH 21 0
BBX 16 28 3 -6
BITMAP
E1F8
E7FE
FFFE
FE1F
F80F
E007
E007
E007
E007
E00E
E01E
E03C
E078
E0F0
E1E0
E7C0
FF80
FE00
FC00
F000
E000
E000
E000
E000
E000
E000
E000
E000
ENDCHAR
STARTCHAR 01F8
ENCODING 504
SWIDTH 733 0
DWIDTH 22 0
BBX 17 27 3 0
BITMAP
070000
038000
01C000
00C000
000000
F00380
F80380
FC0380
FC0380
FE0380
EE0380
EF0380
E70380
E78380
E38380
E1C380
E1E380
E0E380
E0F380
E07380
E07B80
E03B80
E03F80
E01F80
E01F80
E00F80
E00780
ENDCHAR
STARTCHAR 01F9
ENCODING 505
SWIDTH 633 0
DWIDTH 19 0
BBX 14 24 3 0
BITMAP
0E00
0700
0380
0180
00C0
00E0
0000
0000
E3E0
EFF0
FFF8
F83C
F01C
E01C
E01C
E01C
E01C
E01C
E01C
E01C
E01C
E01C
E01C
E01C
ENDCHAR
STARTCHAR 01FA
ENCODING 506
SWIDTH 700 0
DWIDTH 21 0
BBX 20 28 0 0
BITMAP
00F060
01F8C0
039D80
030F80
030C00
039C00
01F800
00F000
01F000
01F800
01F800
03FC00
039C00
039C00
070E00
070E00
0F0F00
0E0700
0E0700
1C0380
1FFF80
3FFF80
3FFFC0
3801C0
7801E0
7000E0
7000E0
E00070
ENDCHAR
STARTCHAR 01FB
ENCODING 507
SWIDTH 600 0
DWIDTH 18 0
BBX 15 28 2 0
BITMAP
0006
000C
0798
0FF8
1CE0
1860
1860
1CE0
0FC0
0780
0000
0000
1FC0
7FF0
7FF8
6078
001C
001C
0FFC
3FFC
7FFC
F01C
E01C
E03C
F07C
7FFC
7FDC
1F1C
ENDCHAR
STARTCHAR 01FC
ENCODING 508
SWIDTH 966 0
DWIDTH 29 0
BBX 27 27 0 0
BITMAP
00006000
0000C000
00018000
00038000
00000000
007FFFE0
00FFFFE0
00FFFFE0
00E70000
01E70000
01C70000
03C70000
03870000
03870000
0707FFC0
0707FFC0
0F07FFC0
0E070000
1E070000
1FFF0000
1FFF0000
3FFF0000
38070000
78070000
7007FFE0
7007FFE0
E007FFE0
ENDCHAR
STARTCHAR 01FD
ENCODING 509
SWIDTH 966 0
DWIDTH 29 0
BBX 26 24 2 0
BITMAP
000E0000
001C0000
00380000
00300000
00600000
00E00000
00000000
00000000
1FC0FC00
7FF3FE00
7FFFFF00
607F0780
001E01C0
001C01C0
0FFFFFC0
3FFFFFC0
7FFFFFC0
F01C0000
E01C0000
E03E0080
F07F0380
7FE7FF80
7FC3FF00
1F80FC00
ENDCHAR
STARTCHAR 01FE
ENCODING 510
SWIDTH 800 0
DWIDTH 24 0
BBX 20 27 2 -1
BITMAP
003000
006000
00C000
01C000
000000
01F830
0FFE70
1FFF60
3E07C0
3C03C0
7803E0
7007E0
F00EE0
E01C70
E03870
E07070
E0E070
E1C070
E38070
E700F0
7E00E0
7C01E0
3C03C0
3E07C0
6FFF80
E7FF00
C1F800
ENDCHAR
STARTCHAR 01FF
ENCODING 511
SWIDTH 600 0
DWIDTH 18 0
BBX 15 25 2 -1
BITMAP
01C0
0380
0700
0600
0C00
1C00
0000
0002
0FC6
3FEE
3FFC
7838
F03C
E06C
E0CE
E18E
E30E
E60E
EC1E
781E
383C
7FF8
FFF0
C7E0
8000
ENDCHAR
STARTCHAR 0200
ENCODING 512
SWIDTH 700 0
DWIDTH 21 0
BBX 20 28 0 1
BITMAP
063000
031800
018C00
01CE00
000000
000000
00F000
00F000
01F800
01F800
01F800
039C00
039C00
079E00
070E00
070E00
0F0F00
0E0700
0E0700
1C0380
1FFF80
3FFFC0
3FFFC0
3801C0
7801E0
7000E0
7000E0
E00070
ENDCHAR
STARTCHAR 0201
ENCODING 513
SWIDTH 600 0
DWIDTH 18 0
BBX 14 24 2 0
BITMAP
39C0
18C0
0CE0
0E60
0660
0330
0000
0000
1FC0
7FF0
7FF8
6078
001C
001C
0FFC
3FFC
7FFC
F01C
E01C
E03C
F07C
7FFC
7FDC
1F1C
ENDCHAR
STARTCHAR 0202
ENCODING 514
SWIDTH 700 0
DWIDTH 21 0
BBX 20 27 0 1
BITMAP
01FC00
03FE00
030600
000000
000000
00F000
00F000
01F800
01F800
01F800
039C00
039C00
079E00
070E00
070E00
0F0F00
0E0700
0E0700
1C0380
1FFF80
3FFFC0
3FFFC0
3801C0
7801E0
7000E0
7000E0
E00070
ENDCHAR
STARTCHAR 0203
ENCODING 515
SWIDTH 600 0
DWIDTH 18 0
BBX 14 23 2 0
BITMAP
0F80
1FC0
38E0
3060
0000
0000
0000
1FC0
7FF0
7FF8
6078
001C
001C
0FFC
3FFC
7FFC
F01C
E01C
E03C
F07C
7FFC
7FDC
1F1C
ENDCHAR
STARTCHAR 0204
ENCODING 516
SWIDTH 633 0
DWIDTH 19 0
BBX 14 28 3 1
BITMAP
6300
3180
18C0
1CE0
0000
0000
FFFC
FFFC
FFFC
E000
E000
E000
E000
E000
E000
FFF8
FFF8
FFF8
E000
E000
E000
E000
E000
E000
E000
FFFC
FFFC
FFFC
ENDCHAR
STARTCHAR 0205
ENCODING 517
SWIDTH 600 0
DWIDTH 18 0
BBX 15 24 2 0
BITMAP
1CE0
0C60
0670
0730
0330
0198
0000
0000
07E0
1FF8
3FFC
783C
701E
E00E
FFFE
FFFE
FFFE
E000
E000
7004
7C1C
3FFC
1FF8
07E0
ENDCHAR
STARTCHAR 0206
ENCODING 518
SWIDTH 633 0
DWIDTH 19 0
BBX 14 27 3 1
BITMAP
1FC0
3FE0
3060
0000
0000
FFFC
FFFC
FFFC
E000
E000
E000
E000
E000
E000
FFF8
FFF8
FFF8
E000
E000
E000
E000
E000
E000
E000
FFFC
FFFC
FFFC
ENDCHAR
STARTCHAR 0207
ENCODING 519
SWIDTH 600 0
DWIDTH 18 0
BBX 15 23 2 0
BITMAP
07C0
0FE0
1C70
1830
0000
0000
0000
07E0
1FF8
3FFC
783C
701E
E00E
FFFE
FFFE
FFFE
E000
E000
7004
7C1C
3FFC
1FF8
07E0
ENDCHAR
STARTCHAR 0208
ENCODING 520
SWIDTH 300 0
DWIDTH 9 0
BBX 10 28 0 1
BITMAP
C600
6300
3180
39C0
0000
0000
1C00
1C00
1C00
1C00
1C00
1C00
1C00
1C00
1C00
1C00
1C00
1C00
1C00
1C00
1C00
1C00
1C00
1C00
1C00
1C00
1C00
1C00
ENDCHAR
STARTCHAR 0209
ENCODING 521
SWIDTH 266 0
DWIDTH 8 0
BBX 10 24 0 0
BITMAP
E700
6300
3380
3980
1980
0CC0
0000
0000
1C00
1C00
1C00
1C00
1C00
1C00
1C00
1C00
1C00
1C00
1C00
1C00
1C00
1C00
1C00
1C00
ENDCHAR
STARTCHAR 020A
ENCODING 522
SWIDTH 300 0
DWIDTH 9 0
BBX 9 27 0 1
BITMAP
7F00
FF80
C180
0000
0000
1C00
1C00
1C00
1C00
1C00
1C00
1C00
1C00
1C00
1C00
1C00
1C00
1C00
1C00
1C00
1C00
1C00
1C00
1C00
1C00
1C00
1C00
ENDCHAR
STARTCHAR 020B
ENCODING 523
SWIDTH 266 0
DWIDTH 8 0
BBX 9 23 0 0
BITMAP
3E00
7F00
E380
C180
0000
0000
0000
1C00
1C00
1C00
1C00
1C00
1C00
1C00
1C00
1C00
1C00
1C00
1C00
1C00
1C00
1C00
1C00
ENDCHAR
STARTCHAR 020C
ENCODING 524
SWIDTH 800 0
DWIDTH 24 0
BBX 20 28 2 1
BITMAP
063000
031800
018C00
01CE00
000000
000000
01F800
0FFE00
1FFF80
3E07C0
3C03C0
7801E0
7000E0
F000F0
E00070
E00070
E00070
E00070
E00070
E00070
F000F0
7000E0
7801E0
3C03C0
3E07C0
1FFF80
0FFF00
01F800
ENDCHAR
STARTCHAR 020D
ENCODING 525
SWIDTH 600 0
DWIDTH 18 0
BBX 15 24 2 0
BITMAP
39C0
18C0
0CE0
0E60
0660
0330
0000
0000
0FE0
1FF0
3FF8
783C
701C
E01E
E00E
E00E
E00E
E00E
E01E
701C
783C
3FF8
1FF0
0FE0
ENDCHAR
STARTCHAR 020E
ENCODING 526
SWIDTH 800 0
DWIDTH 24 0
BBX 20 27 2 1
BITMAP
03F800
07FC00
060C00
000000
000000
01F800
0FFE00
1FFF80
3E07C0
3C03C0
7801E0
7000E0
F000F0
E00070
E00070
E00070
E00070
E00070
E00070
F000F0
7000E0
7801E0
3C03C0
3E07C0
1FFF80
0FFF00
01F800
ENDCHAR
STARTCHAR 020F
ENCODING 527
SWIDTH 600 0
DWIDTH 18 0
BBX 15 23 2 0
BITMAP
07C0
0FE0
1C70
1830
0000
0000
0000
0FE0
1FF0
3FF8
783C
701C
E01E
E00E
E00E
E00E
E00E
E01E
701C
783C
3FF8
1FF0
0FE0
ENDCHAR
STARTCHAR 0210
ENCODING 528
SWIDTH 700 0
DWIDTH 21 0
BBX 17 28 3 1
BITMAP
630000
318000
18C000
1CE000
000000
000000
FFC000
FFF000
FFF800
E07C00
E03C00
E01C00
E01C00
E01C00
E03C00
E07800
FFF800
FFE000
FFE000
E0F000
E07800
E03C00
E01C00
E01E00
E00E00
E00F00
E00700
E00780
ENDCHAR
STARTCHAR 0211
ENCODING 529
SWIDTH 400 0
DWIDTH 12 0
BBX 10 24 3 0
BITMAP
E700
6300
3380
3980
1980
0CC0
0000
0000
E3C0
EFC0
FFC0
F800
F000
E000
E000
E000
E000
E000
E000
E000
E000
E000
E000
E000
ENDCHAR
STARTCHAR 0212
ENCODING 530
SWIDTH 700 0
DWIDTH 21 0
BBX 17 27 3 1
BITMAP
1FC000
3FE000
306000
000000
000000
FFC000
FFF000
FFF800
E07C00
E03C00
E01C00
E01C00
E01C00
E03C00
E07800
FFF800
FFE000
FFE000
E0F000
E07800
E03C00
E01C00
E01E00
E00E00
E00F00
E00700
E00780
ENDCHAR
STARTCHAR 0213
ENCODING 531
SWIDTH 400 0
DWIDTH 12 0
BBX 10 23 3 0
BITMAP
1F00
3F80
71C0
60C0
0000
0000
0000
E3C0
EFC0
FFC0
F800
F000
E000
E000
E000
E000
E000
E000
E000
E000
E000
E000
E000
ENDCHAR
STARTCHAR 0214
ENCODING 532
SWIDTH 733 0
DWIDTH 22 0
BBX 17 28 3 1
BITMAP
18C000
0C6000
063000
073800
000000
000000
E00380
E00380
E00380
E00380
E00380
E00380
E00380
E00380
E00380
E00380
E00380
E00380
E00380
E00380
E00380
E00380
F00780
700700
7C1F00
3FFE00
1FFC00
07F000
ENDCHAR
STARTCHAR 0215
ENCODING 533
SWIDTH 633 0
DWIDTH 19 0
BBX 14 24 3 0
BITMAP
39C0
18C0
0CE0
0E60
0660
0330
0000
0000
E01C
E01C
E01C
E01C
E01C
E01C
E01C
E01C
E01C
E01C
E01C
E03C
F07C
7FFC
3FDC
1F1C
ENDCHAR
STARTCHAR 0216
ENCODING 534
SWIDTH 733 0
DWIDTH 22 0
BBX 17 27 3 1
BITMAP
0FE000
1FF000
183000
000000
000000
E00380
E00380
E00380
E00380
E00380
E00380
E00380
E00380
E00380
E00380
E00380
E00380
E00380
E00380
E00380
E00380
F00780
700700
7C1F00
3FFE00
1FFC00
07F000
ENDCHAR
STARTCHAR 0217
ENCODING 535
SWIDTH 633 0
DWIDTH 19 0
BBX 14 23 3 0
BITMAP
07C0
0FE0
1C70
1830
0000
0000
0000
E01C
E01C
E01C
E01C
E01C
E01C
E01C
E01C
E01C
E01C
E01C
E03C
F07C
7FFC
3FDC
1F1C
ENDCHAR
STARTCHAR 0218
ENCODING 536
SWIDTH 633 0
DWIDTH 19 0
BBX 15 30 2 -8
BITMAP
0FF0
3FFC
7FFC
780C
F000
E000
E000
E000
F800
7F80
3FF0
0FF8
00FC
001E
000E
000E
000E
001E
C03C
FFFC
FFF8
3FE0
0000
0000
0000
0380
0380
0300
0300
0600
ENDCHAR
STARTCHAR 0219
ENCODING 537
SWIDTH 533 0
DWIDTH 16 0
BBX 12 24 2 -8
BITMAP
1FC0
7FE0
FFE0
F020
E000
E000
7C00
3FC0
03E0
0070
0070
8070
E0F0
FFE0
7FE0
1F80
0000
0000
0000
0700
0700
0600
0600
0C00
ENDCHAR
STARTCHAR 021A
ENCODING 538
SWIDTH 600 0
DWIDTH 18 0
BBX 19 30 0 -8
BITMAP
FFFFE0
FFFFE0
FFFFE0
00E000
00E000
00E000
00E000
00E000
00E000
00E000
00E000
00E000
00E000
00E000
00E000
00E000
00E000
00E000
00E000
00E000
00E000
00E000
000000
000000
000000
01C000
01C000
018000
018000
030000
ENDCHAR
STARTCHAR 021B
ENCODING 539
SWIDTH 400 0
DWIDTH 12 0
BBX 11 29 1 -8
BITMAP
3800
3800
3800
3800
3800
FFE0
FFE0
FFE0
3800
3800
3800
3800
3800
3800
3800
3800
3800
3C00
3FE0
1FE0
07E0
0000
0000
0000
0700
0700
0600
0600
0C00
ENDCHAR
STARTCHAR 021C
ENCODING 540
SWIDTH 633 0
DWIDTH 19 0
BBX 15 28 2 -6
BITMAP
0FE0
3FF8
7878
603C
401C
001C
001C
001C
003C
0038
0070
01E0
07E0
1FF8
1C3C
001C
000E
000E
000E
001C
003C
0038
00F0
01E0
07C0
3F00
FC00
E000
ENDCHAR
STARTCHAR 021D
ENCODING 541
SWIDTH 533 0
DWIDTH 16 0
BBX 13 23 1 -7
BITMAP
0780
3FE0
78F0
4070
0038
0038
0030
0070
00E0
01C0
0FC0
3FF0
3030
0038
0038
0038
0038
0070
01E0
03C0
1F00
FC00
E000
ENDCHAR
STARTCHAR 021E
ENCODING 542
SWIDTH 766 0
DWIDTH 23 0
BBX 17 27 3 0
BITMAP
0E3800
063000
036000
01C000
000000
E00380
E00380
E00380
E00380
E00380
E00380
E00380
E00380
E00380
FFFF80
FFFF80
FFFF80
E00380
E00380
E00380
E00380
E00380
E00380
E00380
E00380
E00380
E00380
ENDCHAR
STARTCHAR 021F
ENCODING 543
SWIDTH 633 0
DWIDTH 19 0
BBX 17 27 0 0
BITMAP
E38000
630000
360000
1C0000
1C0000
1C0000
1C0000
1C0000
1C0000
1C0000
1C0000
1C7C00
1DFE00
1FFF00
1F0780
1E0380
1C0380
1C0380
1C0380
1C0380
1C0380
1C0380
1C0380
1C0380
1C0380
1C0380
1C0380
ENDCHAR
STARTCHAR 0220
ENCODING 544
SWIDTH 733 0
DWIDTH 22 0
BBX 16 28 3 -5
BITMAP
E3F0
E7FC
EFFC
FC1E
F80E
F00F
F007
E007
E007
E007
E007
E007
E007
E007
E007
E007
E007
E007
E007
E007
E007
E007
0007
0007
0007
0007
0007
0007
ENDCHAR
STARTCHAR 0221
ENCODING 545
SWIDTH 833 0
DWIDTH 25 0
BBX 21 25 2 -3
BITMAP
000C00
000C00
000C00
000C00
000C00
000C00
070C00
1FCC00
3FEC00
703C00
E01C00
E01C00
E01C00
E00C00
C00C00
C00C00
E01CF8
E01DF8
E01F98
703F98
787F38
3FEFF8
1FCFF0
000E00
001C00
ENDCHAR
STARTCHAR 0222
ENCODING 546
SWIDTH 700 0
DWIDTH 21 0
BBX 17 22 2 0
BITMAP
007800
001E00
1E0700
780380
F00380
E00380
E00380
F00780
780F00
3FFE00
0FF800
3FFE00
780F00
F00780
E00380
E00380
E00380
F00780
780F00
7FFF00
3FFE00
07F000
ENDCHAR
STARTCHAR 0223
ENCODING 547
SWIDTH 566 0
DWIDTH 17 0
BBX 13 19 2 0
BITMAP
E038
E038
E038
E038
E038
7070
3FE0
1FC0
7FF0
78F8
E078
E038
E038
E038
E078
F0F8
7FF0
3FE0
1FC0
ENDCHAR
STARTCHAR 0224
ENCODING 548
SWIDTH 700 0
DWIDTH 21 0
BBX 18 28 1 -6
BITMAP
FFFFC0
FFFFC0
FFFFC0
000780
000F00
001E00
001E00
003C00
007800
00F000
01E000
01E000
03C000
078000
0F0000
1E0000
1E0000
3C0000
780000
FFFFC0
FFFFC0
FFFFC0
0001C0
0001C0
0003C0
007F80
007F80
007E00
ENDCHAR
STARTCHAR 0225
ENCODING 549
SWIDTH 533 0
DWIDTH 16 0
BBX 13 22 1 -6
BITMAP
FFF8
FFF8
FFF8
00F0
01E0
01E0
03C0
0780
0F00
1E00
1E00
3C00
7800
FFF8
FFF8
FFF8
0038
0038
0078
0FF0
0FF0
0FC0
ENDCHAR
STARTCHAR 0226
ENCODING 550
SWIDTH 700 0
DWIDTH 21 0
BBX 20 27 0 0
BITMAP
007000
007000
007000
000000
000000
00F000
00F000
01F800
01F800
01F800
039C00
039C00
079E00
070E00
070E00
0F0F00
0E0700
0E0700
1C0380
1FFF80
3FFFC0
3FFFC0
3801C0
7801E0
7000E0
7000E0
E00070
ENDCHAR
STARTCHAR 0227
ENCODING 551
SWIDTH 600 0
DWIDTH 18 0
BBX 14 23 2 0
BITMAP
0700
0700
0700
0000
0000
0000
0000
1FC0
7FF0
7FF8
6078
001C
001C
0FFC
3FFC
7FFC
F01C
E01C
E03C
F07C
7FFC
7FDC
1F1C
ENDCHAR
STARTCHAR 0228
ENCODING 552
SWIDTH 633 0
DWIDTH 19 0
BBX 14 28 3 -6
BITMAP
FFFC
FFFC
FFFC
E000
E000
E000
E000
E000
E000
FFF8
FFF8
FFF8
E000
E000
E000
E000
E000
E000
E000
FFFC
FFFC
FFFC
0600
0300
0380
0380
1F80
1F00
ENDCHAR
STARTCHAR 0229
ENCODING 553
SWIDTH 600 0
DWIDTH 18 0
BBX 15 22 2 -6
BITMAP
07E0
1FF8
3FFC
783C
701E
E00E
FFFE
FFFE
FFFE
E000
E000
7004
7C1C
3FFC
1FF8
07E0
0300
0180
01C0
01C0
0FC0
0F80
ENDCHAR
STARTCHAR 022A
ENCODING 554
SWIDTH 800 0
DWIDTH 24 0
BBX 20 30 2 0
BITMAP
07FC00
07FC00
07FC00
071C00
071C00
071C00
000000
000000
01F800
0FFE00
1FFF80
3E07C0
3C03C0
7801E0
7000E0
F000F0
E00070
E00070
E00070
E00070
E00070
E00070
F000F0
7000E0
7801E0
3C03C0
3E07C0
1FFF80
0FFF00
01F800
ENDCHAR
STARTCHAR 022B
ENCODING 555
SWIDTH 600 0
DWIDTH 18 0
BBX 15 27 2 0
BITMAP
1FF0
1FF0
1FF0
0000
1C70
1C70
1C70
0000
0000
0000
0000
0FE0
1FF0
3FF8
783C
701C
E01E
E00E
E00E
E00E
E00E
E01E
701C
783C
3FF8
1FF0
0FE0
ENDCHAR
STARTCHAR 022C
ENCODING 556
SWIDTH 800 0
DWIDTH 24 0
BBX 20 30 2 0
BITMAP
03FE00
03FE00
03FE00
01E300
03FF00
031E00
000000
000000
01F800
0FFE00
1FFF80
3E07C0
3C03C0
7801E0
7000E0
F000F0
E00070
E00070
E00070
E00070
E00070
E00070
F000F0
7000E0
7801E0
3C03C0
3E07C0
1FFF80
0FFF00
01F800
ENDCHAR
STARTCHAR 022D
ENCODING 557
SWIDTH 600 0
DWIDTH 18 0
BBX 15 25 2 0
BITMAP
1FF0
1FF0
1FF0
0F18
1FF8
18F0
0000
0000
0000
0FE0
1FF0
3FF8
783C
701C
E01E
E00E
E00E
E00E
E00E
E01E
701C
783C
3FF8
1FF0
0FE0
ENDCHAR
STARTCHAR 022E
ENCODING 558
SWIDTH 800 0
DWIDTH 24 0
BBX 20 27 2 0
BITMAP
00E000
00E000
00E000
000000
000000
01F800
0FFE00
1FFF80
3E07C0
3C03C0
7801E0
7000E0
F000F0
E00070
E00070
E00070
E00070
E00070
E00070
F000F0
7000E0
7801E0
3C03C0
3E07C0
1FFF80
0FFF00
01F800
ENDCHAR
STARTCHAR 022F
ENCODING 559
SWIDTH 600 0
DWIDTH 18 0
BBX 15 23 2 0
BITMAP
0380
0380
0380
0000
0000
0000
0000
0FE0
1FF0
3FF8
783C
701C
E01E
E00E
E00E
E00E
E00E
E01E
701C
783C
3FF8
1FF0
0FE0
ENDCHAR
STARTCHAR 0230
ENCODING 560
SWIDTH 800 0
DWIDTH 24 0
BBX 20 30 2 0
BITMAP
03FE00
03FE00
03FE00
007000
007000
007000
000000
000000
01F800
0FFE00
1FFF80
3E07C0
3C03C0
7801E0
7000E0
F000F0
E00070
E00070
E00070
E00070
E00070
E00070
F000F0
7000E0
7801E0
3C03C0
3E07C0
1FFF80
0FFF00
01F800
ENDCHAR
STARTCHAR 0231
ENCODING 561
SWIDTH 600 0
DWIDTH 18 0
BBX 15 27 2 0
BITMAP
1FF0
1FF0
1FF0
0000
0380
0380
0380
0000
0000
0000
0000
0FE0
1FF0
3FF8
783C
701C
E01E
E00E
E00E
E00E
E00E
E01E
701C
783C
3FF8
1FF0
0FE0
ENDCHAR
STARTCHAR 0232
ENCODING 562
SWIDTH 600 0
DWIDTH 18 0
BBX 19 27 0 0
BITMAP
07FC00
07FC00
07FC00
000000
000000
F001E0
7803C0
380380
3C0780
1E0F00
0E1E00
071E00
07BC00
03F800
01F000
01F000
00E000
00E000
00E000
00E000
00E000
00E000
00E000
00E000
00E000
00E000
00E000
ENDCHAR
STARTCHAR 0233
ENCODING 563
SWIDTH 600 0
DWIDTH 18 0
BBX 16 28 1 -6
BITMAP
1FF0
1FF0
1FF0
0000
0000
0000
E00F
700E
700E
781C
381C
383C
1C38
1C78
1E70
0EF0
0FE0
07E0
07C0
03C0
03C0
0380
0780
0700
0F00
7E00
7E00
7800
ENDCHAR
STARTCHAR 0234
ENCODING 564
SWIDTH 466 0
DWIDTH 14 0
BBX 11 25 2 -3
BITMAP
6000
6000
6000
6000
6000
6000
6000
6000
6000
6000
6000
6000
6000
6000
6000
6000
67C0
6FC0
7CE0
7CE0
79C0
7FC0
7F80
7000
E000
ENDCHAR
STARTCHAR 0235
ENCODING 565
SWIDTH 833 0
DWIDTH 25 0
BBX 21 19 3 -3
BITMAP
038000
CFF000
DFF000
F03800
E03800
E01800
E01800
C01800
C01800
C01800
C019F0
C01BF0
C01F38
C01F38
C01E70
C01FF0
C01FE0
001C00
003800
ENDCHAR
STARTCHAR 0236
ENCODING 566
SWIDTH 466 0
DWIDTH 14 0
BBX 12 23 1 -2
BITMAP
3800
3800
3800
3800
3800
FFC0
FFC0
3800
3800
3800
3800
3800
3800
3800
3BE0
3FE0
3E70
3E70
3CE0
3FE0
3FC0
3800
7000
ENDCHAR
STARTCHAR 0237
ENCODING 567
SWIDTH 266 0
DWIDTH 8 0
BBX 6 22 0 -6
BITMAP
1C
1C
1C
1C
1C
1C
1C
1C
1C
1C
1C
1C
1C
1C
1C
1C
1C
1C
3C
F8
F8
E0
ENDCHAR
STARTCHAR 0238
ENCODING 568
SWIDTH 1033 0
DWIDTH 31 0
BBX 27 23 2 0
BITMAP
000E0000
000E0000
000E0000
000E0000
000E0000
000E0000
000E0000
0F8E3E00
1FEEFF00
3FFFFF80
783F83C0
701F01C0
E01E00E0
E00E00E0
E00E00E0
E00E00E0
E00E00E0
E00E00E0
701F01C0
783F83C0
3FFFFF80
1FEEFF00
0F8E7E00
ENDCHAR
STARTCHAR 0239
ENCODING 569
SWIDTH 1033 0
DWIDTH 31 0
BBX 27 22 2 -6
BITMAP
0F8E3E00
1FEEFF00
3FFFFF80
783F83C0
701F01C0
E01E00E0
E00E00E0
E00E00E0
E00E00E0
E00E00E0
E00E00E0
701F01C0
783F83C0
3FFFFF80
1FEEFF00
0F8E3E00
000E0000
000E0000
000E0000
000E0000
000E0000
000E0000
ENDCHAR
STARTCHAR 023A
ENCODING 570
SWIDTH 700 0
DWIDTH 21 0
BBX 21 23 0 -1
BITMAP
00F038
00F070
00F8E0
01F9C0
01DD80
019F00
038E00
038E00
071E00
073E00
077700
0E6700
0EC380
1DC380
1FFF80
1FFFC0
3E01C0
3C00E0
3800E0
7000E0
700070
F00070
400000
ENDCHAR
STARTCHAR 023B
ENCODING 571
SWIDTH 700 0
DWIDTH 21 0
BBX 21 24 0 -2
BITMAP
000010
00FFB8
03FFF0
07C1E0
0F00E0
1E0180
1C0380
3C0700
380E00
381C00
381800
383000
386000
38E000
39C000
3B8000
3F0000
1E0000
1E0000
1F0020
3FC0E0
73FFE0
E0FF80
400000
ENDCHAR
STARTCHAR 023C
ENCODING 572
SWIDTH 566 0
DWIDTH 17 0
BBX 16 18 0 -1
BITMAP
00F3
07FE
0FFE
1E1E
3C18
3830
3860
38E0
39C0
3B80
3B00
3E00
3C00
1C00
3E06
3FFE
63FC
C000
ENDCHAR
STARTCHAR 023D
ENCODING 573
SWIDTH 566 0
DWIDTH 17 0
BBX 17 22 0 0
BITMAP
1C0000
1C0000
1C0000
1C0000
1C0000
1C0000
1C0000
1C0000
1C0000
1C0000
FF8000
FF8000
FF8000
1C0000
1C0000
1C0000
1C0000
1C0000
1C0000
1FFF80
1FFF80
1FFF80
ENDCHAR
STARTCHAR 023E
ENCODING 574
SWIDTH 600 0
DWIDTH 18 0
BBX 20 23 -1 -1
BITMAP
7FFFF0
7FFFF0
7FFFE0
0071C0
007380
007300
007600
007E00
007C00
007800
007000
00F000
00F000
01F000
03F000
077000
0E7000
1C7000
187000
307000
707000
E07000
400000
ENDCHAR
STARTCHAR 023F
ENCODING 575
SWIDTH 533 0
DWIDTH 16 0
BBX 13 24 2 -8
BITMAP
0F80
7FE0
FDE0
E000
C000
C000
E000
FC00
7FC0
0FE0
00F0
0070
0070
0070
C0F0
FFE0
FFC0
0E00
0700
0380
01C0
00F0
0078
0038
ENDCHAR
STARTCHAR 0240
ENCODING 576
SWIDTH 533 0
DWIDTH 16 0
BBX 15 23 1 -7
BITMAP
7FF8
7FF8
0038
0070
00E0
01E0
03C0
0780
0700
0E00
1C00
3800
7800
F000
F800
FC00
1E00
0F00
0780
03C0
01E0
00FE
003E
ENDCHAR
STARTCHAR 0241
ENCODING 577
SWIDTH 600 0
DWIDTH 18 0
BBX 16 22 1 0
BITMAP
7FF0
FFFC
FFFE
801E
000F
0007
0007
0007
0007
000F
001E
07FE
07FC
07F0
0700
0700
0700
0700
0700
0700
0700
0700
ENDCHAR
STARTCHAR 0242
ENCODING 578
SWIDTH 466 0
DWIDTH 14 0
BBX 12 16 1 0
BITMAP
7F00
FFC0
FFE0
81E0
00F0
0070
0070
0070
00F0
01F0
1FE0
1FC0
1F80
1C00
1C00
1C00
ENDCHAR
STARTCHAR 0243
ENCODING 579
SWIDTH 700 0
DWIDTH 21 0
BBX 19 22 0 0
BITMAP
1FFC00
1FFF00
1FFF80
1C07C0
1C01C0
1C01C0
1C01C0
1C01C0
1C0780
1FFF00
1FFE00
1FFF80
1C03C0
FFE1E0
FFE0E0
FFE0E0
1C00E0
1C01E0
1C03E0
1FFFC0
1FFF80
1FFE00
ENDCHAR
STARTCHAR 0244
ENCODING 580
SWIDTH 733 0
DWIDTH 22 0
BBX 21 22 1 0
BITMAP
3800E0
3800E0
3800E0
3800E0
3800E0
3800E0
3800E0
3800E0
FFFFF8
FFFFF8
FFFFF8
3800E0
3800E0
3800E0
3800E0
3800E0
3C01E0
1C01C0
1F07C0
0FFF80
07FF00
01FC00
ENDCHAR
STARTCHAR 0245
ENCODING 581
SWIDTH 700 0
DWIDTH 21 0
BBX 20 22 0 0
BITMAP
00F000
00F000
01F800
01F800
01F800
039C00
039C00
079E00
070E00
070E00
0F0F00
0E0700
0E0700
1C0380
1C0380
3C03C0
3801C0
3801C0
7801E0
7000E0
7000E0
E00070
ENDCHAR
STARTCHAR 0246
ENCODING 582
SWIDTH 633 0
DWIDTH 19 0
BBX 14 28 3 -3
BITMAP
0018
0018
0038
FFFC
FFFC
FFFC
E060
E0E0
E0E0
E0C0
E1C0
E1C0
FFF8
FFF8
FFF8
E300
E700
E700
E600
EE00
EE00
EC00
FC00
FFFC
FFFC
3800
3800
3000
ENDCHAR
STARTCHAR 0247
ENCODING 583
SWIDTH 600 0
DWIDTH 18 0
BBX 15 22 2 -2
BITMAP
0030
0030
07F0
1FF0
3FF8
70DC
70DC
E1CE
E18E
FFFE
FFFE
C700
E700
E600
EE00
7C00
7C0C
3FFC
1FF8
3800
3000
7000
ENDCHAR
STARTCHAR 0248
ENCODING 584
SWIDTH 300 0
DWIDTH 9 0
BBX 11 28 -2 -6
BITMAP
0700
0700
0700
0700
0700
0700
0700
0700
0700
0700
3FE0
3FE0
3FE0
0700
0700
0700
0700
0700
0700
0700
0700
0700
0700
0F00
1E00
FE00
FC00
F000
ENDCHAR
STARTCHAR 0249
ENCODING 585
SWIDTH 266 0
DWIDTH 8 0
BBX 8 29 0 -6
BITMAP
1C
1C
1C
00
00
00
00
1C
1C
1C
1C
1C
1C
FF
FF
FF
1C
1C
1C
1C
1C
1C
1C
1C
1C
3C
F8
F8
E0
ENDCHAR
STARTCHAR 024A
ENCODING 586
SWIDTH 766 0
DWIDTH 23 0
BBX 24 28 2 -6
BITMAP
03F0E0
0FFCE0
1FFEE0
3E0FE0
7803E0
7001E0
7001E0
E000E0
E000E0
E000E0
E000E0
E000E0
E000E0
E000E0
E001E0
7001E0
7001E0
7803E0
3E0FE0
1FFEE0
0FFCE0
03F0E0
0000E0
0000F0
000078
00007F
00003F
00000F
ENDCHAR
STARTCHAR 024B
ENCODING 587
SWIDTH 633 0
DWIDTH 19 0
BBX 18 22 2 -6
BITMAP
0F8E00
1FEE00
3FFE00
783E00
701E00
E01E00
E00E00
E00E00
E00E00
E00E00
E00E00
701E00
783E00
3FFE00
1FEE00
0F8E00
000E00
000E00
000F00
0007C0
0007C0
0003C0
ENDCHAR
STARTCHAR 024C
ENCODING 588
SWIDTH 700 0
DWIDTH 21 0
BBX 20 22 0 0
BITMAP
1FF800
1FFE00
1FFF00
1C0F80
1C0780
1C0380
1C0380
1C0380
1C0780
1C0F00
FFFF00
FFFC00
FFFC00
1C1E00
1C0F00
1C0780
1C0380
1C03C0
1C01C0
1C01E0
1C00E0
1C00F0
ENDCHAR
STARTCHAR 024D
ENCODING 589
SWIDTH 400 0
DWIDTH 12 0
BBX 13 16 0 0
BITMAP
1C78
1DF8
1FF8
1F00
1E00
1C00
FF80
FF80
FF80
1C00
1C00
1C00
1C00
1C00
1C00
1C00
ENDCHAR
STARTCHAR 024E
ENCODING 590
SWIDTH 600 0
DWIDTH 18 0
BBX 18 22 0 0
BITMAP
E001C0
700380
380380
FFFFC0
FFFFC0
FFFFC0
0E1C00
073800
03B800
03F000
01E000
00E000
00E000
00E000
00E000
00E000
00E000
00E000
00E000
00E000
00E000
00E000
ENDCHAR
STARTCHAR 024F
ENCODING 591
SWIDTH 600 0
DWIDTH 18 0
BBX 18 22 0 -6
BITMAP
700380
380700
380700
180E00
1C0E00
1C0E00
FFFFC0
FFFFC0
063800
073800
073000
037000
03F000
01E000
01E000
01C000
01C000
01C000
038000
038000
3F0000
3E0000
ENDCHAR
STARTCHAR 0250
ENCODING 592
SWIDTH 633 0
DWIDTH 19 0
BBX 14 16 3 0
BITMAP
E3E0
EFF8
FFF8
F83C
F01C
E01C
E03C
FFF8
FFF0
FFC0
E000
E000
7818
7FF8
3FF8
0FE0
ENDCHAR
STARTCHAR 0251
ENCODING 593
SWIDTH 633 0
DWIDTH 19 0
BBX 15 16 2 0
BITMAP
0F8E
1FEE
3FFE
783E
701E
E01E
E00E
E00E
E00E
E00E
E00E
701E
783E
3FFE
1FEE
0F8E
ENDCHAR
STARTCHAR 0252
ENCODING 594
SWIDTH 633 0
DWIDTH 19 0
BBX 15 16 3 0
BITMAP
E3E0
EFF0
FFF8
F83C
F01C
E00E
E00E
E00E
E00E
E00E
E00E
F01C
F83C
FFF8
EFF0
E3E0
ENDCHAR
STARTCHAR 0253
ENCODING 595
SWIDTH 633 0
DWIDTH 19 0
BBX 15 23 3 0
BITMAP
1F80
7F80
7F80
F000
E000
E000
E000
E3E0
EFF0
FFF8
F83C
F01C
E00E
E00E
E00E
E00E
E00E
E00E
F01C
F83C
FFF8
EFF0
E3E0
ENDCHAR
STARTCHAR 0254
ENCODING 596
SWIDTH 566 0
DWIDTH 17 0
BBX 13 16 2 0
BITMAP
7F00
FFC0
FFE0
81F0
0070
0078
0038
0038
0038
0038
0078
0070
81F0
FFE0
FFC0
7F00
ENDCHAR
STARTCHAR 0255
ENCODING 597
SWIDTH 566 0
DWIDTH 17 0
BBX 13 18 2 -2
BITMAP
07F0
1FF8
3FF8
7808
7000
E000
E000
E000
E3E0
F7F0
F7F8
7E38
7C38
3FF8
3FF0
0FE0
0C00
0C00
ENDCHAR
STARTCHAR 0256
ENCODING 598
SWIDTH 633 0
DWIDTH 19 0
BBX 18 29 2 -6
BITMAP
000E00
000E00
000E00
000E00
000E00
000E00
000E00
0F8E00
1FEE00
3FFE00
783E00
701E00
E01E00
E00E00
E00E00
E00E00
E00E00
E00E00
701E00
783E00
3FFE00
1FEE00
0F8E00
000E00
000E00
000F00
0007C0
0007C0
0003C0
ENDCHAR
STARTCHAR 0257
ENCODING 599
SWIDTH 700 0
DWIDTH 21 0
BBX 20 23 2 0
BITMAP
0001F0
0007F0
0007F0
000F00
000E00
000E00
000E00
0F8E00
1FEE00
3FFE00
783E00
701E00
E01E00
E00E00
E00E00
E00E00
E00E00
E00E00
701E00
783E00
3FFE00
1FEE00
0F8000
ENDCHAR
STARTCHAR 0258
ENCODING 600
SWIDTH 600 0
DWIDTH 18 0
BBX 15 16 2 0
BITMAP
0FC0
3FF0
7FF8
783C
E01C
E00E
FFFE
FFFE
FFFE
000E
000E
401C
707C
7FF8
3FF0
0FC0
ENDCHAR
STARTCHAR 0259
ENCODING 601
SWIDTH 600 0
DWIDTH 18 0
BBX 15 16 2 0
BITMAP
0FC0
3FF0
7FF8
703C
401C
000E
FFFE
FFFE
FFFE
E00E
E00E
701C
783C
3FF8
1FF0
0FC0
ENDCHAR
STARTCHAR 025A
ENCODING 602
SWIDTH 833 0
DWIDTH 25 0
BBX 23 16 2 0
BITMAP
1FC000
7FF000
FFF8F0
E03FF0
801FF0
003FF0
00FE70
03FE78
0FEE3E
3F8E3E
FE0E0E
F81C00
703C00
7FF800
3FF000
0FC000
ENDCHAR
STARTCHAR 025B
ENCODING 603
SWIDTH 533 0
DWIDTH 16 0
BBX 12 16 2 0
BITMAP
1F80
7FE0
FFE0
F020
E000
F000
7F80
1F80
7F80
F000
E000
E000
F010
7FF0
7FF0
1FC0
ENDCHAR
STARTCHAR 025C
ENCODING 604
SWIDTH 533 0
DWIDTH 16 0
BBX 12 16 2 0
BITMAP
1F80
7FE0
7FF0
40F0
0070
00F0
1FE0
1F80
1FE0
00F0
0070
0070
80F0
FFE0
FFE0
3F80
ENDCHAR
STARTCHAR 025D
ENCODING 605
SWIDTH 733 0
DWIDTH 22 0
BBX 20 16 2 0
BITMAP
3F0000
7FC000
7FE780
41FF80
00FF80
01F380
1FC380
1F81C0
1FE1F0
00F0F0
007070
007000
80F000
FFE000
FFC000
3F8000
ENDCHAR
STARTCHAR 025E
ENCODING 606
SWIDTH 666 0
DWIDTH 20 0
BBX 16 16 2 0
BITMAP
07F8
1FFE
3FFF
7C0F
7007
F00F
E1FE
E1F8
E1FE
E00F
E007
7007
7C0F
3FFE
1FFC
07F0
ENDCHAR
STARTCHAR 025F
ENCODING 607
SWIDTH 266 0
DWIDTH 8 0
BBX 8 22 0 -6
BITMAP
1C
1C
1C
1C
1C
1C
FF
FF
FF
1C
1C
1C
1C
1C
1C
1C
1C
1C
3C
F8
F8
E0
ENDCHAR
STARTCHAR 0260
ENCODING 608
SWIDTH 700 0
DWIDTH 21 0
BBX 20 29 2 -6
BITMAP
0001F0
0007F0
0007F0
000F00
000E00
000E00
000E00
0F8E00
1FEE00
3FFE00
783E00
701E00
E00E00
E00E00
E00E00
E00E00
E00E00
E00E00
701E00
783E00
3FFE00
3FEE00
0F8E00
001E00
001C00
207C00
3FF800
3FF000
1FE000
ENDCHAR
STARTCHAR 0261
ENCODING 609
SWIDTH 633 0
DWIDTH 19 0
BBX 15 22 2 -6
BITMAP
0FFE
1FFE
3FFE
780E
F00E
E00E
E00E
E00E
E00E
E00E
E00E
701E
783E
3FFE
1FEE
0F8E
001E
001C
207C
3FF8
3FF0
1FE0
ENDCHAR
STARTCHAR 0262
ENCODING 610
SWIDTH 633 0
DWIDTH 19 0
BBX 15 16 2 0
BITMAP
07E0
1FF8
3FFC
7C1C
7004
F000
E03E
E03E
E03E
E00E
F00E
700E
7C0E
3FFE
1FFE
07F0
ENDCHAR
STARTCHAR 0263
ENCODING 611
SWIDTH 566 0
DWIDTH 17 0
BBX 15 22 1 -6
BITMAP
F01E
701C
783C
3C78
3C78
1EF0
1EF0
0FE0
07C0
07C0
07C0
07C0
07C0
0EE0
0EE0
0C60
1C70
1C70
1C70
1FF0
0FE0
07C0
ENDCHAR
STARTCHAR 0264
ENCODING 612
SWIDTH 566 0
DWIDTH 17 0
BBX 15 16 1 0
BITMAP
F01E
783C
3C78
1EF0
0FE0
07C0
07C0
07C0
06C0
0EE0
0C60
1C70
1C70
1FF0
0FE0
07C0
ENDCHAR
STARTCHAR 0265
ENCODING 613
SWIDTH 633 0
DWIDTH 19 0
BBX 14 22 3 -6
BITMAP
E01C
E01C
E01C
E01C
E01C
E01C
E01C
E01C
E01C
E01C
E01C
E03C
F07C
7FFC
3FDC
1F1C
001C
001C
001C
001C
001C
001C
ENDCHAR
STARTCHAR 0266
ENCODING 614
SWIDTH 633 0
DWIDTH 19 0
BBX 14 23 3 0
BITMAP
1F80
7F80
7F80
F000
E000
E000
E000
E3E0
EFF0
FFF8
F83C
F01C
E01C
E01C
E01C
E01C
E01C
E01C
E01C
E01C
E01C
E01C
E01C
ENDCHAR
STARTCHAR 0267
ENCODING 615
SWIDTH 633 0
DWIDTH 19 0
BBX 14 29 3 -7
BITMAP
1F80
7F80
7F80
F000
E000
E000
E000
E3E0
EFF0
FFF8
F87C
F03C
E01C
E01C
E01C
E01C
E01C
E01C
E01C
E01C
E01C
E01C
E01C
001C
001C
001C
07FC
07F8
07F0
ENDCHAR
STARTCHAR 0268
ENCODING 616
SWIDTH 266 0
DWIDTH 8 0
BBX 8 23 0 0
BITMAP
1C
1C
1C
00
00
00
00
1C
1C
1C
1C
1C
1C
FF
FF
FF
1C
1C
1C
1C
1C
1C
1C
ENDCHAR
STARTCHAR 0269
ENCODING 617
SWIDTH 333 0
DWIDTH 10 0
BBX 7 16 3 0
BITMAP
E0
E0
E0
E0
E0
E0
E0
E0
E0
E0
E0
E0
F0
7E
7E
1E
ENDCHAR
STARTCHAR 026A
ENCODING 618
SWIDTH 366 0
DWIDTH 11 0
BBX 9 16 1 0
BITMAP
FF80
FF80
FF80
1C00
1C00
1C00
1C00
1C00
1C00
1C00
1C00
1C00
1C00
FF80
FF80
FF80
ENDCHAR
STARTCHAR 026B
ENCODING 619
SWIDTH 433 0
DWIDTH 13 0
BBX 11 23 1 0
BITMAP
0E00
0E00
0E00
0E00
0E00
0E00
0E00
0E00
0E00
7E60
7E60
CFC0
CF80
0E00
0E00
0E00
0E00
0E00
0E00
0E00
0E00
0E00
0E00
ENDCHAR
STARTCHAR 026C
ENCODING 620
SWIDTH 500 0
DWIDTH 15 0
BBX 12 23 1 0
BITMAP
0700
0700
0700
0700
0700
0700
3F00
7F00
FF00
CF00
C700
FFF0
FFF0
3FF0
0700
0700
0700
0700
0700
0700
0700
0700
0700
ENDCHAR
STARTCHAR 026D
ENCODING 621
SWIDTH 266 0
DWIDTH 8 0
BBX 6 29 3 -6
BITMAP
E0
E0
E0
E0
E0
E0
E0
E0
E0
E0
E0
E0
E0
E0
E0
E0
E0
E0
E0
E0
E0
E0
E0
E0
E0
F0
7C
7C
3C
ENDCHAR
STARTCHAR 026E
ENCODING 622
SWIDTH 733 0
DWIDTH 22 0
BBX 17 29 3 -6
BITMAP
E00000
E00000
E00000
E00000
E00000
E00000
E00000
FFFF00
FFFF00
FFFF00
E01E00
E03C00
E07800
E07000
E0F000
E1E000
E1F800
E1FC00
E1FF00
E00F00
E00780
E00380
E00380
000380
000780
180F00
1FFF00
1FFE00
07F000
ENDCHAR
STARTCHAR 026F
ENCODING 623
SWIDTH 966 0
DWIDTH 29 0
BBX 23 16 3 0
BITMAP
E0380E
E0380E
E0380E
E0380E
E0380E
E0380E
E0380E
E0380E
E0380E
E0380E
E0380E
E0781E
F0DC3E
7FDFFE
3F8FEE
1F078E
ENDCHAR
STARTCHAR 0270
ENCODING 624
SWIDTH 966 0
DWIDTH 29 0
BBX 23 22 3 -6
BITMAP
E0380E
E0380E
E0380E
E0380E
E0380E
E0380E
E0380E
E0380E
E0380E
E0380E
E0380E
E0781E
F0DC3E
7FDFFE
3F8FEE
1F078E
00000E
00000E
00000E
00000E
00000E
00000E
ENDCHAR
STARTCHAR 0271
ENCODING 625
SWIDTH 966 0
DWIDTH 29 0
BBX 23 22 3 -6
BITMAP
E3C0F0
EFE3F8
FFF7FC
F87E1E
F03C0E
E0380E
E0380E
E0380E
E0380E
E0380E
E0380E
E0380E
E0380E
E0380E
E0380E
E0380E
00000E
00000E
00001E
0003FC
0003FC
0003F8
ENDCHAR
STARTCHAR 0272
ENCODING 626
SWIDTH 633 0
DWIDTH 19 0
BBX 17 22 0 -6
BITMAP
1C7C00
1DFE00
1FFF00
1F0780
1E0380
1C0380
1C0380
1C0380
1C0380
1C0380
1C0380
1C0380
1C0380
1C0380
1C0380
1C0380
1C0000
1C0000
3C0000
F80000
F80000
E00000
ENDCHAR
STARTCHAR 0273
ENCODING 627
SWIDTH 633 0
DWIDTH 19 0
BBX 17 22 3 -6
BITMAP
E3E000
EFF000
FFF800
F83C00
F01C00
E01C00
E01C00
E01C00
E01C00
E01C00
E01C00
E01C00
E01C00
E01C00
E01C00
E01C00
001C00
001C00
001C00
001F80
000F80
000780
ENDCHAR
STARTCHAR 0274
ENCODING 628
SWIDTH 633 0
DWIDTH 19 0
BBX 14 16 3 0
BITMAP
F01C
F81C
FC1C
FC1C
FE1C
EE1C
EF1C
E71C
E39C
E3DC
E1DC
E1FC
E0FC
E0FC
E07C
E03C
ENDCHAR
STARTCHAR 0275
ENCODING 629
SWIDTH 600 0
DWIDTH 18 0
BBX 15 16 2 0
BITMAP
0FE0
1FF0
3FF8
783C
600C
FFFE
FFFE
FFFE
E00E
E00E
F01E
701C
783C
3FF8
1FF0
0FE0
ENDCHAR
STARTCHAR 0276
ENCODING 630
SWIDTH 866 0
DWIDTH 26 0
BBX 21 16 2 0
BITMAP
03FFF8
1FFFF8
3FFFF8
7C3800
703800
F03800
E03FF0
E03FF0
E03FF0
E03800
F03800
F03800
7C3800
3FFFF8
1FFFF8
07FFF8
ENDCHAR
STARTCHAR 0277
ENCODING 631
SWIDTH 700 0
DWIDTH 21 0
BBX 17 16 2 0
BITMAP
07F000
1FFC00
3FFE00
7C1F00
780F00
F00700
E00380
E1C380
E1C380
E1C380
E1C380
E1C380
F36780
7F7F00
3F3F00
1C1C00
ENDCHAR
STARTCHAR 0278
ENCODING 632
SWIDTH 700 0
DWIDTH 21 0
BBX 17 29 2 -6
BITMAP
01C000
01C000
01C000
01C000
01C000
01C000
01C000
0FF800
1FFC00
3FFE00
79CF00
71C700
E1C380
E1C380
E1C380
E1C380
E1C380
E1C380
71C700
79CF00
3FFE00
1FFC00
0FF800
01C000
01C000
01C000
01C000
01C000
01C000
ENDCHAR
STARTCHAR 0279
ENCODING 633
SWIDTH 400 0
DWIDTH 12 0
BBX 10 16 0 0
BITMAP
01C0
01C0
01C0
01C0
01C0
01C0
01C0
01C0
01C0
01C0
01C0
03C0
07C0
FFC0
FDC0
F1C0
ENDCHAR
STARTCHAR 027A
ENCODING 634
SWIDTH 400 0
DWIDTH 12 0
BBX 10 23 0 0
BITMAP
01C0
01C0
01C0
01C0
01C0
01C0
01C0
01C0
01C0
01C0
01C0
01C0
01C0
01C0
01C0
01C0
01C0
03C0
03C0
07C0
FFC0
FDC0
F1C0
ENDCHAR
STARTCHAR 027B
ENCODING 635
SWIDTH 400 0
DWIDTH 12 0
BBX 13 22 0 -6
BITMAP
01C0
01C0
01C0
01C0
01C0
01C0
01C0
01C0
01C0
01C0
03C0
03C0
07C0
FFC0
FDC0
F1C0
01C0
01C0
01E0
00F8
00F8
0078
ENDCHAR
STARTCHAR 027C
ENCODING 636
SWIDTH 400 0
DWIDTH 12 0
BBX 10 22 3 -6
BITMAP
E3C0
EFC0
FFC0
F800
F000
E000
E000
E000
E000
E000
E000
E000
E000
E000
E000
E000
E000
E000
E000
E000
E000
E000
ENDCHAR
STARTCHAR 027D
ENCODING 637
SWIDTH 400 0
DWIDTH 12 0
BBX 10 22 3 -5
BITMAP
E3C0
EFC0
FFC0
F800
F000
E000
E000
E000
E000
E000
E000
E000
E000
E000
E000
E000
E000
E000
F000
7F80
7F80
3F80
ENDCHAR
STARTCHAR 027E
ENCODING 638
SWIDTH 533 0
DWIDTH 16 0
BBX 11 16 2 0
BITMAP
07E0
1FE0
1FE0
3C00
3800
3800
3800
3800
3800
3800
3800
3800
3800
FE00
FE00
FE00
ENDCHAR
STARTCHAR 027F
ENCODING 639
SWIDTH 533 0
DWIDTH 16 0
BBX 12 16 2 0
BITMAP
FC00
FF00
FF00
0780
0380
0380
0380
0380
0380
0380
0380
0380
0380
0FF0
0FF0
0FF0
ENDCHAR
STARTCHAR 0280
ENCODING 640
SWIDTH 600 0
DWIDTH 18 0
BBX 14 16 3 0
BITMAP
FF80
FFE0
FFF0
E0F0
E070
E0F0
FFE0
FFC0
FFC0
E1E0
E0E0
E070
E070
E038
E038
E03C
ENDCHAR
STARTCHAR 0281
ENCODING 641
SWIDTH 600 0
DWIDTH 18 0
BBX 14 16 3 0
BITMAP
E01C
E018
E038
E070
E0F0
E1E0
FFC0
FFC0
FFE0
E0F0
E070
E070
E0F0
FFF0
FFE0
FF80
ENDCHAR
STARTCHAR 0282
ENCODING 642
SWIDTH 533 0
DWIDTH 16 0
BBX 12 22 2 -6
BITMAP
1FC0
7FE0
FFE0
F020
E000
FC00
7E00
3FC0
03E0
0070
0070
8070
E0F0
FFE0
FFE0
FF80
E000
E000
F000
7F80
7F80
1F80
ENDCHAR
STARTCHAR 0283
ENCODING 643
SWIDTH 333 0
DWIDTH 10 0
BBX 11 29 0 -6
BITMAP
03E0
0FE0
0FE0
1E00
1C00
1C00
1C00
1C00
1C00
1C00
1C00
1C00
1C00
1C00
1C00
1C00
1C00
1C00
1C00
1C00
1C00
1C00
1C00
1C00
1C00
3C00
F800
F800
F000
ENDCHAR
STARTCHAR 0284
ENCODING 644
SWIDTH 333 0
DWIDTH 10 0
BBX 11 29 0 -6
BITMAP
03E0
0FE0
0FE0
1E00
1C00
1C00
1C00
FC00
FC00
FC00
1C00
1C00
1C00
FF00
FF00
FF00
1C00
1C00
1C00
1C00
1C00
1C00
1C00
1C00
1C00
3C00
F800
F800
F000
ENDCHAR
STARTCHAR 0285
ENCODING 645
SWIDTH 466 0
DWIDTH 14 0
BBX 11 22 1 -6
BITMAP
FC00
FE00
FF00
0F00
0700
0700
0700
0700
0700
0700
0700
0700
0700
0700
0700
0700
0700
0700
0780
07E0
03E0
01E0
ENDCHAR
STARTCHAR 0286
ENCODING 646
SWIDTH 333 0
DWIDTH 10 0
BBX 15 29 -4 -6
BITMAP
003E
00FE
01FE
01E0
01C0
01C0
01C0
01C0
01C0
01C0
01C0
01C0
01C0
01C0
01C0
01C0
01C0
01C0
01C0
01C0
01C0
01C0
01C0
7FF8
FFF8
FFF8
C1C0
FF80
3F00
ENDCHAR
STARTCHAR 0287
ENCODING 647
SWIDTH 400 0
DWIDTH 12 0
BBX 11 21 1 -5
BITMAP
FE00
FF00
FF80
0780
0380
0380
0380
0380
0380
0380
0380
0380
0380
FFE0
FFE0
FFE0
0380
0380
0380
0380
0380
ENDCHAR
STARTCHAR 0288
ENCODING 648
SWIDTH 400 0
DWIDTH 12 0
BBX 11 27 1 -6
BITMAP
3800
3800
3800
3800
3800
FFE0
FFE0
FFE0
3800
3800
3800
3800
3800
3800
3800
3800
3800
3800
3800
3800
3800
3800
3800
3C00
1FE0
1FE0
07E0
ENDCHAR
STARTCHAR 0289
ENCODING 649
SWIDTH 633 0
DWIDTH 19 0
BBX 20 16 0 0
BITMAP
1C0380
1C0380
1C0380
1C0380
1C0380
1C0380
FFFFF0
FFFFF0
FFFFF0
1C0380
1C0380
1C0780
1E0F80
0FFF80
07FB80
03E380
ENDCHAR
STARTCHAR 028A
ENCODING 650
SWIDTH 666 0
DWIDTH 20 0
BBX 15 16 3 0
BITMAP
FC7E
FC7E
FC7E
1C70
3838
701C
F01E
E00E
E00E
E00E
E00E
F01E
783C
7FF8
1FF0
0FE0
ENDCHAR
STARTCHAR 028B
ENCODING 651
SWIDTH 633 0
DWIDTH 19 0
BBX 14 16 3 0
BITMAP
E180
E1E0
E1F0
E0F8
E038
E03C
E01C
E01C
E01C
E01C
E01C
E038
F078
7FF0
7FE0
3F80
ENDCHAR
STARTCHAR 028C
ENCODING 652
SWIDTH 600 0
DWIDTH 18 0
BBX 16 16 1 -1
BITMAP
03C0
03C0
07E0
07E0
0FF0
0E70
0E70
1E38
1C38
1C38
381C
381C
781E
700E
700E
F007
ENDCHAR
STARTCHAR 028D
ENCODING 653
SWIDTH 833 0
DWIDTH 25 0
BBX 22 16 1 0
BITMAP
0F03C0
0F03C0
0F03C0
1F03E0
1D86E0
1D86E0
1D86E0
398E70
38CC70
38CC70
78CC78
70FC38
707838
707838
F0783C
E0301C
ENDCHAR
STARTCHAR 028E
ENCODING 654
SWIDTH 600 0
DWIDTH 18 0
BBX 16 23 1 0
BITMAP
003E
007E
007E
00F0
00E0
01C0
01C0
03C0
03C0
03E0
07E0
07E0
0F70
0E70
1E78
1C38
1C38
3C1C
381C
781E
700E
700E
E007
ENDCHAR
STARTCHAR 028F
ENCODING 655
SWIDTH 633 0
DWIDTH 19 0
BBX 15 16 2 0
BITMAP
F01E
783C
3838
3C78
1EF0
0EE0
0FE0
07C0
0380
0380
0380
0380
0380
0380
0380
0380
ENDCHAR
STARTCHAR 0290
ENCODING 656
SWIDTH 533 0
DWIDTH 16 0
BBX 16 22 1 -6
BITMAP
FFF8
FFF8
FFF8
00F0
01E0
01E0
03C0
0780
0F00
1E00
1E00
3C00
7800
FFF8
FFF8
FFF8
0038
0038
003C
001F
001F
000F
ENDCHAR
STARTCHAR 0291
ENCODING 657
SWIDTH 533 0
DWIDTH 16 0
BBX 13 18 1 -2
BITMAP
FFF8
FFF8
FFF8
00F0
01E0
01E0
03C0
0780
0FE0
1FF0
1FF8
3F38
7F38
FFF8
FFF0
FFE0
0700
0700
ENDCHAR
STARTCHAR 0292
ENCODING 658
SWIDTH 566 0
DWIDTH 17 0
BBX 14 22 1 -6
BITMAP
FFF8
FFF8
FFF8
00F0
01E0
03C0
0380
0780
0F00
0FC0
0FE0
0FF8
0078
003C
001C
001C
001C
003C
8078
FFF8
FFF0
3F80
ENDCHAR
STARTCHAR 0293
ENCODING 659
SWIDTH 566 0
DWIDTH 17 0
BBX 15 22 2 -6
BITMAP
FFF0
FFF0
0070
00E0
01C0
0380
0780
0F00
0E00
1F80
1FE0
03F0
0078
0038
001C
001C
3F9C
7FF8
E0F8
E0FC
FFFC
7FCE
ENDCHAR
STARTCHAR 0294
ENCODING 660
SWIDTH 533 0
DWIDTH 16 0
BBX 13 23 1 0
BITMAP
7F00
FFC0
FFE0
C0F0
0078
0038
0038
0038
0038
0078
00F0
0FE0
0FC0
0F80
0E00
0E00
0E00
0E00
0E00
0E00
0E00
0E00
0E00
ENDCHAR
STARTCHAR 0295
ENCODING 661
SWIDTH 566 0
DWIDTH 17 0
BBX 13 23 2 0
BITMAP
07F0
1FF8
3FF8
7C18
F000
E000
E000
E000
E000
F000
7800
7F80
1F80
0F80
0380
0380
0380
0380
0380
0380
0380
0380
0380
ENDCHAR
STARTCHAR 0296
ENCODING 662
SWIDTH 533 0
DWIDTH 16 0
BBX 13 23 1 0
BITMAP
0E00
0E00
0E00
0E00
0E00
0E00
0E00
0E00
0E00
0F80
0FC0
0FE0
00F0
0078
0038
0038
0038
0038
0078
80F0
FFE0
FFC0
7F00
ENDCHAR
STARTCHAR 0297
ENCODING 663
SWIDTH 500 0
DWIDTH 15 0
BBX 12 29 1 -6
BITMAP
0FE0
3FF0
7FF0
7810
F000
E000
E000
E000
E000
E000
E000
E000
E000
E000
E000
E000
E000
E000
E000
E000
E000
E000
E000
E000
F000
7810
7FF0
3FF0
0FE0
ENDCHAR
STARTCHAR 0298
ENCODING 664
SWIDTH 800 0
DWIDTH 24 0
BBX 20 22 2 0
BITMAP
03FC00
0FFF00
1F0F80
3C03C0
7801C0
7000E0
F000E0
E000F0
E00070
E04070
E0E070
E0E070
E04070
E00070
E000F0
E000E0
7000E0
7801C0
3C03C0
1E0F80
0FFF00
07FC00
ENDCHAR
STARTCHAR 0299
ENCODING 665
SWIDTH 566 0
DWIDTH 17 0
BBX 13 16 3 0
BITMAP
FF80
FFE0
FFF0
E0F0
E070
E0F0
FFE0
FF80
FFE0
E070
E038
E038
E078
FFF8
FFF0
FFC0
ENDCHAR
STARTCHAR 029A
ENCODING 666
SWIDTH 666 0
DWIDTH 20 0
BBX 16 16 2 0
BITMAP
1FE0
7FF8
FFFC
F03E
E00E
F00F
7F87
1F87
7F87
F007
E00F
E00E
F03E
7FFC
7FF8
1FE0
ENDCHAR
STARTCHAR 029B
ENCODING 667
SWIDTH 700 0
DWIDTH 21 0
BBX 20 23 2 0
BITMAP
0003F0
0007F0
000FF0
000E00
000C00
001C00
001C00
07DC00
1FFC00
3FFC00
7C1C00
700400
F00000
E03E00
E03E00
E03E00
E00E00
F00E00
700E00
7C0E00
3FFE00
1FFE00
07F000
ENDCHAR
STARTCHAR 029C
ENCODING 668
SWIDTH 666 0
DWIDTH 20 0
BBX 14 16 3 0
BITMAP
E01C
E01C
E01C
E01C
E01C
E01C
FFFC
FFFC
FFFC
E01C
E01C
E01C
E01C
E01C
E01C
E01C
ENDCHAR
STARTCHAR 029D
ENCODING 669
SWIDTH 333 0
DWIDTH 10 0
BBX 13 29 -4 -6
BITMAP
01C0
01C0
01C0
0000
0000
0000
0000
01C0
01C0
01C0
01C0
01C0
01C0
01C0
01C0
01C0
01C0
01C0
01C0
01C0
01C0
01C0
01C0
7FF8
FFF8
E1C0
E380
FF80
3F00
ENDCHAR
STARTCHAR 029E
ENCODING 670
SWIDTH 666 0
DWIDTH 20 0
BBX 13 22 4 -6
BITMAP
E018
7018
3818
1C18
0E18
0718
0398
01D8
00F8
03D8
0798
0F18
1E18
3818
7018
E018
0018
0018
0018
0018
0018
0018
ENDCHAR
STARTCHAR 029F
ENCODING 671
SWIDTH 533 0
DWIDTH 16 0
BBX 12 16 3 0
BITMAP
E000
E000
E000
E000
E000
E000
E000
E000
E000
E000
E000
E000
E000
FFF0
FFF0
FFF0
ENDCHAR
STARTCHAR 02A0
ENCODING 672
SWIDTH 733 0
DWIDTH 22 0
BBX 21 29 2 -6
BITMAP
0001F8
0007F8
0007F8
000F00
000E00
000E00
000E00
0F8E00
1FEE00
3FFE00
783E00
701E00
E01E00
E00E00
E00E00
E00E00
E00E00
E00E00
701E00
783E00
3FFE00
1FEE00
0F8E00
000E00
000E00
000E00
000E00
000E00
000E00
ENDCHAR
STARTCHAR 02A1
ENCODING 673
SWIDTH 533 0
DWIDTH 16 0
BBX 13 23 1 0
BITMAP
7F00
FFC0
FFE0
C0F0
0078
0038
0038
0038
0038
0078
00F0
0FE0
0FC0
0F80
0E00
0E00
7FC0
7FC0
7FC0
0E00
0E00
0E00
0E00
ENDCHAR
STARTCHAR 02A2
ENCODING 674
SWIDTH 566 0
DWIDTH 17 0
BBX 13 23 2 0
BITMAP
07F0
1FF8
3FF8
7C18
F000
E000
E000
E000
E000
F000
7800
7F80
1F80
0F80
0380
0380
1FF0
1FF0
1FF0
0380
0380
0380
0380
ENDCHAR
STARTCHAR 02A3
ENCODING 675
SWIDTH 1000 0
DWIDTH 30 0
BBX 27 23 2 -1
BITMAP
000C0000
000C0000
000C0000
000C0000
000C0000
000C0000
070C0000
1FCFFFE0
3FEFFFE0
703C01E0
E01C01C0
E01C0380
E01C0700
E00C0E00
C00C1C00
C00C3C00
E01C7800
E01C7000
E01CE000
703DC000
787F8000
3FEFFFE0
1FCFFFE0
ENDCHAR
STARTCHAR 02A4
ENCODING 676
SWIDTH 1066 0
DWIDTH 32 0
BBX 28 29 2 -7
BITMAP
000C0000
000C0000
000C0000
000C0000
000C0000
000C0000
070C0000
1FCFFFE0
3FEFFFE0
703C01E0
E01C01C0
E01C0380
E01C0700
E00C0E00
C00C1C00
C00C3C00
E01C3F00
E01C3FC0
E01C0FE0
703C00F0
787C0070
3FEC0070
1FCC0070
00000070
00000070
000000F0
000381E0
0003FFC0
0001FF80
ENDCHAR
STARTCHAR 02A5
ENCODING 677
SWIDTH 1000 0
DWIDTH 30 0
BBX 27 25 2 -2
BITMAP
000C0000
000C0000
000C0000
000C0000
000C0000
000C0000
070C0000
1FCFFFE0
3FEFFFE0
703C01E0
E01C01C0
E01C0380
E01C0700
E00C0E00
C00C1C00
C00C3C00
E01C7800
E01C77C0
E01CEFE0
703DCC60
787F8CE0
3FEFFFE0
1FCFFF80
00001800
00001800
ENDCHAR
STARTCHAR 02A6
ENCODING 678
SWIDTH 833 0
DWIDTH 25 0
BBX 22 21 1 0
BITMAP
380000
380000
380000
380000
3803E0
FFCFFC
FFDF7C
383804
383800
383800
383C00
381F80
380FF0
3803F8
38003C
38001C
38000C
38000C
3C301C
1FFFF8
0FFFF0
ENDCHAR
STARTCHAR 02A7
ENCODING 679
SWIDTH 600 0
DWIDTH 18 0
BBX 18 29 1 -7
BITMAP
0007C0
001FC0
381E00
383800
383800
383800
383800
FFF800
FFF800
383800
383800
383800
383800
383800
383800
383800
383800
383800
383800
383800
3C3800
1FF800
0FF800
003800
003800
003800
007000
01F000
01E000
ENDCHAR
STARTCHAR 02A8
ENCODING 680
SWIDTH 766 0
DWIDTH 23 0
BBX 21 23 1 -2
BITMAP
380000
380000
380000
380000
3803E0
FFDFF8
FFFFF8
387808
387000
38E000
38E000
38E000
38E000
38E000
38E000
38E3E0
38E7F0
387E38
3C7C38
1FFFF8
0FFFF0
001C00
001800
ENDCHAR
STARTCHAR 02A9
ENCODING 681
SWIDTH 833 0
DWIDTH 25 0
BBX 23 29 1 -7
BITMAP
07C000
0FC000
1E0000
380000
380000
380000
3801E0
FFF3F8
FFF7FC
387C1E
38780E
38700E
38700E
38700E
38700E
38700E
38700E
38700E
38700E
38700E
38700E
38700E
38700E
00000E
00000E
00000E
00000E
0003FC
0003F8
ENDCHAR
STARTCHAR 02AA
ENCODING 682
SWIDTH 633 0
DWIDTH 19 0
BBX 15 23 3 -1
BITMAP
E000
E000
E000
E000
E000
E000
E3F0
EFFC
FFBC
FC00
F800
F800
FC00
FF80
EFF0
E1FC
E03E
E00E
E00E
E00E
F01E
FFFC
FFF8
ENDCHAR
STARTCHAR 02AB
ENCODING 683
SWIDTH 666 0
DWIDTH 20 0
BBX 16 23 3 0
BITMAP
E000
E000
E000
E000
E000
E000
E000
FFFF
FFFF
FFFF
E01E
E03C
E078
E078
E0F0
E1E0
E3C0
E3C0
E780
EF00
EFFF
FFFF
FFFF
ENDCHAR
STARTCHAR 02AC
ENCODING 684
SWIDTH 500 0
DWIDTH 15 0
BBX 14 19 1 0
BITMAP
C708
C718
4598
6598
6C90
6CB0
28F0
3860
3860
0000
C30C
C708
C718
4598
6C90
6CB0
28F0
38F0
3860
ENDCHAR
STARTCHAR 02AD
ENCODING 685
SWIDTH 533 0
DWIDTH 16 0
BBX 14 17 1 2
BITMAP
FFFC
FFFC
FFFC
E01C
E01C
E01C
E01C
0000
0000
0000
FFFC
FFFC
FFFC
E01C
E01C
E01C
E01C
ENDCHAR
STARTCHAR 02AE
ENCODING 686
SWIDTH 666 0
DWIDTH 20 0
BBX 17 29 0 -6
BITMAP
F00000
F80000
F80000
3C0000
1C0000
1C0000
1C0000
1C0380
1C0380
1C0380
1C0380
1C0380
1C0380
1C0380
1C0380
1C0380
1C0380
1C0380
1E0780
1F0F80
0FFF80
07FB80
03E380
000380
000380
000380
000380
000380
000380
ENDCHAR
STARTCHAR 02AF
ENCODING 687
SWIDTH 666 0
DWIDTH 20 0
BBX 20 29 0 -6
BITMAP
F00000
F80000
F80000
3C0000
1C0000
1C0000
1C0000
1C0380
1C0380
1C0380
1C0380
1C0380
1C0380
1C0380
1C0380
1C0380
1C0380
1C0380
1E0780
1F0F80
0FFF80
07FB80
03E380
000380
000380
0003C0
0001F0
0001F0
0000F0
ENDCHAR
STARTCHAR 02B0
ENCODING 688
SWIDTH 400 0
DWIDTH 12 0
BBX 9 13 2 10
BITMAP
C000
C000
C000
C000
DE00
E300
C180
C180
C180
C180
C180
C180
C180
ENDCHAR
STARTCHAR 02B1
ENCODING 689
SWIDTH 400 0
DWIDTH 12 0
BBX 9 13 2 10
BITMAP
7C00
C000
C000
DE00
E300
C180
C180
C180
C180
C180
C180
C180
C180
ENDCHAR
STARTCHAR 02B2
ENCODING 690
SWIDTH 200 0
DWIDTH 6 0
BBX 4 17 0 6
BITMAP
30
30
00
00
30
30
30
30
30
30
30
30
30
30
30
30
E0
ENDCHAR
STARTCHAR 02B3
ENCODING 691
SWIDTH 266 0
DWIDTH 8 0
BBX 6 9 2 10
BITMAP
DC
E0
C0
C0
C0
C0
C0
C0
C0
ENDCHAR
STARTCHAR 02B4
ENCODING 692
SWIDTH 300 0
DWIDTH 9 0
BBX 6 9 1 10
BITMAP
0C
0C
0C
0C
0C
0C
0C
1C
EC
ENDCHAR
STARTCHAR 02B5
ENCODING 693
SWIDTH 300 0
DWIDTH 9 0
BBX 8 13 1 6
BITMAP
0C
0C
0C
0C
0C
0C
0C
1C
EC
0C
0C
0C
07
ENDCHAR
STARTCHAR 02B6
ENCODING 694
SWIDTH 366 0
DWIDTH 11 0
BBX 9 9 0 9
BITMAP
C180
C180
C300
C600
FC00
C300
C300
C300
FE00
ENDCHAR
STARTCHAR 02B7
ENCODING 695
SWIDTH 500 0
DWIDTH 15 0
BBX 14 9 1 9
BITMAP
C30C
C708
4718
6598
6C90
6CB0
28F0
38E0
3860
ENDCHAR
STARTCHAR 02B8
ENCODING 696
SWIDTH 366 0
DWIDTH 11 0
BBX 9 13 1 6
BITMAP
C080
C180
4180
6300
2300
3600
1600
1C00
1C00
0800
1800
F000
E000
ENDCHAR
STARTCHAR 02B9
ENCODING 697
SWIDTH 266 0
DWIDTH 8 0
BBX 4 7 2 17
BITMAP
70
70
60
E0
E0
E0
C0
ENDCHAR
STARTCHAR 02BA
ENCODING 698
SWIDTH 466 0
DWIDTH 14 0
BBX 9 7 2 17
BITMAP
7380
7380
6300
E700
E700
E700
C600
ENDCHAR
STARTCHAR 02BB
ENCODING 699
SWIDTH 333 0
DWIDTH 10 0
BBX 4 7 3 15
BITMAP
30
70
60
E0
E0
E0
E0
ENDCHAR
STARTCHAR 02BC
ENCODING 700
SWIDTH 333 0
DWIDTH 10 0
BBX 4 7 3 15
BITMAP
70
70
70
60
60
E0
C0
ENDCHAR
STARTCHAR 02BD
ENCODING 701
SWIDTH 333 0
DWIDTH 10 0
BBX 4 7 3 19
BITMAP
E0
E0
E0
E0
60
70
30
ENDCHAR
STARTCHAR 02BE
ENCODING 702
SWIDTH 300 0
DWIDTH 9 0
BBX 4 8 2 15
BITMAP
C0
E0
70
30
30
70
E0
C0
ENDCHAR
STARTCHAR 02BF
ENCODING 703
SWIDTH 300 0
DWIDTH 9 0
BBX 4 8 2 15
BITMAP
30
70
E0
C0
C0
E0
70
30
ENDCHAR
STARTCHAR 02C0
ENCODING 704
SWIDTH 366 0
DWIDTH 11 0
BBX 8 13 2 10
BITMAP
7C
86
03
03
03
06
3C
30
30
30
30
30
30
ENDCHAR
STARTCHAR 02C1
ENCODING 705
SWIDTH 366 0
DWIDTH 11 0
BBX 8 13 1 10
BITMAP
3E
61
C0
C0
C0
60
3C
0C
0C
0C
0C
0C
0C
ENDCHAR
STARTCHAR 02C2
ENCODING 706
SWIDTH 500 0
DWIDTH 15 0
BBX 7 9 4 16
BITMAP
02
0E
3C
F0
C0
F0
3C
0E
02
ENDCHAR
STARTCHAR 02C3
ENCODING 707
SWIDTH 500 0
DWIDTH 15 0
BBX 7 9 4 16
BITMAP
80
E0
78
1E
06
1E
78
E0
80
ENDCHAR
STARTCHAR 02C4
ENCODING 708
SWIDTH 500 0
DWIDTH 15 0
BBX 9 7 3 17
BITMAP
1C00
1C00
3600
3600
6300
6300
C180
ENDCHAR
STARTCHAR 02C5
ENCODING 709
SWIDTH 500 0
DWIDTH 15 0
BBX 9 7 3 17
BITMAP
C180
6300
6300
3600
3600
1C00
1C00
ENDCHAR
STARTCHAR 02C6
ENCODING 710
SWIDTH 500 0
DWIDTH 15 0
BBX 9 6 3 18
BITMAP
1C00
1C00
3600
7700
6300
C180
ENDCHAR
STARTCHAR 02C7
ENCODING 711
SWIDTH 500 0
DWIDTH 15 0
BBX 9 6 3 18
BITMAP
C180
6300
7700
3600
1C00
1C00
ENDCHAR
STARTCHAR 02C8
ENCODING 712
SWIDTH 266 0
DWIDTH 8 0
BBX 2 8 3 15
BITMAP
C0
C0
C0
C0
C0
C0
C0
C0
ENDCHAR
STARTCHAR 02C9
ENCODING 713
SWIDTH 500 0
DWIDTH 15 0
BBX 9 3 3 19
BITMAP
FF80
FF80
FF80
ENDCHAR
STARTCHAR 02CA
ENCODING 714
SWIDTH 500 0
DWIDTH 15 0
BBX 7 6 5 18
BITMAP
0E
1C
18
30
70
E0
ENDCHAR
STARTCHAR 02CB
ENCODING 715
SWIDTH 500 0
DWIDTH 15 0
BBX 6 5 3 18
BITMAP
E0
70
30
18
1C
ENDCHAR
STARTCHAR 02CC
ENCODING 716
SWIDTH 266 0
DWIDTH 8 0
BBX 2 8 3 -4
BITMAP
C0
C0
C0
C0
C0
C0
C0
C0
ENDCHAR
STARTCHAR 02CD
ENCODING 717
SWIDTH 500 0
DWIDTH 15 0
BBX 9 3 3 -6
BITMAP
FF80
FF80
FF80
ENDCHAR
STARTCHAR 02CE
ENCODING 718
SWIDTH 500 0
DWIDTH 15 0
BBX 6 5 3 -7
BITMAP
E0
70
38
18
0C
ENDCHAR
STARTCHAR 02CF
ENCODING 719
SWIDTH 500 0
DWIDTH 15 0
BBX 6 5 6 -7
BITMAP
1C
38
70
60
C0
ENDCHAR
STARTCHAR 02D0
ENCODING 720
SWIDTH 333 0
DWIDTH 10 0
BBX 5 16 2 0
BITMAP
F8
70
70
20
20
00
00
00
00
00
00
20
20
70
70
F8
ENDCHAR
STARTCHAR 02D1
ENCODING 721
SWIDTH 333 0
DWIDTH 10 0
BBX 5 5 2 11
BITMAP
F8
70
70
20
20
ENDCHAR
STARTCHAR 02D2
ENCODING 722
SWIDTH 300 0
DWIDTH 9 0
BBX 4 8 2 8
BITMAP
C0
E0
70
30
30
70
E0
C0
ENDCHAR
STARTCHAR 02D3
ENCODING 723
SWIDTH 300 0
DWIDTH 9 0
BBX 4 8 2 8
BITMAP
30
70
E0
C0
C0
E0
70
30
ENDCHAR
STARTCHAR 02D4
ENCODING 724
SWIDTH 500 0
DWIDTH 15 0
BBX 7 6 4 7
BITMAP
38
38
38
38
FE
FE
ENDCHAR
STARTCHAR 02D5
ENCODING 725
SWIDTH 500 0
DWIDTH 15 0
BBX 7 6 4 7
BITMAP
FE
FE
38
38
38
38
ENDCHAR
STARTCHAR 02D6
ENCODING 726
SWIDTH 400 0
DWIDTH 12 0
BBX 9 9 1 3
BITMAP
0C00
0C00
0C00
0C00
FF80
FF80
0C00
0C00
0C00
ENDCHAR
STARTCHAR 02D7
ENCODING 727
SWIDTH 333 0
DWIDTH 10 0
BBX 7 2 1 8
BITMAP
FE
FE
ENDCHAR
STARTCHAR 02D8
ENCODING 728
SWIDTH 500 0
DWIDTH 15 0
BBX 9 4 3 20
BITMAP
C180
E380
7F00
3E00
ENDCHAR
STARTCHAR 02D9
ENCODING 729
SWIDTH 500 0
DWIDTH 15 0
BBX 3 3 6 20
BITMAP
E0
E0
E0
ENDCHAR
STARTCHAR 02DA
ENCODING 730
SWIDTH 500 0
DWIDTH 15 0
BBX 8 8 3 18
BITMAP
3C
7E
E7
C3
C3
E7
7E
3C
ENDCHAR
STARTCHAR 02DB
ENCODING 731
SWIDTH 500 0
DWIDTH 15 0
BBX 5 6 5 -6
BITMAP
70
60
E0
E0
F8
78
ENDCHAR
STARTCHAR 02DC
ENCODING 732
SWIDTH 500 0
DWIDTH 15 0
BBX 10 4 3 19
BITMAP
70C0
7CC0
CF80
C780
ENDCHAR
STARTCHAR 02DD
ENCODING 733
SWIDTH 500 0
DWIDTH 15 0
BBX 10 6 4 18
BITMAP
39C0
3180
7300
6700
6600
CC00
ENDCHAR
STARTCHAR 02DE
ENCODING 734
SWIDTH 300 0
DWIDTH 9 0
BBX 10 8 0 8
BITMAP
1E00
7E00
FE00
CE00
0E00
0700
07C0
01C0
ENDCHAR
STARTCHAR 02DF
ENCODING 735
SWIDTH 500 0
DWIDTH 15 0
BBX 7 6 4 18
BITMAP
EE
7C
38
7C
EC
C6
ENDCHAR
STARTCHAR 02E0
ENCODING 736
SWIDTH 433 0
DWIDTH 13 0
BBX 9 13 2 6
BITMAP
C180
6300
3600
1C00
1C00
1C00
3600
6200
6300
6300
4300
7F00
1C00
ENDCHAR
STARTCHAR 02E1
ENCODING 737
SWIDTH 166 0
DWIDTH 5 0
BBX 2 13 2 10
BITMAP
C0
C0
C0
C0
C0
C0
C0
C0
C0
C0
C0
C0
C0
ENDCHAR
STARTCHAR 02E2
ENCODING 738
SWIDTH 366 0
DWIDTH 11 0
BBX 8 9 2 10
BITMAP
7E
C0
80
E0
7E
06
03
86
FC
ENDCHAR
STARTCHAR 02E3
ENCODING 739
SWIDTH 433 0
DWIDTH 13 0
BBX 9 9 2 9
BITMAP
C180
6300
3700
1E00
0C00
1E00
3600
6300
C180
ENDCHAR
STARTCHAR 02E4
ENCODING 740
SWIDTH 366 0
DWIDTH 11 0
BBX 8 13 1 10
BITMAP
3E
61
C0
C0
C0
60
3C
0C
0C
0C
0C
0C
0C
ENDCHAR
STARTCHAR 02E5
ENCODING 741
SWIDTH 500 0
DWIDTH 15 0
BBX 9 20 3 0
BITMAP
FF80
FF80
FF80
0380
0380
0380
0380
0380
0380
0380
0380
0380
0380
0380
0380
0380
0380
0380
0380
0380
ENDCHAR
STARTCHAR 02E6
ENCODING 742
SWIDTH 500 0
DWIDTH 15 0
BBX 9 20 3 0
BITMAP
0380
0380
0380
0380
0380
FF80
FF80
FF80
0380
0380
0380
0380
0380
0380
0380
0380
0380
0380
0380
0380
ENDCHAR
STARTCHAR 02E7
ENCODING 743
SWIDTH 500 0
DWIDTH 15 0
BBX 9 20 3 0
BITMAP
0380
0380
0380
0380
0380
0380
0380
0380
0380
FF80
FF80
FF80
0380
0380
0380
0380
0380
0380
0380
0380
ENDCHAR
STARTCHAR 02E8
ENCODING 744
SWIDTH 500 0
DWIDTH 15 0
BBX 9 20 3 0
BITMAP
0380
0380
0380
0380
0380
0380
0380
0380
0380
0380
0380
0380
0380
FF80
FF80
FF80
0380
0380
0380
0380
ENDCHAR
STARTCHAR 02E9
ENCODING 745
SWIDTH 500 0
DWIDTH 15 0
BBX 9 20 3 0
BITMAP
0380
0380
0380
0380
0380
0380
0380
0380
0380
0380
0380
0380
0380
0380
0380
0380
0380
FF80
FF80
FF80
ENDCHAR
STARTCHAR 02EC
ENCODING 748
SWIDTH 500 0
DWIDTH 15 0
BBX 9 7 3 -8
BITMAP
C180
6300
6300
3600
3600
1C00
1C00
ENDCHAR
STARTCHAR 02ED
ENCODING 749
SWIDTH 500 0
DWIDTH 15 0
BBX 9 7 3 17
BITMAP
FF80
FF80
FF80
0000
FF80
FF80
FF80
ENDCHAR
STARTCHAR 02EE
ENCODING 750
SWIDTH 533 0
DWIDTH 16 0
BBX 10 7 3 15
BITMAP
71C0
71C0
71C0
71C0
6180
E380
C300
ENDCHAR
STARTCHAR 02F3
ENCODING 755
SWIDTH 500 0
DWIDTH 15 0
BBX 8 8 3 -7
BITMAP
3C
7E
E7
C3
C3
E7
7E
3C
ENDCHAR
STARTCHAR 02F7
ENCODING 759
SWIDTH 500 0
DWIDTH 15 0
BBX 10 4 3 -6
BITMAP
70C0
7CC0
CF80
C780
ENDCHAR
STARTCHAR 0300
ENCODING 768
SWIDTH 0 0
DWIDTH 0 0
BBX 7 6 -13 16
BITMAP
E0
70
38
18
0C
0E
ENDCHAR
STARTCHAR 0301
ENCODING 769
SWIDTH 0 0
DWIDTH 0 0
BBX 7 6 -10 16
BITMAP
0E
1C
38
30
60
E0
ENDCHAR
STARTCHAR 0302
ENCODING 770
SWIDTH 0 0
DWIDTH 0 0
BBX 9 6 -12 16
BITMAP
1C00
1C00
3600
7700
6300
C180
ENDCHAR
STARTCHAR 0303
ENCODING 771
SWIDTH 0 0
DWIDTH 0 0
BBX 10 4 -12 19
BITMAP
70C0
7CC0
CF80
C780
ENDCHAR
STARTCHAR 0304
ENCODING 772
SWIDTH 0 0
DWIDTH 0 0
BBX 9 3 -12 19
BITMAP
FF80
FF80
FF80
ENDCHAR
STARTCHAR 0305
ENCODING 773
SWIDTH 0 0
DWIDTH 0 0
BBX 15 3 -15 21
BITMAP
FFFE
FFFE
FFFE
ENDCHAR
STARTCHAR 0306
ENCODING 774
SWIDTH 0 0
DWIDTH 0 0
BBX 9 4 -12 20
BITMAP
C180
E380
7F00
3E00
ENDCHAR
STARTCHAR 0307
ENCODING 775
SWIDTH 0 0
DWIDTH 0 0
BBX 3 3 -9 16
BITMAP
E0
E0
E0
ENDCHAR
STARTCHAR 0308
ENCODING 776
SWIDTH 0 0
DWIDTH 0 0
BBX 9 3 -12 16
BITMAP
E380
E380
E380
ENDCHAR
STARTCHAR 0309
ENCODING 777
SWIDTH 0 0
DWIDTH 0 0
BBX 6 6 -10 19
BITMAP
78
FC
8C
0C
18
30
ENDCHAR
STARTCHAR 030A
ENCODING 778
SWIDTH 0 0
DWIDTH 0 0
BBX 8 8 -12 18
BITMAP
3C
7E
E7
C3
C3
E7
7E
3C
ENDCHAR
STARTCHAR 030B
ENCODING 779
SWIDTH 0 0
DWIDTH 0 0
BBX 10 6 -11 18
BITMAP
39C0
3180
7300
6700
6600
CC00
ENDCHAR
STARTCHAR 030C
ENCODING 780
SWIDTH 0 0
DWIDTH 0 0
BBX 9 6 -12 16
BITMAP
C180
6300
7700
3600
1C00
1C00
ENDCHAR
STARTCHAR 030D
ENCODING 781
SWIDTH 0 0
DWIDTH 0 0
BBX 2 7 -9 18
BITMAP
C0
C0
C0
C0
C0
C0
C0
ENDCHAR
STARTCHAR 030E
ENCODING 782
SWIDTH 0 0
DWIDTH 0 0
BBX 8 7 -12 18
BITMAP
C3
C3
C3
C3
C3
C3
C3
ENDCHAR
STARTCHAR 030F
ENCODING 783
SWIDTH 0 0
DWIDTH 0 0
BBX 10 6 -13 18
BITMAP
E700
6300
3380
3980
1980
0CC0
ENDCHAR
STARTCHAR 0310
ENCODING 784
SWIDTH 0 0
DWIDTH 0 0
BBX 9 8 -12 20
BITMAP
1C00
1C00
1C00
0000
C180
E380
7F00
3E00
ENDCHAR
STARTCHAR 0311
ENCODING 785
SWIDTH 0 0
DWIDTH 0 0
BBX 9 4 -12 19
BITMAP
3E00
7F00
E380
C180
ENDCHAR
STARTCHAR 0312
ENCODING 786
SWIDTH 0 0
DWIDTH 0 0
BBX 4 5 -7 15
BITMAP
30
30
70
60
E0
ENDCHAR
STARTCHAR 0313
ENCODING 787
SWIDTH 0 0
DWIDTH 0 0
BBX 3 7 -9 18
BITMAP
E0
E0
E0
60
60
E0
C0
ENDCHAR
STARTCHAR 0314
ENCODING 788
SWIDTH 0 0
DWIDTH 0 0
BBX 3 7 -9 18
BITMAP
E0
E0
E0
C0
C0
E0
60
ENDCHAR
STARTCHAR 0315
ENCODING 789
SWIDTH 0 0
DWIDTH 0 0
BBX 4 6 -2 17
BITMAP
70
70
60
E0
E0
C0
ENDCHAR
STARTCHAR 0316
ENCODING 790
SWIDTH 0 0
DWIDTH 0 0
BBX 7 6 -12 -8
BITMAP
E0
70
38
18
0C
0E
ENDCHAR
STARTCHAR 0317
ENCODING 791
SWIDTH 0 0
DWIDTH 0 0
BBX 7 6 -10 -8
BITMAP
0E
1C
38
30
60
E0
ENDCHAR
STARTCHAR 0318
ENCODING 792
SWIDTH 0 0
DWIDTH 0 0
BBX 4 6 -11 -7
BITMAP
10
10
F0
F0
10
10
ENDCHAR
STARTCHAR 0319
ENCODING 793
SWIDTH 0 0
DWIDTH 0 0
BBX 4 6 -8 -7
BITMAP
80
80
F0
F0
80
80
ENDCHAR
STARTCHAR 031A
ENCODING 794
SWIDTH 0 0
DWIDTH 0 0
BBX 7 7 -6 20
BITMAP
FE
FE
06
06
06
06
06
ENDCHAR
STARTCHAR 031B
ENCODING 795
SWIDTH 0 0
DWIDTH 0 0
BBX 6 5 -4 13
BITMAP
0C
0C
8C
FC
38
ENDCHAR
STARTCHAR 031C
ENCODING 796
SWIDTH 0 0
DWIDTH 0 0
BBX 3 7 -9 -7
BITMAP
60
60
C0
C0
C0
60
60
ENDCHAR
STARTCHAR 031D
ENCODING 797
SWIDTH 0 0
DWIDTH 0 0
BBX 7 4 -11 -7
BITMAP
38
38
FE
FE
ENDCHAR
STARTCHAR 031E
ENCODING 798
SWIDTH 0 0
DWIDTH 0 0
BBX 7 4 -11 -7
BITMAP
FE
FE
38
38
ENDCHAR
STARTCHAR 031F
ENCODING 799
SWIDTH 0 0
DWIDTH 0 0
BBX 7 6 -11 -7
BITMAP
10
10
FE
FE
10
10
ENDCHAR
STARTCHAR 0320
ENCODING 800
SWIDTH 0 0
DWIDTH 0 0
BBX 7 2 -11 -5
BITMAP
FE
FE
ENDCHAR
STARTCHAR 0321
ENCODING 801
SWIDTH 0 0
DWIDTH 0 0
BBX 8 8 -9 -7
BITMAP
03
03
03
03
07
07
FE
FC
ENDCHAR
STARTCHAR 0322
ENCODING 802
SWIDTH 0 0
DWIDTH 0 0
BBX 9 8 -10 -7
BITMAP
E000
E000
E000
6000
6000
7000
7F80
3F80
ENDCHAR
STARTCHAR 0323
ENCODING 803
SWIDTH 0 0
DWIDTH 0 0
BBX 3 4 -9 -6
BITMAP
E0
E0
E0
E0
ENDCHAR
STARTCHAR 0324
ENCODING 804
SWIDTH 0 0
DWIDTH 0 0
BBX 9 3 -12 -5
BITMAP
E380
E380
E380
ENDCHAR
STARTCHAR 0325
ENCODING 805
SWIDTH 0 0
DWIDTH 0 0
BBX 6 7 -11 -7
BITMAP
78
78
CC
CC
CC
78
78
ENDCHAR
STARTCHAR 0326
ENCODING 806
SWIDTH 0 0
DWIDTH 0 0
BBX 4 5 -10 -8
BITMAP
70
70
60
60
C0
ENDCHAR
STARTCHAR 0327
ENCODING 807
SWIDTH 0 0
DWIDTH 0 0
BBX 6 6 -11 -6
BITMAP
30
18
1C
1C
FC
F8
ENDCHAR
STARTCHAR 0328
ENCODING 808
SWIDTH 0 0
DWIDTH 0 0
BBX 5 6 -10 -6
BITMAP
70
60
E0
E0
F8
78
ENDCHAR
STARTCHAR 0329
ENCODING 809
SWIDTH 0 0
DWIDTH 0 0
BBX 2 6 -9 -7
BITMAP
C0
C0
C0
C0
C0
C0
ENDCHAR
STARTCHAR 032A
ENCODING 810
SWIDTH 0 0
DWIDTH 0 0
BBX 8 5 -11 -7
BITMAP
FF
FF
C3
C3
C3
ENDCHAR
STARTCHAR 032B
ENCODING 811
SWIDTH 0 0
DWIDTH 0 0
BBX 12 5 -14 -7
BITMAP
C210
4710
6730
7FF0
18C0
ENDCHAR
STARTCHAR 032C
ENCODING 812
SWIDTH 0 0
DWIDTH 0 0
BBX 9 6 -12 -8
BITMAP
C180
6300
7700
3600
1C00
1C00
ENDCHAR
STARTCHAR 032D
ENCODING 813
SWIDTH 0 0
DWIDTH 0 0
BBX 9 6 -12 -8
BITMAP
1C00
1C00
3600
7700
6300
C180
ENDCHAR
STARTCHAR 032E
ENCODING 814
SWIDTH 0 0
DWIDTH 0 0
BBX 9 4 -12 -6
BITMAP
C180
E380
7F00
3E00
ENDCHAR
STARTCHAR 032F
ENCODING 815
SWIDTH 0 0
DWIDTH 0 0
BBX 9 4 -12 -6
BITMAP
7F00
FF00
C180
C180
ENDCHAR
STARTCHAR 0330
ENCODING 816
SWIDTH 0 0
DWIDTH 0 0
BBX 10 4 -12 -7
BITMAP
70C0
7CC0
CF80
C780
ENDCHAR
STARTCHAR 0331
ENCODING 817
SWIDTH 0 0
DWIDTH 0 0
BBX 9 3 -12 -6
BITMAP
FF80
FF80
FF80
ENDCHAR
STARTCHAR 0332
ENCODING 818
SWIDTH 0 0
DWIDTH 0 0
BBX 15 3 -15 -7
BITMAP
FFFE
FFFE
FFFE
ENDCHAR
STARTCHAR 0333
ENCODING 819
SWIDTH 0 0
DWIDTH 0 0
BBX 15 8 -15 -7
BITMAP
FFFE
FFFE
FFFE
0000
0000
FFFE
FFFE
FFFE
ENDCHAR
STARTCHAR 0334
ENCODING 820
SWIDTH 0 0
DWIDTH 0 0
BBX 16 4 -17 8
BITMAP
7F03
FFFF
C1FE
8038
ENDCHAR
STARTCHAR 0335
ENCODING 821
SWIDTH 0 0
DWIDTH 0 0
BBX 8 2 -10 7
BITMAP
FF
FF
ENDCHAR
STARTCHAR 0336
ENCODING 822
SWIDTH 0 0
DWIDTH 0 0
BBX 19 2 -19 7
BITMAP
FFFFE0
FFFFE0
ENDCHAR
STARTCHAR 0337
ENCODING 823
SWIDTH 0 0
DWIDTH 0 0
BBX 16 19 -17 -2
BITMAP
0002
0003
0006
000C
0018
0038
0070
0060
00C0
0180
0380
0700
0E00
0C00
1800
3000
7000
E000
C000
ENDCHAR
STARTCHAR 0338
ENCODING 824
SWIDTH 0 0
DWIDTH 0 0
BBX 20 23 -22 -1
BITMAP
000030
000070
0000E0
0001C0
000380
000700
000600
000C00
001C00
003800
007000
00E000
00C000
018000
038000
070000
0E0000
1C0000
380000
300000
600000
E00000
400000
ENDCHAR
STARTCHAR 0339
ENCODING 825
SWIDTH 0 0
DWIDTH 0 0
BBX 3 7 -9 -7
BITMAP
C0
C0
60
60
60
C0
C0
ENDCHAR
STARTCHAR 033A
ENCODING 826
SWIDTH 0 0
DWIDTH 0 0
BBX 8 5 -11 -7
BITMAP
C3
C3
C3
FF
FF
ENDCHAR
STARTCHAR 033B
ENCODING 827
SWIDTH 0 0
DWIDTH 0 0
BBX 7 6 -11 -7
BITMAP
FE
C6
C6
C6
FE
FE
ENDCHAR
STARTCHAR 033C
ENCODING 828
SWIDTH 0 0
DWIDTH 0 0
BBX 12 4 -14 -6
BITMAP
7DE0
7FF0
4730
C210
ENDCHAR
STARTCHAR 033D
ENCODING 829
SWIDTH 0 0
DWIDTH 0 0
BBX 7 6 -11 19
BITMAP
44
EE
7C
38
7C
64
ENDCHAR
STARTCHAR 033E
ENCODING 830
SWIDTH 0 0
DWIDTH 0 0
BBX 4 8 -7 17
BITMAP
10
F0
C0
C0
60
30
F0
E0
ENDCHAR
STARTCHAR 033F
ENCODING 831
SWIDTH 0 0
DWIDTH 0 0
BBX 15 8 -15 16
BITMAP
FFFE
FFFE
FFFE
0000
0000
FFFE
FFFE
FFFE
ENDCHAR
STARTCHAR 0340
ENCODING 832
SWIDTH 0 0
DWIDTH 0 0
BBX 7 6 -12 18
BITMAP
E0
70
38
18
0C
0E
ENDCHAR
STARTCHAR 0341
ENCODING 833
SWIDTH 0 0
DWIDTH 0 0
BBX 7 6 -10 18
BITMAP
0E
1C
38
30
60
E0
ENDCHAR
STARTCHAR 0342
ENCODING 834
SWIDTH 0 0
DWIDTH 0 0
BBX 10 4 -12 19
BITMAP
70C0
7CC0
CF80
C780
ENDCHAR
STARTCHAR 0343
ENCODING 835
SWIDTH 0 0
DWIDTH 0 0
BBX 3 7 -9 18
BITMAP
E0
E0
E0
60
60
E0
C0
ENDCHAR
STARTCHAR 0344
ENCODING 836
SWIDTH 0 0
DWIDTH 0 0
BBX 9 10 -12 20
BITMAP
0380
0700
0E00
0C00
1800
3800
0000
E380
E380
E380
ENDCHAR
STARTCHAR 0345
ENCODING 837
SWIDTH 0 0
DWIDTH 0 0
BBX 4 5 -9 -7
BITMAP
E0
E0
E0
E0
70
ENDCHAR
STARTCHAR 0346
ENCODING 838
SWIDTH 0 0
DWIDTH 0 0
BBX 9 5 -12 19
BITMAP
FF80
FF80
FF80
C180
C180
ENDCHAR
STARTCHAR 0347
ENCODING 839
SWIDTH 0 0
DWIDTH 0 0
BBX 7 6 -11 -7
BITMAP
FE
FE
00
00
FE
FE
ENDCHAR
STARTCHAR 0348
ENCODING 840
SWIDTH 0 0
DWIDTH 0 0
BBX 7 6 -11 -8
BITMAP
C6
C6
C6
C6
C6
C6
ENDCHAR
STARTCHAR 0349
ENCODING 841
SWIDTH 0 0
DWIDTH 0 0
BBX 7 6 -11 -7
BITMAP
FE
FE
06
06
06
06
ENDCHAR
STARTCHAR 034A
ENCODING 842
SWIDTH 0 0
DWIDTH 0 0
BBX 9 6 -12 18
BITMAP
0600
7D80
FD80
DF80
D700
3000
ENDCHAR
STARTCHAR 034B
ENCODING 843
SWIDTH 0 0
DWIDTH 0 0
BBX 9 8 -12 18
BITMAP
0600
0600
7180
FD80
CF80
0000
3000
3000
ENDCHAR
STARTCHAR 034C
ENCODING 844
SWIDTH 0 0
DWIDTH 0 0
BBX 10 6 -12 18
BITMAP
7FC0
FF80
C000
78C0
FFC0
C780
ENDCHAR
STARTCHAR 034D
ENCODING 845
SWIDTH 0 0
DWIDTH 0 0
BBX 11 6 -13 -6
BITMAP
6080
6040
FFE0
FFE0
60C0
3180
ENDCHAR
STARTCHAR 034E
ENCODING 846
SWIDTH 0 0
DWIDTH 0 0
BBX 7 6 -11 -8
BITMAP
10
38
7C
D6
92
10
ENDCHAR
STARTCHAR 034F
ENCODING 847
SWIDTH 0 0
DWIDTH 0 0
BBX 0 0 0 0
BITMAP
ENDCHAR
STARTCHAR 0351
ENCODING 849
SWIDTH 0 0
DWIDTH 0 0
BBX 4 8 -10 19
BITMAP
30
70
60
C0
40
60
30
10
ENDCHAR
STARTCHAR 0352
ENCODING 850
SWIDTH 0 0
DWIDTH 0 0
BBX 9 5 -12 16
BITMAP
3E00
7F00
FF80
DD80
1C00
ENDCHAR
STARTCHAR 0353
ENCODING 851
SWIDTH 0 0
DWIDTH 0 0
BBX 7 6 -11 -7
BITMAP
44
EE
7C
38
7C
64
ENDCHAR
STARTCHAR 0357
ENCODING 855
SWIDTH 0 0
DWIDTH 0 0
BBX 4 8 -10 19
BITMAP
E0
70
30
10
10
30
E0
C0
ENDCHAR
STARTCHAR 0358
ENCODING 856
SWIDTH 0 0
DWIDTH 0 0
BBX 3 3 -3 20
BITMAP
E0
E0
E0
ENDCHAR
STARTCHAR 035A
ENCODING 858
SWIDTH 0 0
DWIDTH 0 0
BBX 11 6 -13 -7
BITMAP
7BC0
7FC0
CE60
C460
FFE0
7BC0
ENDCHAR
STARTCHAR 035C
ENCODING 860
SWIDTH 0 0
DWIDTH 0 0
BBX 26 5 -13 -7
BITMAP
80000040
F00003C0
7F003F80
0FFFFC00
00FFC000
ENDCHAR
STARTCHAR 035D
ENCODING 861
SWIDTH 0 0
DWIDTH 0 0
BBX 26 5 -13 24
BITMAP
80000040
F00003C0
7F003F80
0FFFFC00
00FFC000
ENDCHAR
STARTCHAR 035E
ENCODING 862
SWIDTH 0 0
DWIDTH 0 0
BBX 26 2 -13 25
BITMAP
FFFFFFC0
FFFFFFC0
ENDCHAR
STARTCHAR 035F
ENCODING 863
SWIDTH 0 0
DWIDTH 0 0
BBX 26 2 -13 -4
BITMAP
FFFFFFC0
FFFFFFC0
ENDCHAR
STARTCHAR 0360
ENCODING 864
SWIDTH 0 0
DWIDTH 0 0
BBX 22 4 -11 22
BITMAP
0F801C
3FF018
70FFF8
E01FE0
ENDCHAR
STARTCHAR 0361
ENCODING 865
SWIDTH 0 0
DWIDTH 0 0
BBX 26 5 -13 23
BITMAP
00FFC000
0FFFFC00
7F003F80
F00003C0
80000040
ENDCHAR
STARTCHAR 0362
ENCODING 866
SWIDTH 0 0
DWIDTH 0 0
BBX 26 6 -13 -6
BITMAP
00000300
00000180
FFFFFFC0
FFFFFFC0
00000180
00000300
ENDCHAR
STARTCHAR 0370
ENCODING 880
SWIDTH 666 0
DWIDTH 20 0
BBX 14 22 3 0
BITMAP
E000
E000
E000
E000
E000
E000
E000
E000
E000
FFFC
FFFC
FFFC
E000
E000
E000
E000
E000
E000
E000
E000
E000
E000
ENDCHAR
STARTCHAR 0371
ENCODING 881
SWIDTH 566 0
DWIDTH 17 0
BBX 11 16 3 1
BITMAP
E000
E000
E000
E000
E000
E000
FFE0
FFE0
E000
E000
E000
E000
E000
E000
E000
E000
ENDCHAR
STARTCHAR 0372
ENCODING 882
SWIDTH 866 0
DWIDTH 26 0
BBX 20 22 3 0
BITMAP
FFFFF0
FFFFF0
FFFFF0
E0E070
E0E070
E0E070
E0E070
E0E070
E0E070
E0E070
E0E070
E0E070
00E000
00E000
00E000
00E000
00E000
00E000
00E000
00E000
00E000
00E000
ENDCHAR
STARTCHAR 0373
ENCODING 883
SWIDTH 633 0
DWIDTH 19 0
BBX 13 22 3 0
BITMAP
FFF8
FFF8
FFF8
E718
E718
E718
E718
E718
E718
E718
E718
E718
0700
0700
0700
0700
0700
0700
0700
0700
0700
0700
ENDCHAR
STARTCHAR 0374
ENCODING 884
SWIDTH 266 0
DWIDTH 8 0
BBX 4 7 2 17
BITMAP
70
70
60
E0
E0
E0
C0
ENDCHAR
STARTCHAR 0375
ENCODING 885
SWIDTH 266 0
DWIDTH 8 0
BBX 4 7 2 -6
BITMAP
30
70
70
70
60
E0
E0
ENDCHAR
STARTCHAR 0376
ENCODING 886
SWIDTH 733 0
DWIDTH 22 0
BBX 17 22 3 0
BITMAP
E00780
E00F80
E01F80
E01F80
E03F80
E03B80
E07B80
E07380
E0F380
E0E380
E1E380
E3C380
E38380
E78380
E70380
EF0380
EE0380
FE0380
FC0380
FC0380
F80380
F00380
ENDCHAR
STARTCHAR 0377
ENCODING 887
SWIDTH 666 0
DWIDTH 20 0
BBX 14 16 3 0
BITMAP
E03C
E07C
E07C
E0FC
E1FC
E1DC
E3DC
E79C
E71C
EF1C
FE1C
FE1C
FC1C
F81C
F81C
F01C
ENDCHAR
STARTCHAR 037A
ENCODING 890
SWIDTH 500 0
DWIDTH 15 0
BBX 4 5 6 -7
BITMAP
E0
E0
E0
E0
70
ENDCHAR
STARTCHAR 037B
ENCODING 891
SWIDTH 533 0
DWIDTH 16 0
BBX 13 16 2 0
BITMAP
7F00
FFC0
FFE0
81F0
0070
0078
0038
0038
0038
0038
0078
0070
81F0
FFE0
FFC0
7F00
ENDCHAR
STARTCHAR 037C
ENCODING 892
SWIDTH 566 0
DWIDTH 17 0
BBX 13 16 2 0
BITMAP
07F0
1FF8
3FF8
7C08
7000
F000
E380
E380
E380
E380
F000
7000
7C08
3FF8
1FF8
07F0
ENDCHAR
STARTCHAR 037D
ENCODING 893
SWIDTH 533 0
DWIDTH 16 0
BBX 13 16 2 0
BITMAP
7F00
FFC0
FFE0
81F0
0070
0078
1C38
1C38
1C38
1C38
0078
0070
81F0
FFE0
FFC0
7F00
ENDCHAR
STARTCHAR 037E
ENCODING 894
SWIDTH 333 0
DWIDTH 10 0
BBX 4 19 3 -3
BITMAP
70
70
70
70
00
00
00
00
00
00
00
00
70
70
70
70
60
E0
C0
ENDCHAR
STARTCHAR 0384
ENCODING 900
SWIDTH 500 0
DWIDTH 15 0
BBX 7 6 5 18
BITMAP
0E
1C
38
30
60
E0
ENDCHAR
STARTCHAR 0385
ENCODING 901
SWIDTH 500 0
DWIDTH 15 0
BBX 9 10 3 20
BITMAP
0380
0700
0E00
0C00
1800
3800
0000
E380
E380
E380
ENDCHAR
STARTCHAR 0386
ENCODING 902
SWIDTH 700 0
DWIDTH 21 0
BBX 20 24 0 0
BITMAP
070000
0E0000
1CF000
18F000
31F800
71F800
01F800
039C00
039C00
079E00
070E00
070E00
0F0F00
0E0700
0E0700
1C0380
1FFF80
3FFFC0
3FFFC0
3801C0
7801E0
7000E0
7000E0
E00070
ENDCHAR
STARTCHAR 0387
ENCODING 903
SWIDTH 333 0
DWIDTH 10 0
BBX 3 4 3 8
BITMAP
E0
E0
E0
E0
ENDCHAR
STARTCHAR 0388
ENCODING 904
SWIDTH 733 0
DWIDTH 22 0
BBX 21 24 -1 0
BITMAP
0E0000
1C0000
39FFF8
31FFF8
61FFF8
E1C000
01C000
01C000
01C000
01C000
01C000
01FFF0
01FFF0
01FFF0
01C000
01C000
01C000
01C000
01C000
01C000
01C000
01FFF8
01FFF8
01FFF8
ENDCHAR
STARTCHAR 0389
ENCODING 905
SWIDTH 866 0
DWIDTH 26 0
BBX 24 24 -1 0
BITMAP
0E0000
1C0000
39C007
31C007
61C007
E1C007
01C007
01C007
01C007
01C007
01C007
01FFFF
01FFFF
01FFFF
01C007
01C007
01C007
01C007
01C007
01C007
01C007
01C007
01C007
01C007
ENDCHAR
STARTCHAR 038A
ENCODING 906
SWIDTH 400 0
DWIDTH 12 0
BBX 10 24 -1 0
BITMAP
0E00
1C00
39C0
31C0
61C0
E1C0
01C0
01C0
01C0
01C0
01C0
01C0
01C0
01C0
01C0
01C0
01C0
01C0
01C0
01C0
01C0
01C0
01C0
01C0
ENDCHAR
STARTCHAR 038C
ENCODING 908
SWIDTH 800 0
DWIDTH 24 0
BBX 24 24 -1 0
BITMAP
0E0000
1C0000
381F80
30FFE0
61FFF8
E3E07C
03C03C
07801E
07000E
0F000F
0E0007
0E0007
0E0007
0E0007
0E0007
0E0007
0F000F
07000E
07801E
03C03C
03E07C
01FFF8
00FFF0
001F80
ENDCHAR
STARTCHAR 038E
ENCODING 910
SWIDTH 833 0
DWIDTH 25 0
BBX 26 24 -1 0
BITMAP
0E000000
1C000000
39E003C0
30F00780
60700700
E0780F00
003C1E00
001C3C00
000E3C00
000F7800
0007F000
0003E000
0003E000
0001C000
0001C000
0001C000
0001C000
0001C000
0001C000
0001C000
0001C000
0001C000
0001C000
0001C000
ENDCHAR
STARTCHAR 038F
ENCODING 911
SWIDTH 833 0
DWIDTH 25 0
BBX 24 24 -1 0
BITMAP
0E0000
1C0000
381F80
30FFF0
61FFF8
E3E07C
07801E
07801E
07000E
0E0007
0E0007
0E0007
0E0007
0E0007
0E0007
0F000F
07000E
07800E
03801C
01E038
00F070
0FF8FF
0FF8FF
0FF8FF
ENDCHAR
STARTCHAR 0390
ENCODING 912
SWIDTH 366 0
DWIDTH 11 0
BBX 10 30 0 0
BITMAP
0380
0700
0E00
0C00
1800
3800
0000
E380
E380
E380
0000
0000
0000
0000
1C00
1C00
1C00
1C00
1C00
1C00
1C00
1C00
1C00
1C00
1C00
1C00
1E00
0FC0
0FC0
03C0
ENDCHAR
STARTCHAR 0391
ENCODING 913
SWIDTH 700 0
DWIDTH 21 0
BBX 20 22 0 0
BITMAP
00F000
00F000
01F800
01F800
01F800
039C00
039C00
079E00
070E00
070E00
0F0F00
0E0700
0E0700
1C0380
1FFF80
3FFFC0
3FFFC0
3801C0
7801E0
7000E0
7000E0
E00070
ENDCHAR
STARTCHAR 0392
ENCODING 914
SWIDTH 700 0
DWIDTH 21 0
BBX 16 22 3 0
BITMAP
FFE0
FFF8
FFFC
E03E
E00E
E00E
E00E
E00E
E03C
FFF8
FFF0
FFFC
E01E
E00F
E007
E007
E007
E00F
E01F
FFFE
FFFC
FFF0
ENDCHAR
STARTCHAR 0393
ENCODING 915
SWIDTH 566 0
DWIDTH 17 0
BBX 14 22 3 0
BITMAP
FFFC
FFFC
FFFC
E000
E000
E000
E000
E000
E000
E000
E000
E000
E000
E000
E000
E000
E000
E000
E000
E000
E000
E000
ENDCHAR
STARTCHAR 0394
ENCODING 916
SWIDTH 666 0
DWIDTH 20 0
BBX 20 22 0 0
BITMAP
00F000
00F000
01F800
01F800
01F800
039C00
039C00
079E00
070E00
070E00
0F0F00
0E0700
0E0700
1C0380
1C0380
3C03C0
3801C0
3801C0
7801E0
7FFFE0
7FFFE0
FFFFF0
ENDCHAR
STARTCHAR 0395
ENCODING 917
SWIDTH 633 0
DWIDTH 19 0
BBX 14 22 3 0
BITMAP
FFFC
FFFC
FFFC
E000
E000
E000
E000
E000
E000
FFF8
FFF8
FFF8
E000
E000
E000
E000
E000
E000
E000
FFFC
FFFC
FFFC
ENDCHAR
STARTCHAR 0396
ENCODING 918
SWIDTH 700 0
DWIDTH 21 0
BBX 18 22 1 0
BITMAP
FFFFC0
FFFFC0
FFFFC0
000780
000F00
001E00
001E00
003C00
007800
00F000
01E000
01E000
03C000
078000
0F0000
1E0000
1E0000
3C0000
780000
FFFFC0
FFFFC0
FFFFC0
ENDCHAR
STARTCHAR 0397
ENCODING 919
SWIDTH 766 0
DWIDTH 23 0
BBX 17 22 3 0
BITMAP
E00380
E00380
E00380
E00380
E00380
E00380
E00380
E00380
E00380
FFFF80
FFFF80
FFFF80
E00380
E00380
E00380
E00380
E00380
E00380
E00380
E00380
E00380
E00380
ENDCHAR
STARTCHAR 0398
ENCODING 920
SWIDTH 800 0
DWIDTH 24 0
BBX 20 22 2 0
BITMAP
01F800
0FFE00
1FFF80
3E07C0
3C03C0
7801E0
7000E0
F000F0
E00070
E7FE70
E7FE70
E7FE70
E00070
E00070
F000F0
7000E0
7801E0
3C03C0
3E07C0
1FFF80
0FFF00
01F800
ENDCHAR
STARTCHAR 0399
ENCODING 921
SWIDTH 300 0
DWIDTH 9 0
BBX 3 22 3 0
BITMAP
E0
E0
E0
E0
E0
E0
E0
E0
E0
E0
E0
E0
E0
E0
E0
E0
E0
E0
E0
E0
E0
E0
ENDCHAR
STARTCHAR 039A
ENCODING 922
SWIDTH 666 0
DWIDTH 20 0
BBX 17 22 3 0
BITMAP
E01F00
E03E00
E07800
E0F000
E1E000
E3C000
E78000
EF0000
FE0000
FC0000
FC0000
FE0000
EF0000
E78000
E3C000
E1E000
E1F000
E0F800
E07C00
E03E00
E01F00
E00F80
ENDCHAR
STARTCHAR 039B
ENCODING 923
SWIDTH 666 0
DWIDTH 20 0
BBX 20 22 0 0
BITMAP
00F000
00F000
01F800
01F800
01F800
039C00
039C00
079E00
070E00
070E00
0F0F00
0E0700
0E0700
1C0380
1C0380
3C03C0
3801C0
3801C0
7801E0
7000E0
7000E0
E00070
ENDCHAR
STARTCHAR 039C
ENCODING 924
SWIDTH 866 0
DWIDTH 26 0
BBX 20 22 3 0
BITMAP
F801F0
FC03F0
FC03F0
FC03F0
EE0770
EE0770
EF0F70
E70E70
E70E70
E79E70
E39C70
E39C70
E1F870
E1F870
E1F870
E0F070
E0F070
E0F070
E00070
E00070
E00070
E00070
ENDCHAR
STARTCHAR 039D
ENCODING 925
SWIDTH 733 0
DWIDTH 22 0
BBX 17 22 3 0
BITMAP
F00380
F80380
FC0380
FC0380
FE0380
EE0380
EF0380
E70380
E78380
E38380
E1C380
E1E380
E0E380
E0F380
E07380
E07B80
E03B80
E03F80
E01F80
E01F80
E00F80
E00780
ENDCHAR
STARTCHAR 039E
ENCODING 926
SWIDTH 666 0
DWIDTH 20 0
BBX 14 22 3 0
BITMAP
FFFC
FFFC
FFFC
0000
0000
0000
0000
0000
0000
3FF0
3FF0
3FF0
0000
0000
0000
0000
0000
0000
0000
FFFC
FFFC
FFFC
ENDCHAR
STARTCHAR 039F
ENCODING 927
SWIDTH 800 0
DWIDTH 24 0
BBX 20 22 2 0
BITMAP
01F800
0FFE00
1FFF80
3E07C0
3C03C0
7801E0
7000E0
F000F0
E00070
E00070
E00070
E00070
E00070
E00070
F000F0
7000E0
7801E0
3C03C0
3E07C0
1FFF80
0FFF00
01F800
ENDCHAR
STARTCHAR 03A0
ENCODING 928
SWIDTH 766 0
DWIDTH 23 0
BBX 17 22 3 0
BITMAP
FFFF80
FFFF80
FFFF80
E00380
E00380
E00380
E00380
E00380
E00380
E00380
E00380
E00380
E00380
E00380
E00380
E00380
E00380
E00380
E00380
E00380
E00380
E00380
ENDCHAR
STARTCHAR 03A1
ENCODING 929
SWIDTH 600 0
DWIDTH 18 0
BBX 14 22 3 0
BITMAP
FFC0
FFF0
FFF8
E078
E03C
E01C
E01C
E01C
E03C
E078
FFF8
FFF0
FFC0
E000
E000
E000
E000
E000
E000
E000
E000
E000
ENDCHAR
STARTCHAR 03A3
ENCODING 931
SWIDTH 633 0
DWIDTH 19 0
BBX 14 22 3 0
BITMAP
FFFC
FFFC
FFFC
F800
7C00
3E00
1E00
0F00
0780
03C0
01E0
03C0
0780
0F00
0F00
1E00
3C00
7800
F000
FFFC
FFFC
FFFC
ENDCHAR
STARTCHAR 03A4
ENCODING 932
SWIDTH 600 0
DWIDTH 18 0
BBX 19 22 0 0
BITMAP
FFFFE0
FFFFE0
FFFFE0
00E000
00E000
00E000
00E000
00E000
00E000
00E000
00E000
00E000
00E000
00E000
00E000
00E000
00E000
00E000
00E000
00E000
00E000
00E000
ENDCHAR
STARTCHAR 03A5
ENCODING 933
SWIDTH 600 0
DWIDTH 18 0
BBX 19 22 0 0
BITMAP
F001E0
7803C0
380380
3C0780
1E0F00
0E1E00
071E00
07BC00
03F800
01F000
01F000
00E000
00E000
00E000
00E000
00E000
00E000
00E000
00E000
00E000
00E000
00E000
ENDCHAR
STARTCHAR 03A6
ENCODING 934
SWIDTH 833 0
DWIDTH 25 0
BBX 21 22 2 0
BITMAP
007000
007000
01FC00
0FFF80
1FFFC0
3E73E0
7870F0
707070
F07078
E07038
E07038
E07038
E07038
E07078
707070
7870F0
3E73E0
1FFFC0
0FFF80
03FE00
007000
007000
ENDCHAR
STARTCHAR 03A7
ENCODING 935
SWIDTH 700 0
DWIDTH 21 0
BBX 19 22 1 0
BITMAP
7801E0
3C03C0
1C0380
1E0780
0F0F00
070E00
079C00
03FC00
01F800
01F000
00F000
01F000
01F800
03F800
079C00
071E00
0E0E00
1E0700
3C0780
380380
7803C0
F001E0
ENDCHAR
STARTCHAR 03A8
ENCODING 936
SWIDTH 833 0
DWIDTH 25 0
BBX 21 22 2 0
BITMAP
E07038
E07038
E07038
E07038
E07038
E07038
E07038
E07038
E07038
F07078
707070
7870F0
3C71E0
3E73E0
1FFFC0
07FF00
03FE00
007000
007000
007000
007000
007000
ENDCHAR
STARTCHAR 03A9
ENCODING 937
SWIDTH 800 0
DWIDTH 24 0
BBX 20 22 2 0
BITMAP
01F800
0FFF00
1FFF80
3E07C0
7801E0
7801E0
7000E0
E00070
E00070
E00070
E00070
E00070
E00070
F000F0
7000E0
7800E0
3801C0
1E0380
0F0700
FF8FF0
FF8FF0
FF8FF0
ENDCHAR
STARTCHAR 03AA
ENCODING 938
SWIDTH 300 0
DWIDTH 9 0
BBX 9 27 0 0
BITMAP
E380
E380
E380
0000
0000
1C00
1C00
1C00
1C00
1C00
1C00
1C00
1C00
1C00
1C00
1C00
1C00
1C00
1C00
1C00
1C00
1C00
1C00
1C00
1C00
1C00
1C00
ENDCHAR
STARTCHAR 03AB
ENCODING 939
SWIDTH 600 0
DWIDTH 18 0
BBX 19 27 0 0
BITMAP
071C00
071C00
071C00
000000
000000
F001E0
7803C0
380380
3C0780
1E0F00
0E1E00
071E00
07BC00
03F800
01F000
01F000
00E000
00E000
00E000
00E000
00E000
00E000
00E000
00E000
00E000
00E000
00E000
ENDCHAR
STARTCHAR 03AC
ENCODING 940
SWIDTH 666 0
DWIDTH 20 0
BBX 17 24 2 0
BITMAP
007000
00E000
01C000
018000
030000
070000
000000
000000
0FC700
3FEF00
7FFE00
78FE00
F07E00
E03C00
E03C00
E03C00
E03800
E03C00
E07C00
F07C00
78FE00
7FFF80
3FEF80
0FC780
ENDCHAR
STARTCHAR 03AD
ENCODING 941
SWIDTH 533 0
DWIDTH 16 0
BBX 12 24 2 0
BITMAP
00E0
01C0
0380
0300
0600
0E00
0000
0000
1F80
7FE0
FFE0
F020
E000
F000
7F80
1F80
7F80
F000
E000
E000
F010
7FF0
7FF0
1FC0
ENDCHAR
STARTCHAR 03AE
ENCODING 942
SWIDTH 666 0
DWIDTH 20 0
BBX 14 30 3 -6
BITMAP
0070
00E0
01C0
0180
0300
0700
0000
0000
E3E0
EFF0
FFF8
F87C
F03C
E01C
E01C
E01C
E01C
E01C
E01C
E01C
E01C
E01C
E01C
E01C
001C
001C
001C
001C
001C
001C
ENDCHAR
STARTCHAR 03AF
ENCODING 943
SWIDTH 366 0
DWIDTH 11 0
BBX 8 24 2 0
BITMAP
0E
1C
38
30
60
E0
00
00
70
70
70
70
70
70
70
70
70
70
70
70
78
3F
3F
0F
ENDCHAR
STARTCHAR 03B0
ENCODING 944
SWIDTH 600 0
DWIDTH 18 0
BBX 13 30 3 -1
BITMAP
0380
0700
0E00
0C00
1800
3800
E380
E380
E380
0000
0000
0000
0000
0000
E0E0
E070
E070
E038
E038
E038
E038
E038
E038
E078
E070
E0F0
F1E0
7FE0
3FC0
1F00
ENDCHAR
STARTCHAR 03B1
ENCODING 945
SWIDTH 666 0
DWIDTH 20 0
BBX 17 16 2 0
BITMAP
0FC700
3FEF00
7FFE00
78FE00
F07E00
E03C00
E03C00
E03C00
E03800
E03C00
E07C00
F07C00
78FE00
7FFF80
3FEF80
0FC780
ENDCHAR
STARTCHAR 03B2
ENCODING 946
SWIDTH 633 0
DWIDTH 19 0
BBX 14 29 3 -6
BITMAP
1F80
3FE0
7FE0
F0F0
F070
E070
E070
E070
E0F0
E1E0
E7C0
E7C0
E7F0
E078
E03C
E01C
E01C
E01C
F03C
F878
FFF8
FFF0
EFC0
E000
E000
E000
E000
E000
E000
ENDCHAR
STARTCHAR 03B3
ENCODING 947
SWIDTH 566 0
DWIDTH 17 0
BBX 16 22 0 -6
BITMAP
E007
F80E
780E
3C1E
1C1C
1C1C
0E3C
0E38
0F38
0770
0770
07F0
03E0
03E0
03E0
01C0
01C0
01C0
01C0
01C0
01C0
01C0
ENDCHAR
STARTCHAR 03B4
ENCODING 948
SWIDTH 633 0
DWIDTH 19 0
BBX 15 23 2 0
BITMAP
07E0
1FF8
3FF8
3C08
3800
3800
1F00
1FE0
38F8
703C
701C
E00E
E00E
E00E
E00E
E00E
E00E
F01E
701C
787C
3FF8
1FF0
07C0
ENDCHAR
STARTCHAR 03B5
ENCODING 949
SWIDTH 533 0
DWIDTH 16 0
BBX 12 16 2 0
BITMAP
1F80
7FE0
FFE0
F020
E000
F000
7F80
1F80
7F80
F000
E000
E000
F010
7FF0
7FF0
1FC0
ENDCHAR
STARTCHAR 03B6
ENCODING 950
SWIDTH 600 0
DWIDTH 18 0
BBX 14 30 2 -7
BITMAP
7FFC
7FFC
7FFC
00F8
03E0
0780
0F00
1E00
3C00
7800
7000
7000
E000
E000
E000
E000
E000
F000
7000
7C00
3FF0
1FF8
07F8
003C
001C
001C
003C
0078
0078
0060
ENDCHAR
STARTCHAR 03B7
ENCODING 951
SWIDTH 666 0
DWIDTH 20 0
BBX 14 22 3 -6
BITMAP
E3E0
EFF0
FFF8
F87C
F03C
E01C
E01C
E01C
E01C
E01C
E01C
E01C
E01C
E01C
E01C
E01C
001C
001C
001C
001C
001C
001C
ENDCHAR
STARTCHAR 03B8
ENCODING 952
SWIDTH 633 0
DWIDTH 19 0
BBX 15 23 2 0
BITMAP
07C0
1FF0
3FF8
3C78
783C
701C
701C
E00E
E00E
E00E
FFFE
FFFE
FFFE
E00E
E00E
E00E
601C
701C
701C
3C78
3FF8
1FF0
07C0
ENDCHAR
STARTCHAR 03B9
ENCODING 953
SWIDTH 366 0
DWIDTH 11 0
BBX 7 16 3 0
BITMAP
E0
E0
E0
E0
E0
E0
E0
E0
E0
E0
E0
E0
F0
7E
7E
1E
ENDCHAR
STARTCHAR 03BA
ENCODING 954
SWIDTH 600 0
DWIDTH 18 0
BBX 14 16 3 0
BITMAP
E0F0
E1E0
E3C0
E780
EF00
FE00
FE00
FF00
F700
E780
E3C0
E1E0
E0E0
E0F0
E078
E03C
ENDCHAR
STARTCHAR 03BB
ENCODING 955
SWIDTH 600 0
DWIDTH 18 0
BBX 16 23 1 0
BITMAP
3C00
3F00
3F00
0780
0380
0380
03C0
01C0
03C0
03E0
03E0
07F0
0770
0F70
0E38
1E38
1C38
3C1C
381C
381E
700E
700E
F007
ENDCHAR
STARTCHAR 03BC
ENCODING 956
SWIDTH 633 0
DWIDTH 19 0
BBX 16 22 3 -6
BITMAP
E01C
E01C
E01C
E01C
E01C
E01C
E01C
E01C
E01C
E01C
E01C
E03C
F07C
FFFC
EFCF
E78E
E000
E000
E000
E000
E000
E000
ENDCHAR
STARTCHAR 03BD
ENCODING 957
SWIDTH 533 0
DWIDTH 16 0
BBX 14 16 1 0
BITMAP
E070
F038
7038
7018
781C
381C
381C
381C
1C3C
1C38
1C70
0E70
0EE0
0FC0
0780
0780
ENDCHAR
STARTCHAR 03BE
ENCODING 958
SWIDTH 600 0
DWIDTH 18 0
BBX 14 30 2 -7
BITMAP
7FF8
7FF8
7FF8
1F00
3800
7000
7000
7000
7800
3E00
3FF0
07F0
3FF0
7C00
7000
E000
E000
E000
F000
7C00
7FF0
3FF8
07F8
003C
001C
001C
003C
0078
0078
0060
ENDCHAR
STARTCHAR 03BF
ENCODING 959
SWIDTH 600 0
DWIDTH 18 0
BBX 15 16 2 0
BITMAP
0FE0
1FF0
3FF8
783C
701C
E01E
E00E
E00E
E00E
E00E
E01E
701C
783C
3FF8
1FF0
0FE0
ENDCHAR
STARTCHAR 03C0
ENCODING 960
SWIDTH 600 0
DWIDTH 18 0
BBX 17 16 1 0
BITMAP
FFFF00
FFFF00
FFFF00
381C00
381C00
381C00
381C00
381C00
381C00
381C00
381C00
381C00
381C00
381F80
381F80
380F80
ENDCHAR
STARTCHAR 03C1
ENCODING 961
SWIDTH 666 0
DWIDTH 20 0
BBX 15 22 3 -6
BITMAP
0FE0
1FF0
3FF8
783C
701C
E00E
E00E
E00E
E00E
E00E
E00E
F01C
F83C
FFF8
EFF0
E3E0
E000
E000
E000
E000
E000
E000
ENDCHAR
STARTCHAR 03C2
ENCODING 962
SWIDTH 600 0
DWIDTH 18 0
BBX 13 23 2 -7
BITMAP
07F0
1FF8
3FF8
7C08
7000
F000
E000
E000
E000
E000
F000
7000
7C00
3FE0
1FF0
07F0
0078
0038
0038
0078
00F0
00F0
00C0
ENDCHAR
STARTCHAR 03C3
ENCODING 963
SWIDTH 633 0
DWIDTH 19 0
BBX 16 16 2 0
BITMAP
0FFF
3FFF
7FFF
783C
F01C
E00E
E00E
E00E
E00E
E00E
E01E
701C
783C
3FF8
1FF0
07E0
ENDCHAR
STARTCHAR 03C4
ENCODING 964
SWIDTH 633 0
DWIDTH 19 0
BBX 15 16 2 0
BITMAP
FFFE
FFFE
FFFE
0380
0380
0380
0380
0380
0380
0380
0380
0380
03C0
01F8
01F8
0078
ENDCHAR
STARTCHAR 03C5
ENCODING 965
SWIDTH 600 0
DWIDTH 18 0
BBX 13 16 3 -1
BITMAP
E0E0
E070
E070
E038
E038
E038
E038
E038
E038
E078
E070
E0F0
F1E0
7FE0
3FC0
1F00
ENDCHAR
STARTCHAR 03C6
ENCODING 966
SWIDTH 700 0
DWIDTH 21 0
BBX 17 22 2 -6
BITMAP
0C7800
3CFE00
7DFE00
79CF00
F1C780
E1C380
E1C380
E1C380
E1C380
E1C380
E1C380
71C700
79CF00
3FFE00
1FFC00
0FF800
01C000
01C000
01C000
01C000
01C000
01C000
ENDCHAR
STARTCHAR 03C7
ENCODING 967
SWIDTH 600 0
DWIDTH 18 0
BBX 16 22 1 -6
BITMAP
F00F
FC0E
FC1E
1E1C
0E38
0E78
0770
07F0
07E0
03E0
03C0
03C0
07C0
07E0
0FE0
0EE0
1E70
1C70
3878
783F
701F
F00F
ENDCHAR
STARTCHAR 03C8
ENCODING 968
SWIDTH 700 0
DWIDTH 21 0
BBX 17 22 2 -6
BITMAP
E1C380
E1C380
E1C380
E1C380
E1C380
E1C380
E1C380
E1C380
E1C380
E1C380
E1C380
F1C780
79CF00
7FFF00
3FFE00
07F000
01C000
01C000
01C000
01C000
01C000
01C000
ENDCHAR
STARTCHAR 03C9
ENCODING 969
SWIDTH 833 0
DWIDTH 25 0
BBX 21 16 2 0
BITMAP
3800E0
700070
700070
700070
E00038
E00038
E00038
E07038
E07038
E07038
E07038
F0F878
79D8F0
7FDFF0
3F9FE0
1F07C0
ENDCHAR
STARTCHAR 03CA
ENCODING 970
SWIDTH 366 0
DWIDTH 11 0
BBX 10 23 0 0
BITMAP
E380
E380
E380
0000
0000
0000
0000
1C00
1C00
1C00
1C00
1C00
1C00
1C00
1C00
1C00
1C00
1C00
1C00
1E00
0FC0
0FC0
03C0
ENDCHAR
STARTCHAR 03CB
ENCODING 971
SWIDTH 600 0
DWIDTH 18 0
BBX 13 23 3 -1
BITMAP
E380
E380
E380
0000
0000
0000
0000
E0E0
E070
E070
E038
E038
E038
E038
E038
E038
E078
E070
E0F0
F1E0
7FE0
3FC0
1F00
ENDCHAR
STARTCHAR 03CC
ENCODING 972
SWIDTH 600 0
DWIDTH 18 0
BBX 15 24 2 0
BITMAP
0070
00E0
01C0
0180
0300
0700
0000
0000
0FE0
1FF0
3FF8
783C
701C
E01E
E00E
E00E
E00E
E00E
E01E
701C
783C
3FF8
1FF0
0FE0
ENDCHAR
STARTCHAR 03CD
ENCODING 973
SWIDTH 600 0
DWIDTH 18 0
BBX 13 24 3 -1
BITMAP
01C0
0380
0700
0600
0C00
1C00
0000
0000
E0E0
E070
E070
E038
E038
E038
E038
E038
E038
E078
E070
E0F0
F1E0
7FE0
3FC0
1F00
ENDCHAR
STARTCHAR 03CE
ENCODING 974
SWIDTH 833 0
DWIDTH 25 0
BBX 21 24 2 0
BITMAP
000E00
001C00
003800
003000
006000
00E000
000000
000000
3800E0
700070
700070
700070
E00038
E00038
E00038
E07038
E07038
E07038
E07038
F0F878
79D8F0
7FDFF0
3F9FE0
1F07C0
ENDCHAR
STARTCHAR 03CF
ENCODING 975
SWIDTH 666 0
DWIDTH 20 0
BBX 17 28 3 -7
BITMAP
E00F00
E01E00
E03C00
E07800
E0F000
E1E000
E3C000
E78000
EF0000
FE0000
FC0000
FE0000
EF0000
E78000
E3C000
E1E000
E0F000
E07800
E03C00
E01E00
E00F00
E00780
000380
000700
000600
000C00
001800
003800
ENDCHAR
STARTCHAR 03D0
ENCODING 976
SWIDTH 633 0
DWIDTH 19 0
BBX 14 23 3 1
BITMAP
07C0
1FE0
3FF0
3C78
7038
7038
E038
E038
E070
E0F0
FFE0
FFE0
FFF0
E078
E03C
E01C
E01C
701C
703C
7878
3FF8
1FF0
07C0
ENDCHAR
STARTCHAR 03D1
ENCODING 977
SWIDTH 633 0
DWIDTH 19 0
BBX 15 23 2 0
BITMAP
03E0
07F0
0FF8
1E3C
1C1C
1C0C
1C0E
1E0E
0F0E
0FFE
E7FE
E1FE
E00E
E00E
E00E
E00E
701C
701C
783C
3C78
3FF8
1FF0
07C0
ENDCHAR
STARTCHAR 03D2
ENCODING 978
SWIDTH 700 0
DWIDTH 21 0
BBX 19 22 1 0
BITMAP
F803C0
FE07E0
FF0FE0
0F1DE0
07B8C0
03B800
01B000
01F000
01E000
00E000
00E000
00E000
00E000
00E000
00E000
00E000
00E000
00E000
00E000
00E000
00E000
00E000
ENDCHAR
STARTCHAR 03D3
ENCODING 979
SWIDTH 833 0
DWIDTH 25 0
BBX 26 24 -1 0
BITMAP
0E000000
1C000000
39F00780
31FC0FC0
61FE1FC0
E01E3BC0
000F7180
00077000
00036000
0003E000
0003C000
0001C000
0001C000
0001C000
0001C000
0001C000
0001C000
0001C000
0001C000
0001C000
0001C000
0001C000
0001C000
0001C000
ENDCHAR
STARTCHAR 03D4
ENCODING 980
SWIDTH 700 0
DWIDTH 21 0
BBX 19 27 1 0
BITMAP
071C00
071C00
071C00
000000
000000
F803C0
FE07E0
FF0FE0
0F1DE0
07B8C0
03B800
01B000
01F000
01E000
00E000
00E000
00E000
00E000
00E000
00E000
00E000
00E000
00E000
00E000
00E000
00E000
00E000
ENDCHAR
STARTCHAR 03D5
ENCODING 981
SWIDTH 700 0
DWIDTH 21 0
BBX 17 29 2 -6
BITMAP
01C000
01C000
01C000
01C000
01C000
01C000
01C000
0FF800
1FFC00
3FFE00
79CF00
71C700
E1C380
E1C380
E1C380
E1C380
E1C380
E1C380
71C700
79CF00
3FFE00
1FFC00
0FF800
01C000
01C000
01C000
01C000
01C000
01C000
ENDCHAR
STARTCHAR 03D6
ENCODING 982
SWIDTH 833 0
DWIDTH 25 0
BBX 23 16 1 -1
BITMAP
FFFFFE
FFFFFE
FFFFFE
380038
380038
70001C
70001C
70381C
70381C
70381C
70381C
787C3C
3C6C78
3FEFF8
1FCFF0
0F83E0
ENDCHAR
STARTCHAR 03D7
ENCODING 983
SWIDTH 666 0
DWIDTH 20 0
BBX 16 22 2 -6
BITMAP
F807
FC0F
8E1E
061E
063C
0638
06F0
0FE0
0FE0
1E60
3C60
7860
7861
F073
E03E
C01E
0006
000E
000E
011C
01F8
01F0
ENDCHAR
STARTCHAR 03D8
ENCODING 984
SWIDTH 833 0
DWIDTH 25 0
BBX 21 28 2 -6
BITMAP
01FC00
07FF00
1FFFC0
3F07E0
3C01E0
7800F0
700070
F00078
E00038
E00038
E00038
E00038
E00038
E00038
F00078
700070
7800F0
3C01E0
3F07E0
1FFFC0
07FF00
01FC00
007000
007000
007000
007000
007000
007000
ENDCHAR
STARTCHAR 03D9
ENCODING 985
SWIDTH 633 0
DWIDTH 19 0
BBX 15 22 2 -6
BITMAP
0FC0
1FF0
3FF8
783C
701C
E01E
E00E
E00E
E00E
E00E
E01E
701C
783C
3FF8
3FF0
0FE0
0380
0380
0380
0380
0380
0380
ENDCHAR
STARTCHAR 03DA
ENCODING 986
SWIDTH 633 0
DWIDTH 19 0
BBX 15 29 2 -7
BITMAP
03FE
0FFE
1FFE
3C00
7800
7000
7000
E000
E000
E000
E000
E000
E000
E000
E000
7000
7000
7800
3C00
3FE0
1FF0
07F0
0078
0038
0038
0078
00F0
00F0
00C0
ENDCHAR
STARTCHAR 03DB
ENCODING 987
SWIDTH 600 0
DWIDTH 18 0
BBX 15 23 2 -7
BITMAP
07FE
1FFE
3FFE
7C00
7000
E000
E000
E000
E000
E000
F000
7000
7C00
3FC0
1FE0
07E0
00F0
0070
0070
00F0
01E0
01E0
0180
ENDCHAR
STARTCHAR 03DC
ENCODING 988
SWIDTH 566 0
DWIDTH 17 0
BBX 13 22 3 0
BITMAP
FFF8
FFF8
FFF8
E000
E000
E000
E000
E000
E000
FFF0
FFF0
FFF0
E000
E000
E000
E000
E000
E000
E000
E000
E000
E000
ENDCHAR
STARTCHAR 03DD
ENCODING 989
SWIDTH 466 0
DWIDTH 14 0
BBX 15 29 -3 -6
BITMAP
007C
00FE
01FE
03C2
0380
0380
0380
0380
0380
0380
03FC
03FC
03FC
0380
0380
0380
0380
0380
0380
0380
0380
0380
0380
0380
0780
8F00
FF00
FE00
7800
ENDCHAR
STARTCHAR 03DE
ENCODING 990
SWIDTH 666 0
DWIDTH 20 0
BBX 15 22 3 -1
BITMAP
E000
F000
F800
3800
1800
3800
3806
381E
307C
71FC
77DC
7F18
7C38
F038
C030
0070
0070
0060
0070
007C
007C
001C
ENDCHAR
STARTCHAR 03DF
ENCODING 991
SWIDTH 666 0
DWIDTH 20 0
BBX 14 23 3 0
BITMAP
0E00
0E00
1C00
1C00
1C00
3800
3800
3800
7800
7000
7FFC
FFFC
FFF8
0038
0078
0070
0070
0070
00E0
00E0
00E0
01C0
01C0
ENDCHAR
STARTCHAR 03E0
ENCODING 992
SWIDTH 866 0
DWIDTH 26 0
BBX 22 28 2 -6
BITMAP
1FF800
7FFF00
FE1F80
EE03C0
8E01E0
0E00F0
0E00F0
0E03F0
0E07B8
0E0E38
0E0E38
0E1C1C
001C1C
001C1C
001C1C
001C1C
001C1C
001C1C
001C1C
001C1C
001C3C
001C38
000038
000038
000070
000070
0000E0
0000E0
ENDCHAR
STARTCHAR 03E1
ENCODING 993
SWIDTH 633 0
DWIDTH 19 0
BBX 15 22 2 -6
BITMAP
C000
F800
FE00
0F00
0780
01C0
01C0
01E0
03F0
0370
0738
0E78
1CF8
39DC
318C
738C
E70E
000E
000E
0006
0006
0006
ENDCHAR
STARTCHAR 03E2
ENCODING 994
SWIDTH 966 0
DWIDTH 29 0
BBX 25 28 2 -6
BITMAP
0E003800
1C001C00
38000E00
38000E00
78000F00
70000700
70000700
E0000300
E0000380
E01C0380
E01C0380
E01C0380
E01C0380
E01C0380
E01C0380
E01C0380
703E0700
70360700
78770F00
3FE3FE00
1FE3FE00
0F80FC00
0000F800
0001F000
0007C000
003F8000
00FC0000
00600000
ENDCHAR
STARTCHAR 03E3
ENCODING 995
SWIDTH 833 0
DWIDTH 25 0
BBX 21 22 2 -6
BITMAP
3800E0
700070
700070
700070
E00038
E00038
E00038
E07038
E07038
E07038
E07038
F0F878
70D8F0
7FDFF0
3FDFE0
1F07E0
0003C0
000780
000F00
007C00
03F000
018000
ENDCHAR
STARTCHAR 03E4
ENCODING 996
SWIDTH 766 0
DWIDTH 23 0
BBX 18 28 2 -6
BITMAP
0381C0
0F81C0
1F81C0
3E01C0
3801C0
7801C0
7001C0
F001C0
E001C0
E001C0
E001C0
E001C0
E001C0
E001C0
E001C0
7003C0
7003C0
7807C0
3E0FC0
1FFDC0
0FF9C0
03F1C0
0001C0
0001C0
0001C0
0001C0
0001C0
0001C0
ENDCHAR
STARTCHAR 03E5
ENCODING 997
SWIDTH 666 0
DWIDTH 20 0
BBX 16 22 2 -6
BITMAP
0707
1F07
3F07
7C07
7007
F007
E007
E007
E007
E007
F00F
700F
7C3F
3FFF
1FF7
07C7
0007
0007
0007
0007
0007
0007
ENDCHAR
STARTCHAR 03E6
ENCODING 998
SWIDTH 800 0
DWIDTH 24 0
BBX 19 28 3 -6
BITMAP
E00000
E00000
E00000
E00000
E00000
E00000
E1F800
E7FE00
EFFF00
FE0F80
F803C0
F001C0
F001E0
E000E0
E000E0
E000E0
E000E0
E000E0
E001E0
E001C0
E003C0
E00780
000F00
003E00
00FC00
07F000
1FC000
0C0000
ENDCHAR
STARTCHAR 03E7
ENCODING 999
SWIDTH 600 0
DWIDTH 18 0
BBX 16 17 1 0
BITMAP
0382
1FF7
3FFE
383E
701C
703E
70FE
3FEE
3FC7
0007
0007
0007
0007
000E
7C1E
FFFC
CFF8
ENDCHAR
STARTCHAR 03E8
ENCODING 1000
SWIDTH 700 0
DWIDTH 21 0
BBX 18 28 1 -6
BITMAP
07FC00
0FFE00
1FFF00
3C0780
780380
7803C0
0003C0
0001C0
0003C0
0003C0
000380
000780
000F00
001E00
003C00
007800
00F000
03E000
07C000
0F8000
3E0000
7C0000
F80000
780040
3E01C0
1FFFC0
07FF00
03FC00
ENDCHAR
STARTCHAR 03E9
ENCODING 1001
SWIDTH 600 0
DWIDTH 18 0
BBX 15 23 2 -7
BITMAP
0780
1FF0
3FF8
703C
F01C
E00C
000E
000C
001C
001C
0038
0070
01E0
03C0
0780
1E00
7C00
F000
E000
7004
3C1C
1FFC
07F0
ENDCHAR
STARTCHAR 03EA
ENCODING 1002
SWIDTH 766 0
DWIDTH 23 0
BBX 19 22 2 1
BITMAP
F001E0
F803E0
FC07E0
1E0700
0E0E00
071E00
079C00
03B800
01F800
01F000
00E000
01F000
01F800
03B800
071C00
071E00
0E0E00
1C0700
1C0700
7803C0
FFFFE0
FFFFE0
ENDCHAR
STARTCHAR 03EB
ENCODING 1003
SWIDTH 633 0
DWIDTH 19 0
BBX 17 17 1 0
BITMAP
F00780
F80F80
3C1E00
1E3C00
0E3800
077000
03E000
03E000
03C000
03E000
077000
0E7800
1E3800
1C1C00
780E00
FFFF80
FFFF80
ENDCHAR
STARTCHAR 03EC
ENCODING 1004
SWIDTH 700 0
DWIDTH 21 0
BBX 17 23 2 -1
BITMAP
000080
03FF80
1FFF80
3FFC00
780000
700000
71E000
EFFC00
FFFE00
F80F00
F00700
E00780
E00380
E00380
E00380
E00380
E00380
E00380
F00780
700F00
7C1F00
3FFE00
0FF800
ENDCHAR
STARTCHAR 03ED
ENCODING 1005
SWIDTH 600 0
DWIDTH 18 0
BBX 14 23 2 -1
BITMAP
0008
07F8
1FF8
3E00
7000
6000
E380
EFE0
DFF0
F038
E01C
E01C
C01C
C01C
C00C
C01C
C01C
E01C
E01C
7038
7878
3FF0
1FE0
ENDCHAR
STARTCHAR 03EE
ENCODING 1006
SWIDTH 600 0
DWIDTH 18 0
BBX 17 28 1 -6
BITMAP
01C000
01C000
01C000
01C000
01C000
01C000
FFFF80
FFFF80
FFFF80
E1C380
01C000
01C000
01C000
01C000
01C000
01C000
01C000
01C000
01C000
01C000
01C000
01C000
01C000
01C000
01C000
01C000
01C000
01C000
ENDCHAR
STARTCHAR 03EF
ENCODING 1007
SWIDTH 533 0
DWIDTH 16 0
BBX 15 28 1 -6
BITMAP
0380
0380
0380
0380
0380
0380
FFFE
FFFE
FFFE
E38E
0380
0380
0380
0380
0380
0380
0380
0380
0380
0380
0380
0380
0380
0380
0380
0380
0380
0380
ENDCHAR
STARTCHAR 03F0
ENCODING 1008
SWIDTH 666 0
DWIDTH 20 0
BBX 16 16 2 0
BITMAP
F807
FC0F
8E1E
061E
063C
0638
06F0
0FE0
0FE0
1E60
3CE0
78E0
7861
F073
E07F
C01F
ENDCHAR
STARTCHAR 03F1
ENCODING 1009
SWIDTH 666 0
DWIDTH 20 0
BBX 15 22 3 -6
BITMAP
0FE0
1FF0
3FF8
783C
701C
E00E
E00E
E00E
E00E
E00E
E00E
F01C
F83C
FFF8
EFF0
E3E0
7000
7000
7800
3FFE
1FFE
07FE
ENDCHAR
STARTCHAR 03F2
ENCODING 1010
SWIDTH 566 0
DWIDTH 17 0
BBX 13 16 2 0
BITMAP
07F0
1FF8
3FF8
7C08
7000
F000
E000
E000
E000
E000
F000
7000
7C08
3FF8
1FF8
07F0
ENDCHAR
STARTCHAR 03F3
ENCODING 1011
SWIDTH 266 0
DWIDTH 8 0
BBX 6 29 0 -6
BITMAP
1C
1C
1C
00
00
00
00
1C
1C
1C
1C
1C
1C
1C
1C
1C
1C
1C
1C
1C
1C
1C
1C
1C
1C
3C
F8
F8
E0
ENDCHAR
STARTCHAR 03F4
ENCODING 1012
SWIDTH 800 0
DWIDTH 24 0
BBX 20 22 2 0
BITMAP
01F800
0FFE00
1FFF80
3E07C0
3C01C0
7800E0
7000E0
E00070
E00070
FFFFF0
FFFFF0
FFFFF0
E00070
E00070
E00070
7000E0
7000E0
3801C0
3E07C0
1FFF80
0FFF00
01F800
ENDCHAR
STARTCHAR 03F5
ENCODING 1013
SWIDTH 600 0
DWIDTH 18 0
BBX 12 17 2 -1
BITMAP
03E0
1FF0
3FF0
7800
7000
E000
E000
E000
FFF0
FFF0
E000
E000
E000
7000
7800
3FF0
0FF0
ENDCHAR
STARTCHAR 03F6
ENCODING 1014
SWIDTH 600 0
DWIDTH 18 0
BBX 13 17 3 -1
BITMAP
7E00
FF80
FFC0
00E0
0070
0070
0030
0038
FFF8
FFF8
0038
0070
0070
00F0
01E0
FFC0
FF00
ENDCHAR
STARTCHAR 03F7
ENCODING 1015
SWIDTH 600 0
DWIDTH 18 0
BBX 14 22 3 0
BITMAP
E000
E000
E000
E000
FFC0
FFF0
FFF8
E078
E03C
E01C
E01C
E01C
E03C
E078
FFF8
FFF0
FFC0
E000
E000
E000
E000
E000
ENDCHAR
STARTCHAR 03F8
ENCODING 1016
SWIDTH 633 0
DWIDTH 19 0
BBX 15 29 3 -6
BITMAP
E000
E000
E000
E000
E000
E000
E000
E3E0
EFF0
FFF8
F83C
F01C
E00E
E00E
E00E
E00E
E00E
E00E
F01C
F83C
FFF8
EFF0
E3E0
E000
E000
E000
E000
E000
E000
ENDCHAR
STARTCHAR 03F9
ENCODING 1017
SWIDTH 700 0
DWIDTH 21 0
BBX 18 22 2 0
BITMAP
01FE00
07FF80
1FFFC0
3F01C0
3C0040
780000
700000
F00000
E00000
E00000
E00000
E00000
E00000
E00000
F00000
700000
780000
3C0040
3F01C0
1FFFC0
07FF80
01FE00
ENDCHAR
STARTCHAR 03FA
ENCODING 1018
SWIDTH 866 0
DWIDTH 26 0
BBX 20 22 3 0
BITMAP
F801F0
FC03F0
FE07F0
EE0770
EF0F70
E79E70
E3FC70
E1F870
E1F870
E0F070
E00070
E00070
E00070
E00070
E00070
E00070
E00070
E00070
E00070
E00070
E00070
E00070
ENDCHAR
STARTCHAR 03FB
ENCODING 1019
SWIDTH 700 0
DWIDTH 21 0
BBX 16 22 2 -6
BITMAP
F81F
FC3F
FE7F
EE77
EFF7
E7E7
E3C7
E187
E007
E007
E007
E007
E007
E007
E007
E007
E000
E000
E000
E000
E000
E000
ENDCHAR
STARTCHAR 03FC
ENCODING 1020
SWIDTH 633 0
DWIDTH 19 0
BBX 16 23 1 -7
BITMAP
01F0
07F8
0FFC
1C0E
1807
3807
3807
3803
3003
3003
3807
3807
3807
3C0E
3E1E
37FC
33F8
3000
3000
FFF0
FFF0
FFF0
3000
ENDCHAR
STARTCHAR 03FD
ENCODING 1021
SWIDTH 733 0
DWIDTH 22 0
BBX 18 22 2 0
BITMAP
1FE000
7FF800
FFFE00
E03F00
800F00
000780
000380
0003C0
0001C0
0001C0
0001C0
0001C0
0001C0
0001C0
0003C0
000380
000780
800F00
E03F00
FFFE00
7FF800
1FE000
ENDCHAR
STARTCHAR 03FE
ENCODING 1022
SWIDTH 700 0
DWIDTH 21 0
BBX 18 22 2 0
BITMAP
01FE00
07FF80
1FFFC0
3F01C0
3C0040
780000
700000
F00000
E00000
E00000
E07000
E07000
E07000
E07000
F00000
700000
780000
3C0040
3F01C0
1FFFC0
07FF80
01FE00
ENDCHAR
STARTCHAR 03FF
ENCODING 1023
SWIDTH 733 0
DWIDTH 22 0
BBX 18 22 2 0
BITMAP
1FE000
7FF800
FFFE00
E03F00
800F00
000780
000380
0003C0
0001C0
0001C0
0E01C0
0E01C0
0E01C0
0E01C0
0003C0
000380
000780
800F00
E03F00
FFFE00
7FF800
1FE000
ENDCHAR
STARTCHAR 0400
ENCODING 1024
SWIDTH 633 0
DWIDTH 19 0
BBX 14 27 3 0
BITMAP
0E00
0700
0380
0180
0000
FFFC
FFFC
FFFC
E000
E000
E000
E000
E000
E000
FFF8
FFF8
FFF8
E000
E000
E000
E000
E000
E000
E000
FFFC
FFFC
FFFC
ENDCHAR
STARTCHAR 0401
ENCODING 1025
SWIDTH 633 0
DWIDTH 19 0
BBX 14 27 3 0
BITMAP
3870
3870
3870
0000
0000
FFFC
FFFC
FFFC
E000
E000
E000
E000
E000
E000
FFF8
FFF8
FFF8
E000
E000
E000
E000
E000
E000
E000
FFFC
FFFC
FFFC
ENDCHAR
STARTCHAR 0402
ENCODING 1026
SWIDTH 800 0
DWIDTH 24 0
BBX 21 28 0 -6
BITMAP
FFFF80
FFFF80
FFFF80
038000
038000
038000
038000
038000
038000
03FFC0
03FFE0
03FFF0
0380F0
038078
038038
038038
038038
038038
038038
038038
038038
038038
000038
000078
0000F0
0007F0
0007E0
000780
ENDCHAR
STARTCHAR 0403
ENCODING 1027
SWIDTH 600 0
DWIDTH 18 0
BBX 14 27 3 0
BITMAP
00C0
0180
0300
0700
0000
FFFC
FFFC
FFFC
E000
E000
E000
E000
E000
E000
E000
E000
E000
E000
E000
E000
E000
E000
E000
E000
E000
E000
E000
ENDCHAR
STARTCHAR 0404
ENCODING 1028
SWIDTH 733 0
DWIDTH 22 0
BBX 18 22 2 0
BITMAP
01FE00
07FF80
1FFFC0
3E01C0
380040
700000
700000
E00000
E00000
FFFE00
FFFE00
FFFE00
E00000
E00000
F00000
700000
780000
3C0040
3E01C0
1FFFC0
07FF80
01FE00
ENDCHAR
STARTCHAR 0405
ENCODING 1029
SWIDTH 633 0
DWIDTH 19 0
BBX 15 22 2 0
BITMAP
0FF0
3FFC
7FFC
780C
F000
E000
E000
E000
F800
7F80
3FF0
0FF8
00FC
001E
000E
000E
000E
001E
C03C
FFFC
FFF8
3FE0
ENDCHAR
STARTCHAR 0406
ENCODING 1030
SWIDTH 300 0
DWIDTH 9 0
BBX 3 22 3 0
BITMAP
E0
E0
E0
E0
E0
E0
E0
E0
E0
E0
E0
E0
E0
E0
E0
E0
E0
E0
E0
E0
E0
E0
ENDCHAR
STARTCHAR 0407
ENCODING 1031
SWIDTH 300 0
DWIDTH 9 0
BBX 9 27 0 0
BITMAP
E380
E380
E380
0000
0000
1C00
1C00
1C00
1C00
1C00
1C00
1C00
1C00
1C00
1C00
1C00
1C00
1C00
1C00
1C00
1C00
1C00
1C00
1C00
1C00
1C00
1C00
ENDCHAR
STARTCHAR 0408
ENCODING 1032
SWIDTH 300 0
DWIDTH 9 0
BBX 8 28 -2 -6
BITMAP
07
07
07
07
07
07
07
07
07
07
07
07
07
07
07
07
07
07
07
07
07
07
07
0F
1E
FE
FC
F0
ENDCHAR
STARTCHAR 0409
ENCODING 1033
SWIDTH 1100 0
DWIDTH 33 0
BBX 29 22 1 0
BITMAP
07FFC000
07FFC000
07FFC000
0701C000
0701C000
0701C000
0701C000
0701C000
0701C000
0701FF80
0701FFE0
0701FFF0
0701C0F0
0F01C078
0E01C038
0E01C038
1E01C038
1E01C078
7C01C0F0
F801FFF0
F001FFE0
C001FF80
ENDCHAR
STARTCHAR 040A
ENCODING 1034
SWIDTH 1033 0
DWIDTH 31 0
BBX 26 22 3 0
BITMAP
E00E0000
E00E0000
E00E0000
E00E0000
E00E0000
E00E0000
E00E0000
E00E0000
E00E0000
FFFFFC00
FFFFFF00
FFFFFF80
E00E0780
E00E03C0
E00E01C0
E00E01C0
E00E01C0
E00E03C0
E00E0780
E00FFF80
E00FFF00
E00FFC00
ENDCHAR
STARTCHAR 040B
ENCODING 1035
SWIDTH 800 0
DWIDTH 24 0
BBX 21 22 0 0
BITMAP
FFFF80
FFFF80
FFFF80
038000
038000
038000
038000
038000
038000
03FFC0
03FFE0
03FFF0
0380F0
038078
038038
038038
038038
038038
038038
038038
038038
038038
ENDCHAR
STARTCHAR 040C
ENCODING 1036
SWIDTH 700 0
DWIDTH 21 0
BBX 18 27 3 0
BITMAP
00C000
018000
030000
070000
000000
E007C0
E00F80
E01E00
E03C00
E07800
E0F000
E1E000
E3C000
E78000
EFC000
FFC000
FDE000
F8F000
F07000
E07800
E03C00
E01C00
E01E00
E00F00
E00700
E00780
E003C0
ENDCHAR
STARTCHAR 040D
ENCODING 1037
SWIDTH 733 0
DWIDTH 22 0
BBX 17 27 3 0
BITMAP
0E0000
070000
038000
018000
000000
E00780
E00F80
E01F80
E01F80
E03F80
E03B80
E07B80
E07380
E0F380
E0E380
E1E380
E3C380
E38380
E78380
E70380
EF0380
EE0380
FE0380
FC0380
FC0380
F80380
F00380
ENDCHAR
STARTCHAR 040E
ENCODING 1038
SWIDTH 633 0
DWIDTH 19 0
BBX 17 28 1 0
BITMAP
0C1800
0E3800
07F000
03E000
000000
000000
E00780
700700
700700
780F00
380E00
3C1E00
1C1C00
1C1C00
0E3800
0E3800
0F7800
077000
07F000
03E000
03E000
03C000
01C000
03C000
078000
3F8000
3F0000
3E0000
ENDCHAR
STARTCHAR 040F
ENCODING 1039
SWIDTH 766 0
DWIDTH 23 0
BBX 17 27 3 -5
BITMAP
E00380
E00380
E00380
E00380
E00380
E00380
E00380
E00380
E00380
E00380
E00380
E00380
E00380
E00380
E00380
E00380
E00380
E00380
E00380
FFFF80
FFFF80
FFFF80
01C000
01C000
01C000
01C000
01C000
ENDCHAR
STARTCHAR 0410
ENCODING 1040
SWIDTH 700 0
DWIDTH 21 0
BBX 20 22 0 0
BITMAP
00F000
00F000
01F800
01F800
01F800
039C00
039C00
079E00
070E00
070E00
0F0F00
0E0700
0E0700
1C0380
1FFF80
3FFFC0
3FFFC0
3801C0
7801E0
7000E0
7000E0
E00070
ENDCHAR
STARTCHAR 0411
ENCODING 1041
SWIDTH 700 0
DWIDTH 21 0
BBX 16 22 3 0
BITMAP
FFFC
FFFC
FFFC
E000
E000
E000
E000
E000
E000
FFF0
FFFC
FFFE
E01E
E00F
E007
E007
E007
E00F
E01E
FFFE
FFFC
FFF0
ENDCHAR
STARTCHAR 0412
ENCODING 1042
SWIDTH 700 0
DWIDTH 21 0
BBX 16 22 3 0
BITMAP
FFE0
FFF8
FFFC
E03E
E00E
E00E
E00E
E00E
E03C
FFF8
FFF0
FFFC
E01E
E00F
E007
E007
E007
E00F
E01F
FFFE
FFFC
FFF0
ENDCHAR
STARTCHAR 0413
ENCODING 1043
SWIDTH 600 0
DWIDTH 18 0
BBX 14 22 3 0
BITMAP
FFFC
FFFC
FFFC
E000
E000
E000
E000
E000
E000
E000
E000
E000
E000
E000
E000
E000
E000
E000
E000
E000
E000
E000
ENDCHAR
STARTCHAR 0414
ENCODING 1044
SWIDTH 733 0
DWIDTH 22 0
BBX 20 27 1 -5
BITMAP
07FF80
07FF80
07FF80
070380
070380
070380
070380
070380
070380
070380
070380
070380
0F0380
0E0380
0E0380
0E0380
0E0380
1C0380
3C0380
FFFFF0
FFFFF0
FFFFF0
E00070
E00070
E00070
E00070
E00070
ENDCHAR
STARTCHAR 0415
ENCODING 1045
SWIDTH 633 0
DWIDTH 19 0
BBX 14 22 3 0
BITMAP
FFFC
FFFC
FFFC
E000
E000
E000
E000
E000
E000
FFF8
FFF8
FFF8
E000
E000
E000
E000
E000
E000
E000
FFFC
FFFC
FFFC
ENDCHAR
STARTCHAR 0416
ENCODING 1046
SWIDTH 1066 0
DWIDTH 32 0
BBX 31 22 1 0
BITMAP
7803803C
3C038078
1E0380F0
0F0381E0
078383C0
03C38780
01E38F00
00F39E00
00F39E00
00FBBE00
01FFFF00
01DFF700
03CFE780
0787C380
070381C0
0F0381E0
0E0380E0
1E0380F0
3C038078
38038038
7803803C
F003801E
ENDCHAR
STARTCHAR 0417
ENCODING 1047
SWIDTH 633 0
DWIDTH 19 0
BBX 15 22 2 0
BITMAP
1FC0
7FF0
FFF8
E07C
801C
001C
001C
001C
0078
1FF0
1FE0
1FF8
003C
001E
000E
000E
000E
801E
E03C
FFFC
7FF0
1FC0
ENDCHAR
STARTCHAR 0418
ENCODING 1048
SWIDTH 733 0
DWIDTH 22 0
BBX 17 22 3 0
BITMAP
E00780
E00F80
E01F80
E01F80
E03F80
E03B80
E07B80
E07380
E0F380
E0E380
E1E380
E3C380
E38380
E78380
E70380
EF0380
EE0380
FE0380
FC0380
FC0380
F80380
F00380
ENDCHAR
STARTCHAR 0419
ENCODING 1049
SWIDTH 733 0
DWIDTH 22 0
BBX 17 28 3 0
BITMAP
0C1800
0E3800
07F000
03E000
000000
000000
E00780
E00F80
E01F80
E01F80
E03F80
E03B80
E07B80
E07380
E0F380
E0E380
E1E380
E3C380
E38380
E78380
E70380
EF0380
EE0380
FE0380
FC0380
FC0380
F80380
F00380
ENDCHAR
STARTCHAR 041A
ENCODING 1050
SWIDTH 700 0
DWIDTH 21 0
BBX 18 22 3 0
BITMAP
E007C0
E00F80
E01E00
E03C00
E07800
E0F000
E1E000
E3C000
E78000
EFC000
FFC000
FDE000
F8F000
F07000
E07800
E03C00
E01C00
E01E00
E00F00
E00700
E00780
E003C0
ENDCHAR
STARTCHAR 041B
ENCODING 1051
SWIDTH 733 0
DWIDTH 22 0
BBX 18 22 1 0
BITMAP
07FFC0
07FFC0
07FFC0
0701C0
0701C0
0701C0
0701C0
0701C0
0701C0
0701C0
0701C0
0701C0
0701C0
0F01C0
0E01C0
0E01C0
0E01C0
1E01C0
7C01C0
F801C0
F001C0
C001C0
ENDCHAR
STARTCHAR 041C
ENCODING 1052
SWIDTH 866 0
DWIDTH 26 0
BBX 20 22 3 0
BITMAP
F801F0
FC03F0
FC03F0
FC03F0
EE0770
EE0770
EF0F70
E70E70
E70E70
E79E70
E39C70
E39C70
E1F870
E1F870
E1F870
E0F070
E0F070
E0F070
E00070
E00070
E00070
E00070
ENDCHAR
STARTCHAR 041D
ENCODING 1053
SWIDTH 766 0
DWIDTH 23 0
BBX 17 22 3 0
BITMAP
E00380
E00380
E00380
E00380
E00380
E00380
E00380
E00380
E00380
FFFF80
FFFF80
FFFF80
E00380
E00380
E00380
E00380
E00380
E00380
E00380
E00380
E00380
E00380
ENDCHAR
STARTCHAR 041E
ENCODING 1054
SWIDTH 800 0
DWIDTH 24 0
BBX 20 22 2 0
BITMAP
01F800
0FFE00
1FFF80
3E07C0
3C03C0
7801E0
7000E0
F000F0
E00070
E00070
E00070
E00070
E00070
E00070
F000F0
7000E0
7801E0
3C03C0
3E07C0
1FFF80
0FFF00
01F800
ENDCHAR
STARTCHAR 041F
ENCODING 1055
SWIDTH 766 0
DWIDTH 23 0
BBX 17 22 3 0
BITMAP
FFFF80
FFFF80
FFFF80
E00380
E00380
E00380
E00380
E00380
E00380
E00380
E00380
E00380
E00380
E00380
E00380
E00380
E00380
E00380
E00380
E00380
E00380
E00380
ENDCHAR
STARTCHAR 0420
ENCODING 1056
SWIDTH 600 0
DWIDTH 18 0
BBX 14 22 3 0
BITMAP
FFC0
FFF0
FFF8
E078
E03C
E01C
E01C
E01C
E03C
E078
FFF8
FFF0
FFC0
E000
E000
E000
E000
E000
E000
E000
E000
E000
ENDCHAR
STARTCHAR 0421
ENCODING 1057
SWIDTH 700 0
DWIDTH 21 0
BBX 18 22 2 0
BITMAP
01FE00
07FF80
1FFFC0
3F01C0
3C0040
780000
700000
F00000
E00000
E00000
E00000
E00000
E00000
E00000
F00000
700000
780000
3C0040
3F01C0
1FFFC0
07FF80
01FE00
ENDCHAR
STARTCHAR 0422
ENCODING 1058
SWIDTH 600 0
DWIDTH 18 0
BBX 19 22 0 0
BITMAP
FFFFE0
FFFFE0
FFFFE0
00E000
00E000
00E000
00E000
00E000
00E000
00E000
00E000
00E000
00E000
00E000
00E000
00E000
00E000
00E000
00E000
00E000
00E000
00E000
ENDCHAR
STARTCHAR 0423
ENCODING 1059
SWIDTH 633 0
DWIDTH 19 0
BBX 17 22 1 0
BITMAP
E00780
700700
700700
780F00
380E00
3C1E00
1C1C00
1C1C00
0E3800
0E3800
0F7800
077000
07F000
03E000
03E000
03C000
01C000
03C000
078000
3F8000
3F0000
3E0000
ENDCHAR
STARTCHAR 0424
ENCODING 1060
SWIDTH 900 0
DWIDTH 27 0
BBX 23 22 2 0
BITMAP
003800
003800
01FF00
0FFFE0
1FFFF0
3E38F8
78383C
F0381C
E0380E
E0380E
E0380E
E0380E
E0380E
F0381E
78383C
3C3878
1FFFF0
0FFFE0
01FF00
003800
003800
003800
ENDCHAR
STARTCHAR 0425
ENCODING 1061
SWIDTH 700 0
DWIDTH 21 0
BBX 19 22 1 0
BITMAP
7801E0
3C03C0
1C0380
1E0780
0F0F00
070E00
079C00
03FC00
01F800
01F000
00F000
01F000
01F800
03F800
079C00
071E00
0E0E00
1E0700
3C0780
380380
7803C0
F001E0
ENDCHAR
STARTCHAR 0426
ENCODING 1062
SWIDTH 800 0
DWIDTH 24 0
BBX 20 27 3 -5
BITMAP
E00380
E00380
E00380
E00380
E00380
E00380
E00380
E00380
E00380
E00380
E00380
E00380
E00380
E00380
E00380
E00380
E00380
E00380
E00380
FFFFF0
FFFFF0
FFFFF0
000070
000070
000070
000070
000070
ENDCHAR
STARTCHAR 0427
ENCODING 1063
SWIDTH 700 0
DWIDTH 21 0
BBX 15 22 3 0
BITMAP
E00E
E00E
E00E
E00E
E00E
E00E
E00E
E00E
E00E
F00E
780E
7FFE
3FFE
1FFE
000E
000E
000E
000E
000E
000E
000E
000E
ENDCHAR
STARTCHAR 0428
ENCODING 1064
SWIDTH 1100 0
DWIDTH 33 0
BBX 27 22 3 0
BITMAP
E00E00E0
E00E00E0
E00E00E0
E00E00E0
E00E00E0
E00E00E0
E00E00E0
E00E00E0
E00E00E0
E00E00E0
E00E00E0
E00E00E0
E00E00E0
E00E00E0
E00E00E0
E00E00E0
E00E00E0
E00E00E0
E00E00E0
FFFFFFE0
FFFFFFE0
FFFFFFE0
ENDCHAR
STARTCHAR 0429
ENCODING 1065
SWIDTH 1133 0
DWIDTH 34 0
BBX 30 27 3 -5
BITMAP
E00E00E0
E00E00E0
E00E00E0
E00E00E0
E00E00E0
E00E00E0
E00E00E0
E00E00E0
E00E00E0
E00E00E0
E00E00E0
E00E00E0
E00E00E0
E00E00E0
E00E00E0
E00E00E0
E00E00E0
E00E00E0
E00E00E0
FFFFFFFC
FFFFFFFC
FFFFFFFC
0000001C
0000001C
0000001C
0000001C
0000001C
ENDCHAR
STARTCHAR 042A
ENCODING 1066
SWIDTH 833 0
DWIDTH 25 0
BBX 22 22 1 0
BITMAP
FF8000
FF8000
FF8000
038000
038000
038000
038000
038000
038000
03FFC0
03FFF0
03FFF8
038078
03801C
03801C
03801C
03801C
03803C
038078
03FFF8
03FFF0
03FFC0
ENDCHAR
STARTCHAR 042B
ENCODING 1067
SWIDTH 866 0
DWIDTH 26 0
BBX 21 22 3 0
BITMAP
E00038
E00038
E00038
E00038
E00038
E00038
E00038
E00038
E00038
FFF038
FFFC38
FFFE38
E01E38
E00F38
E00738
E00738
E00738
E00F38
E01E38
FFFE38
FFFC38
FFF038
ENDCHAR
STARTCHAR 042C
ENCODING 1068
SWIDTH 700 0
DWIDTH 21 0
BBX 16 22 3 0
BITMAP
E000
E000
E000
E000
E000
E000
E000
E000
E000
FFF0
FFFC
FFFE
E01E
E00F
E007
E007
E007
E00F
E01E
FFFE
FFFC
FFF0
ENDCHAR
STARTCHAR 042D
ENCODING 1069
SWIDTH 733 0
DWIDTH 22 0
BBX 18 22 2 0
BITMAP
1FE000
7FF800
FFFE00
E01F00
800700
000380
000380
0001C0
0001C0
1FFFC0
1FFFC0
1FFFC0
0001C0
0001C0
0003C0
000380
000780
800F00
E01F00
FFFE00
7FF800
1FE000
ENDCHAR
STARTCHAR 042E
ENCODING 1070
SWIDTH 1066 0
DWIDTH 32 0
BBX 27 22 3 0
BITMAP
E003F000
E01FFC00
E03FFF00
E07C0F80
E0780780
E0F003C0
E0E001C0
E1E001E0
E1C000E0
E1C000E0
FFC000E0
FFC000E0
FFC000E0
E1C000E0
E1E001E0
E1E001C0
E0F003C0
E0F80780
E07C0F80
E03FFF00
E01FFE00
E003F000
ENDCHAR
STARTCHAR 042F
ENCODING 1071
SWIDTH 700 0
DWIDTH 21 0
BBX 16 22 2 0
BITMAP
07FF
1FFF
3FFF
3C07
7807
7007
7007
7007
7807
3C07
1FFF
0FFF
03FF
0787
0707
0F07
0E07
1E07
3C07
3807
7807
F007
ENDCHAR
STARTCHAR 0430
ENCODING 1072
SWIDTH 600 0
DWIDTH 18 0
BBX 14 16 2 0
BITMAP
1FC0
7FF0
7FF8
6078
001C
001C
0FFC
3FFC
7FFC
F01C
E01C
E03C
F07C
7FFC
7FDC
1F1C
ENDCHAR
STARTCHAR 0431
ENCODING 1073
SWIDTH 633 0
DWIDTH 19 0
BBX 15 23 2 1
BITMAP
03F8
0FFC
1FFC
3E00
7800
7000
E000
E7E0
FFF0
FFF8
F83C
F01C
E01E
E00E
E00E
E00E
E00E
E01E
701C
783C
3FF8
1FF0
0FE0
ENDCHAR
STARTCHAR 0432
ENCODING 1074
SWIDTH 600 0
DWIDTH 18 0
BBX 13 16 3 0
BITMAP
FF80
FFE0
FFF0
E0F0
E070
E0F0
FFE0
FF80
FFE0
E070
E038
E038
E078
FFF8
FFF0
FFC0
ENDCHAR
STARTCHAR 0433
ENCODING 1075
SWIDTH 533 0
DWIDTH 16 0
BBX 12 16 3 0
BITMAP
FFF0
FFF0
FFF0
E000
E000
E000
E000
E000
E000
E000
E000
E000
E000
E000
E000
E000
ENDCHAR
STARTCHAR 0434
ENCODING 1076
SWIDTH 733 0
DWIDTH 22 0
BBX 18 20 2 -4
BITMAP
0FFE00
0FFE00
0FFE00
0E0E00
0E0E00
0E0E00
0E0E00
0E0E00
0E0E00
1C0E00
1C0E00
1C0E00
380E00
FFFFC0
FFFFC0
FFFFC0
E001C0
E001C0
E001C0
E001C0
ENDCHAR
STARTCHAR 0435
ENCODING 1077
SWIDTH 600 0
DWIDTH 18 0
BBX 15 16 2 0
BITMAP
07E0
1FF8
3FFC
783C
701E
E00E
FFFE
FFFE
FFFE
E000
E000
7004
7C1C
3FFC
1FF8
07E0
ENDCHAR
STARTCHAR 0436
ENCODING 1078
SWIDTH 900 0
DWIDTH 27 0
BBX 25 16 1 0
BITMAP
7C1C1F00
3C1C3E00
1E1C3C00
0F1C7800
079CF000
03DDE000
03FFE000
03FFE000
07FFF000
0F3E7800
0E1C3800
1E1C3C00
3C1C1E00
381C0E00
781C0F00
F01C0780
ENDCHAR
STARTCHAR 0437
ENCODING 1079
SWIDTH 533 0
DWIDTH 16 0
BBX 12 16 2 0
BITMAP
1F80
7FE0
7FF0
40F0
0070
00F0
1FE0
1F80
1FE0
00F0
0070
0070
80F0
FFE0
FFE0
3F80
ENDCHAR
STARTCHAR 0438
ENCODING 1080
SWIDTH 666 0
DWIDTH 20 0
BBX 14 16 3 0
BITMAP
E03C
E07C
E07C
E0FC
E1FC
E1DC
E3DC
E79C
E71C
EF1C
FE1C
FE1C
FC1C
F81C
F81C
F01C
ENDCHAR
STARTCHAR 0439
ENCODING 1081
SWIDTH 666 0
DWIDTH 20 0
BBX 14 23 3 0
BITMAP
3030
3870
1FE0
0FC0
0000
0000
0000
E03C
E07C
E07C
E0FC
E1FC
E1DC
E3DC
E79C
E71C
EF1C
FE1C
FE1C
FC1C
F81C
F81C
F01C
ENDCHAR
STARTCHAR 043A
ENCODING 1082
SWIDTH 600 0
DWIDTH 18 0
BBX 14 16 3 0
BITMAP
E0F8
E1F0
E1E0
E3C0
E780
EF00
FE00
FF00
FF80
F3C0
E1C0
E1E0
E0F0
E070
E078
E03C
ENDCHAR
STARTCHAR 043B
ENCODING 1083
SWIDTH 633 0
DWIDTH 19 0
BBX 15 16 1 0
BITMAP
0FFE
0FFE
0FFE
0E0E
0E0E
0E0E
0E0E
0E0E
0E0E
1E0E
1C0E
1C0E
3C0E
F80E
F00E
C00E
ENDCHAR
STARTCHAR 043C
ENCODING 1084
SWIDTH 766 0
DWIDTH 23 0
BBX 17 16 3 0
BITMAP
F80F80
FC1F80
FC1F80
FE3F80
EE3B80
EE3B80
E77380
E77380
E7F380
E3E380
E3E380
E1C380
E1C380
E00380
E00380
E00380
ENDCHAR
STARTCHAR 043D
ENCODING 1085
SWIDTH 666 0
DWIDTH 20 0
BBX 14 16 3 0
BITMAP
E01C
E01C
E01C
E01C
E01C
E01C
FFFC
FFFC
FFFC
E01C
E01C
E01C
E01C
E01C
E01C
E01C
ENDCHAR
STARTCHAR 043E
ENCODING 1086
SWIDTH 600 0
DWIDTH 18 0
BBX 15 16 2 0
BITMAP
0FE0
1FF0
3FF8
783C
701C
E01E
E00E
E00E
E00E
E00E
E01E
701C
783C
3FF8
1FF0
0FE0
ENDCHAR
STARTCHAR 043F
ENCODING 1087
SWIDTH 666 0
DWIDTH 20 0
BBX 14 16 3 0
BITMAP
FFFC
FFFC
FFFC
E01C
E01C
E01C
E01C
E01C
E01C
E01C
E01C
E01C
E01C
E01C
E01C
E01C
ENDCHAR
STARTCHAR 0440
ENCODING 1088
SWIDTH 633 0
DWIDTH 19 0
BBX 15 22 3 -6
BITMAP
E3E0
EFF0
FFF8
F83C
F01C
E00E
E00E
E00E
E00E
E00E
E00E
F01C
F83C
FFF8
EFF0
E3E0
E000
E000
E000
E000
E000
E000
ENDCHAR
STARTCHAR 0441
ENCODING 1089
SWIDTH 566 0
DWIDTH 17 0
BBX 13 16 2 0
BITMAP
07F0
1FF8
3FF8
7C08
7000
F000
E000
E000
E000
E000
F000
7000
7C08
3FF8
1FF8
07F0
ENDCHAR
STARTCHAR 0442
ENCODING 1090
SWIDTH 633 0
DWIDTH 19 0
BBX 17 16 1 0
BITMAP
FFFF80
FFFF80
FFFF80
01C000
01C000
01C000
01C000
01C000
01C000
01C000
01C000
01C000
01C000
01C000
01C000
01C000
ENDCHAR
STARTCHAR 0443
ENCODING 1091
SWIDTH 600 0
DWIDTH 18 0
BBX 16 22 1 -6
BITMAP
E00F
700E
700E
781C
381C
383C
1C38
1C78
1E70
0EF0
0FE0
07E0
07C0
03C0
03C0
0380
0780
0700
0F00
7E00
7E00
7800
ENDCHAR
STARTCHAR 0444
ENCODING 1092
SWIDTH 900 0
DWIDTH 27 0
BBX 23 29 2 -6
BITMAP
003800
003800
003800
003800
003800
003800
003800
0F39E0
3FBBF8
7FFFF8
78FE3C
F0381C
E0380E
E0380E
E0380E
E0380E
E0380E
E0380E
F0381E
78FE3C
7FFFFC
3FBBF8
0F39E0
003800
003800
003800
003800
003800
003800
ENDCHAR
STARTCHAR 0445
ENCODING 1093
SWIDTH 600 0
DWIDTH 18 0
BBX 16 16 1 0
BITMAP
780F
3C1E
1E3C
0E38
0F78
07F0
03E0
01C0
03E0
07E0
0FF0
0F78
1E38
3C1C
781E
F00F
ENDCHAR
STARTCHAR 0446
ENCODING 1094
SWIDTH 700 0
DWIDTH 21 0
BBX 17 20 3 -4
BITMAP
E01C00
E01C00
E01C00
E01C00
E01C00
E01C00
E01C00
E01C00
E01C00
E01C00
E01C00
E01C00
E01C00
FFFF80
FFFF80
FFFF80
000380
000380
000380
000380
ENDCHAR
STARTCHAR 0447
ENCODING 1095
SWIDTH 600 0
DWIDTH 18 0
BBX 13 16 2 0
BITMAP
E038
E038
E038
E038
E038
E038
F038
7FF8
7FF8
1FF8
0038
0038
0038
0038
0038
0038
ENDCHAR
STARTCHAR 0448
ENCODING 1096
SWIDTH 900 0
DWIDTH 27 0
BBX 21 16 3 0
BITMAP
E07038
E07038
E07038
E07038
E07038
E07038
E07038
E07038
E07038
E07038
E07038
E07038
E07038
FFFFF8
FFFFF8
FFFFF8
ENDCHAR
STARTCHAR 0449
ENCODING 1097
SWIDTH 933 0
DWIDTH 28 0
BBX 24 20 3 -4
BITMAP
E07038
E07038
E07038
E07038
E07038
E07038
E07038
E07038
E07038
E07038
E07038
E07038
E07038
FFFFFF
FFFFFF
FFFFFF
000007
000007
000007
000007
ENDCHAR
STARTCHAR 044A
ENCODING 1098
SWIDTH 700 0
DWIDTH 21 0
BBX 18 16 1 0
BITMAP
FF0000
FF0000
FF0000
070000
070000
070000
07FE00
07FF80
07FF80
0703C0
0701C0
0701C0
0703C0
07FF80
07FF80
07FE00
ENDCHAR
STARTCHAR 044B
ENCODING 1099
SWIDTH 800 0
DWIDTH 24 0
BBX 19 16 3 0
BITMAP
E000E0
E000E0
E000E0
E000E0
E000E0
E000E0
FFC0E0
FFF0E0
FFF0E0
E078E0
E038E0
E038E0
E078E0
FFF0E0
FFF0E0
FFC0E0
ENDCHAR
STARTCHAR 044C
ENCODING 1100
SWIDTH 600 0
DWIDTH 18 0
BBX 13 16 3 0
BITMAP
E000
E000
E000
E000
E000
E000
FFC0
FFF0
FFF0
E078
E038
E038
E078
FFF0
FFF0
FFC0
ENDCHAR
STARTCHAR 044D
ENCODING 1101
SWIDTH 533 0
DWIDTH 16 0
BBX 13 16 2 0
BITMAP
7F00
FFC0
FFE0
80F0
0070
0038
3FF8
3FF8
3FF8
0038
0038
0070
81F0
FFE0
FFC0
7F00
ENDCHAR
STARTCHAR 044E
ENCODING 1102
SWIDTH 866 0
DWIDTH 26 0
BBX 21 16 3 0
BITMAP
E03F00
E0FFC0
E1FFE0
E1E0F0
E3C070
E38078
FF8038
FF8038
FF8038
E38038
E38078
E3C070
E1E0F0
E0FFE0
E0FFC0
E03F80
ENDCHAR
STARTCHAR 044F
ENCODING 1103
SWIDTH 600 0
DWIDTH 18 0
BBX 14 16 2 0
BITMAP
0FFC
3FFC
7FFC
781C
701C
701C
781C
3FFC
1FFC
07FC
0F1C
1E1C
3C1C
381C
781C
F01C
ENDCHAR
STARTCHAR 0450
ENCODING 1104
SWIDTH 600 0
DWIDTH 18 0
BBX 15 24 2 0
BITMAP
3800
1C00
0E00
0600
0300
0380
0000
0000
07E0
1FF8
3FFC
783C
701E
E00E
FFFE
FFFE
FFFE
E000
E000
7004
7C1C
3FFC
1FF8
07E0
ENDCHAR
STARTCHAR 0451
ENCODING 1105
SWIDTH 600 0
DWIDTH 18 0
BBX 15 23 2 0
BITMAP
1C70
1C70
1C70
0000
0000
0000
0000
07E0
1FF8
3FFC
783C
701E
E00E
FFFE
FFFE
FFFE
E000
E000
7004
7C1C
3FFC
1FF8
07E0
ENDCHAR
STARTCHAR 0452
ENCODING 1106
SWIDTH 633 0
DWIDTH 19 0
BBX 17 29 0 -6
BITMAP
1C0000
1C0000
1C0000
1C0000
1C0000
1C0000
FFFC00
FFFC00
FFFC00
1C0000
1C0000
1C0000
1C7C00
1DFE00
1FFF00
1F0700
1E0780
1C0380
1C0380
1C0380
1C0380
1C0380
1C0700
000700
000E00
003C00
007C00
007000
006000
ENDCHAR
STARTCHAR 0453
ENCODING 1107
SWIDTH 533 0
DWIDTH 16 0
BBX 12 24 3 0
BITMAP
00E0
01C0
0380
0300
0600
0E00
0000
0000
FFF0
FFF0
FFF0
E000
E000
E000
E000
E000
E000
E000
E000
E000
E000
E000
E000
E000
ENDCHAR
STARTCHAR 0454
ENCODING 1108
SWIDTH 533 0
DWIDTH 16 0
BBX 13 16 2 0
BITMAP
07F0
1FF8
3FF8
7808
7000
E000
FFE0
FFE0
FFE0
E000
E000
7000
7808
3FF8
1FF8
07F0
ENDCHAR
STARTCHAR 0455
ENCODING 1109
SWIDTH 533 0
DWIDTH 16 0
BBX 12 16 2 0
BITMAP
1FC0
7FE0
FFE0
F020
E000
E000
7C00
3FC0
03E0
0070
0070
8070
E0F0
FFE0
7FE0
1F80
ENDCHAR
STARTCHAR 0456
ENCODING 1110
SWIDTH 266 0
DWIDTH 8 0
BBX 3 23 3 0
BITMAP
E0
E0
E0
00
00
00
00
E0
E0
E0
E0
E0
E0
E0
E0
E0
E0
E0
E0
E0
E0
E0
E0
ENDCHAR
STARTCHAR 0457
ENCODING 1111
SWIDTH 266 0
DWIDTH 8 0
BBX 9 23 0 0
BITMAP
E380
E380
E380
0000
0000
0000
0000
1C00
1C00
1C00
1C00
1C00
1C00
1C00
1C00
1C00
1C00
1C00
1C00
1C00
1C00
1C00
1C00
ENDCHAR
STARTCHAR 0458
ENCODING 1112
SWIDTH 266 0
DWIDTH 8 0
BBX 6 29 0 -6
BITMAP
1C
1C
1C
00
00
00
00
1C
1C
1C
1C
1C
1C
1C
1C
1C
1C
1C
1C
1C
1C
1C
1C
1C
1C
3C
F8
F8
E0
ENDCHAR
STARTCHAR 0459
ENCODING 1113
SWIDTH 900 0
DWIDTH 27 0
BBX 24 16 1 0
BITMAP
0FFE00
0FFE00
0FFE00
0E0E00
0E0E00
0E0E00
0E0FF8
0E0FFE
0E0FFE
1E0E0F
1C0E07
1C0E07
3C0E0F
F80FFE
F00FFE
C00FF8
ENDCHAR
STARTCHAR 045A
ENCODING 1114
SWIDTH 900 0
DWIDTH 27 0
BBX 22 16 3 0
BITMAP
E03800
E03800
E03800
E03800
E03800
E03800
FFFFE0
FFFFF8
FFFFF8
E0383C
E0381C
E0381C
E0383C
E03FF8
E03FF8
E03FE0
ENDCHAR
STARTCHAR 045B
ENCODING 1115
SWIDTH 666 0
DWIDTH 20 0
BBX 17 23 0 0
BITMAP
1C0000
1C0000
1C0000
1C0000
1C0000
1C0000
FFFC00
FFFC00
FFFC00
1C0000
1C0000
1C0000
1C7C00
1DFE00
1FFF00
1F0F80
1E0780
1C0380
1C0380
1C0380
1C0380
1C0380
1C0380
ENDCHAR
ENDFONT
